{"glyphs":{"0":{"ha":667,"x_min":44,"x_max":622,"o":"m 381 594 q 370 576 381 582 q 350 569 360 569 q 256 538 304 569 q 167 446 207 506 q 128 329 128 386 q 161 240 128 272 q 244 208 194 208 q 453 282 368 208 q 539 472 539 356 q 514 560 539 517 q 453 603 489 603 q 381 594 400 603 m 103 181 q 74 209 103 181 q 44 321 44 238 q 96 483 44 404 q 214 607 147 563 q 332 651 281 651 q 347 672 332 667 q 456 686 386 686 q 574 619 525 686 q 622 472 622 551 q 512 224 622 322 q 244 125 401 125 q 103 181 161 125 z "},"1":{"ha":667,"x_min":56,"x_max":611,"o":"m 611 706 l 586 235 q 604 60 586 150 q 606 42 606 53 q 564 0 606 0 q 522 42 531 0 q 503 221 503 139 q 517 504 503 303 q 167 94 372 250 q 97 56 115 56 q 56 94 56 56 q 67 118 56 106 q 117 158 79 131 q 308 347 213 231 q 463 579 404 463 q 522 772 522 696 q 564 814 522 814 q 606 774 593 814 q 611 706 611 757 z "},"2":{"ha":667,"x_min":153,"x_max":514,"o":"m 264 681 l 269 653 q 228 611 269 611 q 193 633 206 611 q 181 681 181 656 q 228 774 181 735 q 331 814 275 814 q 422 778 386 814 q 458 672 458 743 q 406 542 458 625 q 351 458 389 517 q 236 167 236 281 q 299 106 236 129 q 472 83 361 83 q 514 42 514 83 q 472 0 514 0 q 267 32 351 0 q 153 167 153 75 q 279 500 153 311 q 375 672 375 644 q 333 731 375 731 q 288 715 311 731 q 264 681 264 700 z "},"3":{"ha":667,"x_min":111,"x_max":556,"o":"m 556 222 q 356 38 556 99 q 171 1 265 10 q 153 0 160 0 q 111 42 111 0 q 153 83 111 79 q 331 117 253 94 q 472 222 472 160 q 404 303 472 247 q 350 349 368 332 q 312 397 332 365 q 292 463 292 428 q 315 531 292 499 q 359 581 338 563 q 389 607 381 600 q 400 617 397 614 q 410 626 403 619 q 419 635 417 632 q 428 644 422 639 q 436 653 433 650 q 440 661 438 656 q 444 681 444 668 q 356 731 444 731 q 197 703 267 731 q 167 694 176 694 q 125 736 125 694 q 167 781 125 764 q 337 814 250 814 q 476 780 424 814 q 528 681 528 746 q 511 622 528 651 q 478 576 494 592 q 433 535 463 561 q 375 458 375 485 q 422 396 375 431 q 457 367 444 379 q 556 222 556 286 z "},"4":{"ha":667,"x_min":111,"x_max":556,"o":"m 514 0 q 458 34 486 0 q 431 111 431 68 q 444 283 431 214 q 316 250 399 250 q 172 320 233 250 q 111 481 111 390 q 192 772 111 611 q 236 814 213 814 q 278 772 278 814 q 267 740 278 763 q 194 483 194 596 q 230 379 194 425 q 315 333 265 333 q 389 347 364 333 q 436 375 417 361 q 500 403 476 403 q 542 361 542 403 q 528 282 542 353 q 514 111 514 211 q 535 78 514 97 q 556 42 556 58 q 514 0 556 0 z "},"5":{"ha":667,"x_min":56,"x_max":611,"o":"m 569 814 q 611 772 611 814 q 569 731 611 738 q 347 664 436 708 q 319 653 325 653 q 278 694 278 653 q 319 743 278 722 q 551 813 411 789 q 569 814 560 814 m 250 736 q 242 701 250 726 q 233 651 233 676 q 240 611 233 626 q 260 576 246 596 q 283 542 274 556 q 310 508 293 529 q 329 484 326 488 q 357 451 332 481 q 402 394 382 421 q 447 328 422 367 q 500 176 500 246 q 442 53 500 107 q 264 0 385 0 q 97 58 182 0 q 56 110 56 88 q 97 151 56 151 q 142 131 111 151 q 264 83 210 83 q 417 172 417 83 q 395 251 417 207 q 352 324 374 296 q 299 390 331 353 q 150 639 150 565 q 165 732 150 686 q 208 778 181 778 q 250 736 250 778 z "},"6":{"ha":667,"x_min":56,"x_max":611,"o":"m 222 306 q 266 369 222 336 q 372 403 310 403 q 488 360 435 403 q 542 250 542 318 q 441 72 542 144 q 222 0 340 0 q 107 51 158 0 q 56 167 56 103 q 200 518 56 354 q 525 797 326 661 q 569 814 547 814 q 611 772 611 814 q 554 716 611 756 q 447 637 497 676 q 333 539 396 597 q 232 426 271 481 q 139 167 139 297 q 165 110 139 136 q 222 83 192 83 q 381 131 304 83 q 458 250 458 179 q 429 301 458 283 q 369 319 400 319 q 297 286 329 319 q 264 264 278 264 q 222 306 222 264 z "},"7":{"ha":667,"x_min":56,"x_max":611,"o":"m 354 267 l 181 236 q 139 278 139 236 q 181 319 139 311 q 375 354 276 339 q 403 553 403 475 q 250 731 403 731 q 181 715 224 731 q 139 681 139 699 q 160 647 139 667 q 181 610 181 628 q 169 581 181 593 q 136 569 158 569 q 85 607 114 569 q 56 681 56 644 q 118 776 56 739 q 250 814 181 814 q 435 731 374 814 q 486 542 486 661 q 464 367 486 478 q 569 375 535 375 q 611 333 611 375 q 569 292 611 292 q 444 281 528 292 q 375 42 381 58 q 333 0 361 0 q 292 42 292 0 q 294 63 292 54 q 354 267 297 71 z "},"8":{"ha":667,"x_min":125,"x_max":542,"o":"m 294 464 q 330 501 308 479 q 364 538 351 524 q 394 570 376 551 q 421 601 411 589 q 440 628 431 614 q 458 674 458 653 q 433 713 458 696 q 374 731 408 731 q 294 700 340 731 q 236 669 249 669 q 194 711 194 669 q 258 776 194 738 q 383 814 321 814 q 493 773 444 814 q 542 667 542 732 q 508 578 542 622 q 456 515 474 535 q 400 455 439 496 q 346 397 361 414 q 486 125 486 218 q 451 35 486 69 q 361 0 417 0 q 125 167 125 0 q 239 400 125 261 q 139 544 153 511 q 125 597 125 576 q 167 639 125 639 q 208 599 208 639 q 294 464 208 571 m 290 333 q 208 174 208 232 q 249 100 208 117 q 361 83 290 83 q 403 125 403 83 q 290 333 403 189 z "},"9":{"ha":667,"x_min":111,"x_max":556,"o":"m 444 653 q 486 694 444 694 q 528 656 515 694 q 556 448 556 571 q 522 248 556 325 q 381 42 489 171 q 328 0 346 0 q 286 42 286 0 q 317 94 286 58 q 446 281 419 218 q 472 458 472 343 q 278 403 397 403 q 157 449 203 403 q 111 579 111 494 q 172 739 111 664 q 319 814 232 814 q 395 788 360 814 q 431 736 431 763 q 389 694 431 694 q 356 713 375 694 q 319 731 336 731 q 230 680 265 731 q 194 569 194 629 q 278 486 194 486 q 428 526 374 486 q 458 575 458 549 q 451 622 458 601 q 444 653 444 643 z "}," ":{"ha":667,"x_min":0,"x_max":0,"o":""},"!":{"ha":333,"x_min":83,"x_max":231,"o":"m 83 861 q 125 903 83 903 q 167 861 158 903 q 197 692 186 763 q 208 347 208 621 q 167 306 208 306 q 125 347 125 306 q 113 701 125 621 q 97 786 111 719 q 83 861 83 853 m 125 56 q 175 97 125 97 q 231 42 231 97 q 189 0 231 0 q 146 17 167 0 q 125 56 125 35 z "},"\"":{"ha":417,"x_min":56,"x_max":361,"o":"m 361 819 q 340 677 361 796 q 318 515 318 558 q 276 472 318 472 q 235 514 235 472 q 258 703 235 572 l 197 639 q 125 597 156 597 q 69 678 83 597 q 56 914 56 765 q 97 956 56 956 q 139 914 139 956 q 150 713 139 757 l 258 819 q 319 861 300 861 q 361 819 361 861 z "},"#":{"ha":667,"x_min":56,"x_max":611,"o":"m 311 301 l 261 218 q 319 222 294 222 l 365 222 l 408 301 l 311 301 m 569 306 l 508 304 l 458 217 l 542 208 q 583 167 583 203 q 542 125 583 125 l 414 136 l 378 69 q 333 28 357 28 q 292 69 292 28 q 306 111 292 83 l 319 139 q 207 129 282 139 q 172 42 172 67 q 131 0 172 0 q 89 42 89 0 q 104 111 89 72 q 56 153 56 111 q 97 194 56 186 q 153 204 139 201 l 217 307 q 150 314 190 310 q 97 319 110 318 q 56 361 56 324 q 97 403 56 403 l 265 388 q 289 433 269 394 q 333 472 308 472 q 375 431 375 472 q 357 385 375 421 l 408 385 q 436 386 417 386 l 456 386 q 492 457 471 414 q 542 500 514 500 q 583 458 583 500 q 572 423 583 444 q 556 389 561 401 l 569 389 q 611 347 611 389 q 569 306 611 306 z "},"$":{"ha":667,"x_min":56,"x_max":611,"o":"m 361 189 q 486 167 472 167 q 528 213 528 167 q 486 291 528 260 q 357 346 444 322 q 361 189 361 293 m 139 528 q 264 450 139 467 q 242 606 249 576 q 139 528 139 583 m 278 121 q 97 167 194 138 q 56 208 56 179 q 97 250 56 250 q 149 237 106 250 q 278 207 192 224 q 271 365 278 304 q 56 528 56 399 q 225 688 56 644 q 218 717 224 694 q 208 772 208 754 q 250 814 208 814 q 292 772 283 814 q 299 736 294 758 q 307 700 304 714 q 528 722 440 722 q 572 681 572 722 q 528 639 572 639 q 325 618 450 639 q 351 435 339 563 q 539 356 467 407 q 611 208 611 304 q 576 118 611 153 q 486 83 542 83 q 361 104 465 83 l 361 42 q 319 0 361 0 q 278 42 278 0 l 278 121 z "},"%":{"ha":1222,"x_min":64,"x_max":1167,"o":"m 840 181 q 833 222 833 199 q 875 319 833 278 q 978 361 917 361 q 1103 308 1039 361 q 1167 191 1167 254 q 1111 85 1167 128 q 992 42 1056 42 q 885 83 929 42 q 840 181 840 125 m 924 181 q 943 142 924 158 q 992 125 963 125 q 1052 144 1021 125 q 1083 192 1083 163 q 1044 249 1083 221 q 978 278 1006 278 q 933 261 950 278 q 917 219 917 244 q 924 181 917 194 m 361 0 q 319 42 319 0 q 339 89 319 57 l 589 506 q 760 772 651 610 q 806 814 788 814 q 847 772 847 814 q 826 725 847 756 q 657 458 732 583 l 407 42 q 361 0 382 0 m 333 651 q 292 694 292 672 q 333 736 292 736 q 388 717 350 736 q 449 674 426 699 q 472 611 472 650 q 381 493 472 535 q 194 458 307 458 q 101 496 139 458 q 64 597 64 533 q 208 772 64 715 q 236 778 222 778 q 278 736 278 778 q 235 694 278 711 q 169 652 192 676 q 147 597 147 628 q 194 542 147 542 q 338 564 288 542 q 389 611 389 586 q 357 639 389 622 q 345 646 353 642 q 333 651 338 650 z "},"&":{"ha":667,"x_min":56,"x_max":611,"o":"m 333 514 q 281 731 333 731 q 204 635 238 731 q 181 508 181 571 q 242 344 181 446 q 310 423 288 385 q 333 514 333 461 m 139 114 q 169 92 139 101 q 235 83 199 83 q 317 101 272 83 q 224 225 257 172 q 139 114 139 161 m 281 814 q 417 514 417 814 q 290 275 417 386 q 388 147 343 194 q 463 230 419 168 q 526 333 506 292 q 569 375 547 375 q 611 333 611 375 q 547 208 611 297 q 444 90 482 119 q 541 13 485 50 q 597 -42 597 -25 q 556 -83 597 -83 q 507 -64 536 -83 q 374 42 424 -8 q 339 19 350 25 q 229 0 301 0 q 106 31 157 0 q 56 114 56 61 q 175 293 56 203 q 97 503 97 422 q 125 658 97 586 q 281 814 183 814 z "},"'":{"ha":361,"x_min":83,"x_max":250,"o":"m 250 914 q 172 622 250 776 q 125 581 151 581 q 83 622 83 581 q 89 643 83 632 q 167 914 167 789 q 208 956 167 956 q 250 914 250 956 z "},"(":{"ha":667,"x_min":111,"x_max":403,"o":"m 361 -433 q 313 -392 340 -433 q 164 -106 217 -249 q 111 206 111 36 q 301 914 111 533 q 347 956 322 956 q 389 914 389 956 q 383 890 389 901 q 194 206 194 513 q 242 -79 194 50 q 382 -347 290 -208 q 403 -392 403 -378 q 361 -433 403 -433 z "},")":{"ha":667,"x_min":194,"x_max":556,"o":"m 236 956 q 276 942 249 956 q 478 690 401 879 q 556 250 556 500 q 532 -69 556 110 q 475 -383 508 -249 q 431 -433 463 -433 q 389 -392 389 -433 q 394 -357 389 -379 q 472 250 472 -32 q 409 640 472 465 q 236 869 346 815 q 194 914 194 890 q 236 956 194 956 z "},"*":{"ha":667,"x_min":125,"x_max":542,"o":"m 282 292 q 236 389 236 357 q 278 431 236 431 q 321 389 300 431 q 374 308 342 347 l 440 375 q 500 414 479 414 q 542 372 542 414 q 521 338 542 358 l 475 292 l 500 292 q 542 250 542 292 q 500 208 542 208 l 458 208 q 492 183 483 192 q 500 161 500 175 q 458 119 500 119 q 412 140 443 119 q 363 179 381 161 l 308 125 q 250 83 267 83 q 208 125 208 83 q 250 185 208 143 l 274 208 l 167 208 q 125 250 125 208 q 167 292 125 292 l 282 292 z "},"+":{"ha":667,"x_min":139,"x_max":528,"o":"m 399 246 l 417 128 q 375 86 417 86 q 333 128 344 86 q 317 233 324 160 q 181 222 242 222 q 139 264 139 222 q 181 306 139 306 q 310 317 235 306 q 306 458 306 378 q 347 500 306 500 q 389 458 389 500 q 393 329 389 386 l 486 347 q 528 306 528 347 q 486 264 528 275 q 399 246 468 258 z "},",":{"ha":361,"x_min":139,"x_max":306,"o":"m 306 0 q 228 -292 306 -137 q 181 -333 207 -333 q 139 -292 139 -333 q 144 -271 139 -282 q 222 0 222 -125 q 264 42 222 42 q 306 0 306 42 z "},"-":{"ha":667,"x_min":111,"x_max":583,"o":"m 583 250 q 542 208 583 208 q 476 215 539 208 q 375 222 414 222 q 182 199 250 222 q 153 194 169 194 q 111 235 111 194 q 153 278 111 264 q 375 306 236 306 q 542 292 417 306 q 583 250 583 286 z "},".":{"ha":500,"x_min":167,"x_max":278,"o":"m 208 106 q 254 86 231 106 q 278 44 278 67 q 259 11 278 22 q 218 0 240 0 q 181 20 196 0 q 167 64 167 40 q 208 106 167 106 z "},"/":{"ha":444,"x_min":56,"x_max":444,"o":"m 97 -181 q 56 -139 56 -181 q 114 83 56 -90 q 360 914 314 682 q 404 956 368 956 q 444 914 444 956 q 442 894 444 908 q 193 58 397 669 q 139 -139 147 -78 q 97 -181 133 -181 z "},":":{"ha":500,"x_min":136,"x_max":278,"o":"m 208 106 q 254 86 231 106 q 278 44 278 67 q 259 11 278 22 q 218 0 240 0 q 181 20 196 0 q 167 64 167 40 q 208 106 167 106 m 178 414 q 224 394 200 414 q 247 353 247 375 q 228 319 247 331 q 188 308 210 308 q 151 328 165 308 q 136 372 136 349 q 178 414 136 414 z "},";":{"ha":500,"x_min":167,"x_max":333,"o":"m 233 414 q 279 394 256 414 q 303 353 303 375 q 284 319 303 331 q 243 308 265 308 q 206 328 221 308 q 192 372 192 349 q 233 414 192 414 m 333 0 q 256 -292 333 -137 q 208 -333 235 -333 q 167 -292 167 -333 q 172 -271 167 -282 q 250 0 250 -125 q 292 42 250 42 q 333 0 333 42 z "},"<":{"ha":667,"x_min":83,"x_max":569,"o":"m 542 726 l 183 361 q 167 322 167 344 q 194 292 167 300 q 326 246 278 264 q 437 191 374 228 q 547 107 500 154 q 569 69 569 86 q 528 28 569 28 q 490 44 507 28 q 388 122 446 89 q 290 170 331 156 q 158 215 250 185 q 105 253 126 225 q 83 331 83 281 q 122 418 83 381 l 479 782 q 528 814 511 814 q 569 772 569 814 q 542 726 569 754 z "},"=":{"ha":667,"x_min":97,"x_max":583,"o":"m 542 417 l 439 417 q 303 401 364 417 q 169 368 236 385 q 139 364 140 364 q 97 406 97 364 q 136 447 97 439 q 177 458 140 449 q 250 475 214 467 q 431 500 349 500 l 542 500 q 583 458 583 500 q 542 417 583 417 m 167 264 q 336 283 179 267 q 513 303 493 300 q 542 306 533 306 q 583 264 583 306 q 542 222 583 229 q 338 198 506 215 q 160 181 169 181 q 138 192 150 181 q 125 222 125 203 q 167 264 125 258 z "},">":{"ha":667,"x_min":56,"x_max":611,"o":"m 133 804 q 553 608 439 692 q 611 505 611 567 q 565 404 611 443 q 231 42 389 253 q 181 0 200 0 q 139 42 139 0 q 165 94 139 60 q 500 456 321 303 q 528 500 528 479 q 500 542 528 521 q 97 728 393 617 q 56 772 56 743 q 94 814 56 814 q 133 804 107 814 z "},"?":{"ha":472,"x_min":64,"x_max":408,"o":"m 208 106 q 254 85 231 106 q 278 44 278 65 q 259 11 278 22 q 218 0 240 0 q 181 20 196 0 q 167 64 167 40 q 208 106 167 106 m 197 692 q 156 650 197 650 q 113 685 133 650 q 64 807 64 750 q 110 910 64 864 q 231 956 157 956 q 356 910 304 956 q 408 761 408 865 q 321 481 408 657 q 287 413 300 439 q 265 367 274 386 q 251 300 251 335 q 210 258 251 258 q 168 300 168 258 q 247 519 168 369 q 325 775 325 669 q 222 872 325 872 q 169 851 192 872 q 147 800 147 829 q 172 746 147 788 q 197 692 197 704 z "},"@":{"ha":806,"x_min":50,"x_max":756,"o":"m 342 322 q 309 285 326 322 q 292 207 292 247 q 319 167 292 167 q 399 246 339 167 q 379 286 386 271 q 342 322 364 322 m 275 -67 q 633 67 418 -67 q 650 78 642 72 q 681 83 658 83 q 722 42 722 83 q 686 0 722 21 q 583 -61 622 -39 q 449 -117 544 -83 q 275 -150 354 -150 q 99 -78 149 -150 q 50 125 50 -7 q 184 542 50 404 q 553 681 318 681 q 694 617 633 681 q 756 453 756 553 q 684 244 756 353 q 519 136 613 136 q 443 167 463 136 q 415 129 425 142 q 377 100 404 117 q 311 83 350 83 q 240 114 272 83 q 208 217 208 147 q 249 346 208 286 q 342 406 289 406 q 451 322 410 406 q 503 458 478 376 q 544 500 515 500 q 586 458 586 500 q 582 432 586 447 q 524 281 558 344 q 493 236 518 271 q 519 219 501 219 q 620 301 568 219 q 672 453 672 383 q 635 560 672 522 q 553 597 597 597 q 133 125 133 597 q 160 -20 133 26 q 275 -67 188 -67 z "},"A":{"ha":667,"x_min":56,"x_max":611,"o":"m 231 693 q 358 814 271 814 q 456 731 428 814 q 521 369 481 657 q 569 375 564 375 q 611 333 611 375 q 599 306 611 317 q 569 292 586 294 l 533 288 q 547 115 547 172 q 518 29 547 58 q 451 0 489 0 q 378 32 413 0 q 325 106 344 64 q 283 240 283 196 q 438 357 283 325 q 381 691 394 651 q 358 731 368 731 q 310 668 331 731 q 225 393 246 476 q 181 211 204 310 q 145 66 157 113 q 124 10 133 19 q 97 0 115 0 q 56 42 56 0 l 58 58 q 100 229 76 131 q 136 375 125 328 q 231 693 169 506 m 450 274 q 367 233 367 256 q 399 146 367 208 q 450 83 432 83 q 464 130 464 83 q 450 274 464 176 z "},"B":{"ha":667,"x_min":56,"x_max":611,"o":"m 306 83 q 465 150 401 83 q 528 267 528 217 q 375 325 528 311 q 270 363 318 331 q 222 456 222 394 q 244 563 222 476 q 267 676 267 650 q 266 710 267 703 q 258 724 265 717 q 239 731 251 731 q 174 629 208 731 q 139 456 139 528 q 175 239 139 383 q 178 222 178 231 q 136 181 178 181 q 92 222 103 181 q 56 456 56 367 q 94 664 56 536 q 152 771 114 728 q 243 814 190 814 q 323 779 296 814 q 350 688 350 744 q 328 547 350 632 q 306 456 306 461 q 458 397 306 411 q 563 360 515 392 q 611 267 611 328 q 524 91 611 182 q 306 0 438 0 q 189 36 242 0 q 136 97 136 72 q 178 139 136 139 q 227 111 188 139 q 306 83 267 83 z "},"C":{"ha":667,"x_min":56,"x_max":711,"o":"m 417 0 l 333 0 q 198 30 256 0 q 111 107 140 60 q 56 300 56 197 q 100 504 56 403 q 211 672 144 606 q 351 776 278 738 q 478 814 425 814 q 571 792 531 814 q 611 744 611 769 q 569 703 611 703 q 533 717 557 703 q 476 731 508 731 q 385 699 443 731 q 271 613 326 667 q 177 472 215 558 q 139 297 139 386 q 184 145 139 207 q 333 83 229 83 l 417 83 q 636 115 540 83 q 669 125 665 125 q 711 83 711 125 q 669 39 711 53 q 417 0 553 0 z "},"D":{"ha":667,"x_min":56,"x_max":611,"o":"m 117 153 q 88 161 96 153 q 56 431 56 196 q 83 678 56 578 q 125 747 94 713 q 319 814 185 814 q 519 733 428 814 q 611 558 611 651 q 508 301 611 410 q 328 146 433 224 q 200 49 222 68 q 169 19 178 28 l 157 7 q 117 -10 140 -10 q 75 33 75 -10 q 251 194 75 61 q 391 303 340 261 q 485 414 442 346 q 528 549 528 482 q 458 674 528 617 q 327 731 389 731 q 235 719 265 731 q 161 644 175 699 q 139 421 139 560 q 156 215 139 282 q 158 194 158 199 q 117 153 158 153 z "},"E":{"ha":667,"x_min":56,"x_max":711,"o":"m 444 722 l 403 731 q 267 709 353 731 q 181 667 181 688 q 271 569 181 625 q 333 516 304 550 q 361 449 361 482 q 342 389 361 415 q 306 349 324 363 q 265 321 289 336 q 237 302 242 306 q 221 292 232 299 l 204 281 q 190 272 199 278 q 175 262 181 265 q 163 253 169 258 q 153 244 157 247 q 144 236 147 240 q 139 222 139 229 q 206 130 139 176 q 361 83 274 83 q 636 115 540 83 q 669 125 665 125 q 711 83 711 125 q 669 39 711 53 q 361 0 553 0 q 148 70 240 0 q 56 222 56 140 q 150 344 56 283 q 176 361 158 350 q 233 400 193 372 q 278 444 274 428 q 249 480 278 457 q 188 526 221 503 q 126 588 154 550 q 97 669 97 626 q 136 742 97 711 q 258 794 175 774 q 387 814 342 814 q 459 800 432 814 q 486 764 486 786 q 444 722 486 722 z "},"F":{"ha":667,"x_min":56,"x_max":667,"o":"m 219 153 l 208 556 q 250 597 208 597 q 292 551 292 597 q 293 468 292 504 q 368 458 322 458 q 461 465 414 458 q 514 472 508 472 q 556 431 556 472 q 543 403 556 414 q 514 389 531 392 q 369 375 408 375 q 296 382 331 375 q 307 42 307 44 q 264 0 307 0 q 199 42 240 0 q 92 269 129 111 q 56 583 56 428 q 97 698 56 650 q 208 769 139 746 q 500 814 340 814 q 626 794 586 814 q 667 750 667 774 q 625 708 667 708 q 589 719 611 708 q 499 731 567 731 q 382 726 432 731 q 269 708 332 722 q 139 583 139 681 q 158 352 139 474 q 219 153 178 231 z "},"G":{"ha":667,"x_min":56,"x_max":611,"o":"m 383 300 q 401 292 385 299 q 424 281 418 285 q 445 269 431 278 q 467 251 460 260 q 483 231 475 243 q 500 167 500 207 q 454 46 500 92 q 333 0 408 0 q 140 81 225 0 q 56 293 56 163 q 95 524 56 424 q 197 685 135 624 q 328 780 258 746 q 458 814 397 814 q 565 778 518 814 q 611 683 611 743 q 596 592 611 622 q 542 539 569 539 q 513 550 525 539 q 500 581 500 561 l 511 608 q 528 672 528 642 q 508 717 528 703 q 459 731 489 731 q 388 716 429 731 q 303 667 347 701 q 222 586 258 633 q 163 465 186 539 q 139 299 139 392 q 195 144 139 206 q 334 83 251 83 q 417 167 417 83 q 347 225 417 206 q 299 257 321 233 q 278 312 278 281 q 287 353 278 343 q 319 372 296 364 q 442 389 378 389 q 548 385 507 389 q 600 369 589 381 q 611 340 611 357 q 569 299 611 299 q 535 302 567 299 q 463 306 504 306 q 383 300 422 306 z "},"H":{"ha":667,"x_min":56,"x_max":611,"o":"m 469 444 l 433 731 q 472 772 433 772 q 517 731 511 772 q 555 455 549 507 q 576 328 561 403 q 611 83 611 158 q 569 42 611 42 q 528 83 528 42 q 517 198 528 147 q 499 288 507 249 q 489 338 492 326 q 279 286 422 286 q 292 125 292 176 q 181 0 292 0 q 83 83 113 0 q 56 244 56 158 q 101 338 56 306 q 188 369 146 369 q 153 772 153 674 q 194 814 153 814 q 236 769 236 814 q 242 656 236 725 q 264 431 247 574 l 272 369 q 415 392 361 369 q 469 444 469 414 m 139 236 q 139 222 139 236 q 151 146 139 208 q 181 83 163 83 q 204 92 200 83 q 208 125 208 100 l 194 286 q 156 275 172 286 q 139 236 139 264 z "},"I":{"ha":778,"x_min":56,"x_max":722,"o":"m 97 750 q 128 760 103 751 q 160 771 154 769 q 188 779 165 772 q 219 788 211 786 q 247 795 226 790 q 278 802 267 800 q 308 807 289 804 q 343 811 328 810 q 419 814 374 814 q 625 753 524 814 q 667 707 667 728 q 658 676 667 686 q 628 667 649 667 q 594 675 608 667 q 422 731 501 731 q 283 717 343 731 q 129 672 222 703 q 97 667 107 667 q 56 708 56 667 q 97 750 56 736 m 375 85 l 419 83 q 651 178 521 83 q 681 186 663 186 q 722 144 722 186 q 689 104 722 129 q 430 0 549 0 q 251 28 311 0 q 160 114 192 56 q 153 142 153 128 q 194 183 153 183 q 224 169 213 183 q 236 149 236 154 q 290 101 249 124 q 278 417 278 251 l 278 583 q 319 625 278 625 q 361 583 361 625 l 361 417 q 372 131 361 268 l 375 85 z "},"J":{"ha":667,"x_min":56,"x_max":611,"o":"m 56 158 q 97 200 56 200 q 138 188 114 200 q 188 165 163 176 q 222 149 213 153 q 253 135 231 144 q 288 121 276 125 q 319 109 299 117 q 353 97 339 101 q 383 90 367 94 q 445 83 413 83 q 503 103 478 83 q 528 151 528 122 q 507 354 528 181 q 486 611 486 528 q 514 772 486 694 q 528 799 517 785 q 556 814 540 814 q 597 772 597 814 q 592 749 597 765 q 569 608 569 682 q 590 358 569 533 q 611 153 611 183 q 561 44 611 89 q 444 0 511 0 q 334 17 381 0 q 273 38 288 33 q 229 56 258 43 q 191 72 200 68 q 151 90 182 76 q 108 110 121 104 q 83 122 94 117 q 56 158 56 136 z "},"K":{"ha":667,"x_min":56,"x_max":711,"o":"m 669 39 q 504 0 553 0 q 419 28 456 0 q 366 107 382 56 q 342 214 350 158 q 288 464 317 390 q 164 316 189 367 q 139 167 139 265 q 97 125 139 125 q 56 167 56 125 q 69 469 56 278 q 83 772 83 661 q 125 814 83 814 q 167 772 167 814 q 159 531 167 614 q 151 443 151 449 q 569 694 379 694 q 611 653 611 694 q 569 611 611 611 q 354 518 469 611 q 408 344 389 436 q 431 203 426 253 q 517 83 440 85 q 603 104 540 83 q 669 125 665 125 q 711 83 711 125 q 669 39 711 53 z "},"L":{"ha":556,"x_min":56,"x_max":600,"o":"m 89 694 l 83 771 q 125 814 83 814 q 167 772 163 814 q 172 686 172 739 q 156 423 172 633 q 139 162 139 213 q 153 97 139 111 q 200 83 168 83 q 525 115 429 83 q 558 125 554 125 q 600 83 600 125 q 558 39 600 53 q 200 0 442 0 q 56 153 56 0 q 72 425 56 213 q 89 694 89 638 z "},"M":{"ha":861,"x_min":56,"x_max":906,"o":"m 814 111 l 864 125 q 906 83 906 125 q 868 40 906 53 q 814 28 831 28 q 713 111 747 28 q 680 304 693 157 q 655 570 667 451 q 625 689 643 689 q 583 496 608 689 q 574 417 578 450 q 565 335 571 385 q 556 264 558 286 q 521 127 544 171 q 444 83 497 83 q 343 167 378 83 q 287 356 322 213 q 222 615 251 500 q 181 731 192 731 q 151 459 163 731 q 139 40 139 188 q 97 0 139 0 q 65 13 75 0 q 56 40 56 26 q 66 423 56 174 q 92 731 76 672 q 179 814 114 814 q 275 731 244 814 q 327 538 292 686 q 394 278 363 390 q 444 167 426 167 q 472 272 461 167 q 533 689 519 650 q 566 750 546 728 q 625 772 586 772 q 721 689 692 772 q 743 513 732 661 q 771 238 754 364 q 814 111 788 111 z "},"N":{"ha":694,"x_min":56,"x_max":639,"o":"m 94 639 q 208 764 118 764 q 290 731 257 764 q 333 639 322 697 q 342 574 335 632 q 360 449 350 515 q 383 313 371 382 q 413 199 396 244 q 444 153 429 153 q 498 279 472 153 q 528 500 524 406 q 555 776 536 738 q 597 814 574 814 q 639 772 639 814 q 629 742 639 761 q 611 497 619 722 q 592 328 608 429 q 556 169 575 225 q 448 69 519 69 q 342 153 376 69 q 267 519 297 260 q 253 622 256 618 q 208 681 242 681 q 178 637 188 681 q 154 416 169 593 q 139 171 139 239 q 146 75 139 103 q 153 42 153 47 q 111 0 153 0 q 68 49 81 0 q 56 168 56 97 q 72 423 56 239 q 94 639 88 607 z "},"O":{"ha":778,"x_min":56,"x_max":722,"o":"m 250 625 q 292 583 292 625 q 250 542 292 550 q 166 462 193 531 q 139 303 139 393 q 204 149 139 214 q 368 83 269 83 q 553 170 467 83 q 639 361 639 257 q 601 597 639 483 q 544 693 582 656 q 449 731 507 731 q 354 710 390 731 q 306 689 318 689 q 264 731 264 689 q 306 778 264 753 q 374 803 328 792 q 458 814 419 814 q 583 772 529 814 q 665 661 636 731 q 722 361 722 526 q 611 111 722 222 q 368 0 500 0 q 146 90 236 0 q 56 313 56 181 q 107 527 56 446 q 229 622 158 608 q 250 625 243 625 z "},"P":{"ha":667,"x_min":56,"x_max":611,"o":"m 56 625 q 140 760 56 706 q 397 814 224 814 q 611 625 611 814 q 564 511 611 565 q 451 442 539 483 q 327 403 403 419 q 250 386 251 386 q 208 428 208 386 q 250 469 208 458 q 309 483 292 479 q 368 499 326 488 q 431 522 410 511 q 478 549 451 533 q 528 631 528 578 q 502 708 528 685 q 400 731 476 731 q 269 719 324 731 q 189 692 215 708 q 139 624 139 658 q 177 351 139 532 q 233 112 215 171 q 250 42 250 53 q 208 0 250 0 q 181 10 189 0 q 153 92 172 19 q 94 345 133 164 q 56 625 56 526 z "},"Q":{"ha":917,"x_min":56,"x_max":861,"o":"m 514 689 l 444 689 q 319 500 319 575 q 333 449 319 475 q 356 417 347 424 q 376 403 365 410 q 394 390 388 396 q 415 374 394 390 q 456 332 435 358 q 486 286 476 306 q 506 244 496 267 q 531 131 525 200 q 701 283 624 181 q 778 498 778 386 q 715 670 778 610 q 556 731 651 731 q 514 689 556 689 m 317 343 q 236 500 236 400 q 318 679 236 578 l 303 674 q 226 634 249 654 q 188 593 204 614 q 163 549 172 572 q 139 417 139 492 q 191 177 139 271 q 351 83 243 83 q 449 100 410 83 q 392 276 447 208 q 351 318 365 307 q 327 336 336 329 q 317 343 318 343 m 589 -81 q 597 -108 597 -92 q 556 -150 597 -150 q 514 -119 533 -150 q 450 11 456 -31 q 351 0 410 0 q 141 104 226 0 q 56 417 56 208 q 153 680 56 588 q 411 772 251 772 q 556 814 479 814 q 781 722 700 814 q 861 496 861 631 q 771 239 861 361 q 532 35 681 117 q 589 -81 531 -1 z "},"R":{"ha":750,"x_min":56,"x_max":694,"o":"m 131 0 q 104 15 115 0 q 89 42 93 29 q 56 361 56 175 q 99 571 56 469 q 233 743 142 672 q 442 814 325 814 q 627 759 560 814 q 694 597 694 704 q 389 361 694 361 q 653 147 560 254 q 694 83 694 97 q 653 42 694 42 q 625 53 636 42 q 597 83 614 64 q 473 203 539 151 q 250 350 407 254 q 208 403 208 376 q 250 444 208 444 l 389 444 q 558 478 504 444 q 611 588 611 511 q 572 698 611 665 q 451 731 532 731 q 311 697 371 731 q 214 607 250 663 q 139 361 139 493 q 169 63 139 189 q 172 42 172 54 q 131 0 172 0 z "},"S":{"ha":667,"x_min":56,"x_max":611,"o":"m 97 0 q 56 42 56 0 q 97 83 56 83 q 479 125 375 83 q 528 165 528 144 q 494 203 528 186 q 380 246 460 219 q 258 290 300 272 q 56 547 56 375 q 153 737 56 660 q 386 814 250 814 q 512 769 461 814 q 563 663 563 725 q 514 551 563 600 q 447 503 465 503 q 406 544 406 503 q 442 599 406 563 q 479 656 479 636 q 453 710 479 689 q 388 731 428 731 q 212 678 285 731 q 139 553 139 626 q 180 438 139 479 q 273 374 221 396 q 378 335 325 353 q 466 305 431 318 q 538 272 501 292 q 611 167 611 232 q 490 41 611 82 q 97 0 368 0 z "},"T":{"ha":667,"x_min":56,"x_max":667,"o":"m 625 639 q 425 550 503 639 q 347 333 347 461 l 347 42 q 306 0 347 0 q 264 42 264 0 l 264 333 q 326 556 264 457 q 486 694 389 654 q 97 731 278 731 q 56 772 56 731 q 97 814 56 814 q 625 750 313 814 q 654 731 642 747 q 667 694 667 715 q 653 656 667 674 q 625 639 639 639 z "},"U":{"ha":667,"x_min":56,"x_max":611,"o":"m 504 757 l 503 772 q 515 803 503 792 q 540 814 526 814 q 586 772 575 814 q 611 582 611 669 q 589 394 611 494 q 526 203 567 293 q 418 57 486 114 q 274 0 350 0 q 153 36 199 0 q 89 140 108 72 q 56 405 56 250 q 83 703 56 560 q 100 733 88 722 q 125 744 113 744 q 167 703 167 744 l 163 676 q 139 460 139 560 q 140 323 139 361 q 149 235 142 285 q 169 155 157 186 q 207 102 182 124 q 267 81 232 81 q 404 162 343 81 q 497 358 465 243 q 528 569 528 474 q 504 757 528 664 z "},"V":{"ha":667,"x_min":56,"x_max":611,"o":"m 139 689 q 189 405 150 572 q 244 190 228 238 q 263 137 261 143 q 267 127 265 131 q 270 117 268 124 q 274 108 272 111 q 278 101 275 106 q 283 93 281 96 q 289 89 286 92 q 306 83 297 83 q 326 117 315 83 q 368 289 338 153 q 528 781 446 636 q 569 814 547 814 q 611 772 611 814 q 603 743 611 758 q 444 256 519 599 q 403 83 414 121 q 306 0 375 0 q 181 121 219 0 q 108 387 149 213 q 57 672 68 561 q 56 689 56 681 q 97 731 56 731 q 139 689 135 731 z "},"W":{"ha":1000,"x_min":56,"x_max":944,"o":"m 58 667 l 56 683 q 56 689 56 686 q 97 731 56 731 q 139 693 135 731 q 217 302 158 521 q 306 83 275 83 q 334 181 319 83 q 363 399 349 278 q 388 556 378 521 q 479 639 413 639 q 539 617 519 639 q 563 577 556 596 q 577 546 571 558 q 614 411 583 533 q 722 83 694 83 q 753 197 733 83 q 802 488 772 310 q 849 730 832 665 q 876 804 867 794 q 903 814 885 814 q 944 772 944 814 q 942 749 944 760 q 866 364 907 626 q 811 72 825 101 q 791 33 797 43 q 767 11 785 22 q 722 0 749 0 q 619 83 653 0 q 566 260 596 139 q 513 469 536 382 q 479 556 490 556 q 455 458 468 556 q 427 240 442 360 q 401 90 413 119 q 383 48 390 61 q 355 17 376 35 q 308 0 333 0 q 265 7 282 0 q 233 31 247 14 q 194 99 219 49 q 122 333 168 149 q 58 667 75 518 z "},"X":{"ha":667,"x_min":56,"x_max":611,"o":"m 125 0 q 83 42 83 0 q 90 79 83 64 q 285 424 144 200 q 181 575 276 438 q 69 733 83 711 q 56 772 56 756 q 97 814 56 814 q 146 768 115 814 q 240 634 156 754 q 333 500 325 514 l 472 722 q 528 772 501 772 q 569 732 569 772 q 547 685 569 718 l 386 425 q 490 278 396 411 q 597 122 583 144 q 611 83 611 100 q 569 42 611 42 q 525 83 553 42 q 431 216 515 97 q 338 349 346 335 q 167 42 192 111 q 125 0 151 0 z "},"Y":{"ha":667,"x_min":56,"x_max":611,"o":"m 326 0 q 285 42 285 0 q 294 75 285 49 l 486 556 q 389 525 433 525 q 315 532 344 525 q 264 547 286 539 q 217 574 242 556 q 179 603 193 592 q 144 638 165 614 q 117 671 124 663 q 93 704 111 679 q 72 732 75 729 q 63 750 69 735 q 56 772 56 765 q 96 814 56 814 q 139 781 111 814 q 176 733 144 775 q 228 672 208 692 q 290 630 249 651 q 372 608 331 608 q 460 638 414 608 q 526 708 507 667 q 569 750 544 750 q 611 708 611 750 q 565 525 611 635 l 369 38 q 326 0 354 0 z "},"Z":{"ha":722,"x_min":56,"x_max":767,"o":"m 128 63 q 97 139 97 93 q 254 347 97 238 l 97 347 q 56 389 56 347 q 97 431 56 431 l 369 431 q 461 501 425 471 q 535 586 497 532 q 572 689 572 640 q 547 719 572 708 q 497 731 522 731 q 135 665 346 731 q 97 656 99 656 q 56 697 56 656 q 97 742 56 729 q 497 814 340 814 q 607 781 558 814 q 656 689 656 747 q 507 431 656 554 l 653 431 q 694 389 694 431 q 653 347 694 347 l 397 347 q 217 208 254 244 q 181 139 181 172 q 419 83 181 83 q 692 115 596 83 q 725 125 721 125 q 767 83 767 125 q 725 39 767 53 q 399 0 608 0 q 128 63 190 0 z "},"[":{"ha":667,"x_min":56,"x_max":594,"o":"m 258 872 q 178 857 218 872 q 139 814 139 842 q 153 651 139 744 q 167 485 167 557 q 153 247 167 414 q 139 0 139 81 q 199 -63 139 -43 q 329 -83 260 -83 q 525 -47 399 -83 q 553 -42 544 -42 q 594 -83 594 -42 q 553 -125 594 -111 q 321 -167 425 -167 q 136 -125 217 -167 q 56 3 56 -83 q 69 228 56 90 q 83 470 83 365 q 69 691 83 575 q 56 814 56 807 q 81 886 56 856 q 142 931 106 917 q 257 956 208 956 q 356 915 306 956 q 406 856 406 875 q 364 814 406 814 q 311 843 350 814 q 258 872 272 872 z "},"\\":{"ha":444,"x_min":56,"x_max":389,"o":"m 347 0 q 306 42 322 0 q 58 753 104 546 q 56 772 56 769 q 97 814 56 814 q 142 765 131 814 q 171 650 153 717 q 211 519 189 583 q 256 392 233 454 q 301 274 279 331 q 340 178 324 218 q 370 106 357 138 q 386 67 383 75 q 389 42 389 58 q 347 0 389 0 z "},"]":{"ha":667,"x_min":139,"x_max":611,"o":"m 567 159 q 589 115 567 159 q 611 0 611 71 q 577 -119 611 -71 q 489 -167 543 -167 q 333 -146 435 -167 q 185 -125 231 -125 q 139 -83 139 -125 q 185 -42 139 -42 q 334 -62 232 -42 q 486 -83 436 -83 q 517 -58 506 -83 q 528 10 528 -33 q 483 141 528 53 q 439 314 439 229 q 467 544 439 399 q 494 772 494 689 q 464 846 494 819 q 349 872 433 872 q 222 800 222 872 q 181 758 222 758 q 139 800 139 758 q 169 892 139 844 q 235 938 189 919 q 349 956 281 956 q 467 939 418 956 q 539 892 517 922 q 578 761 578 840 q 550 539 578 682 q 522 300 522 396 q 567 159 522 247 z "},"^":{"ha":556,"x_min":56,"x_max":500,"o":"m 360 872 q 346 872 360 872 q 294 842 332 872 q 205 758 257 811 q 147 700 153 706 q 139 692 142 694 q 132 686 136 690 q 115 672 119 674 q 108 669 111 671 q 97 667 103 667 q 56 708 56 667 q 97 768 56 729 q 135 806 110 781 q 171 841 161 831 q 201 870 181 851 q 230 897 221 889 q 256 917 239 904 q 283 934 272 929 q 307 944 293 939 q 356 956 331 956 q 398 948 381 956 q 427 929 415 940 q 449 900 439 918 q 466 867 460 882 q 478 831 472 853 q 488 797 485 808 q 497 747 497 758 q 500 731 500 738 q 460 689 500 689 q 417 731 425 689 q 360 872 389 872 z "},"_":{"ha":667,"x_min":-42,"x_max":708,"o":"m 667 0 l 333 -11 q 142 -6 256 -11 q 0 0 29 0 q -42 42 -42 0 q 0 83 -42 83 q 142 78 29 83 q 333 72 256 72 l 667 83 q 708 42 708 83 q 667 0 708 0 z "},"`":{"ha":389,"x_min":56,"x_max":333,"o":"m 56 913 q 97 956 56 956 q 153 922 114 956 q 244 831 192 889 q 324 717 296 772 q 333 683 333 699 q 292 642 333 642 q 247 683 268 642 q 97 861 199 779 q 56 913 56 894 z "},"a":{"ha":667,"x_min":56,"x_max":711,"o":"m 625 114 q 669 125 625 114 q 711 83 711 125 q 669 39 711 53 q 620 31 644 31 q 574 42 596 31 q 539 75 551 53 q 508 153 518 111 l 503 176 q 388 82 479 136 q 194 28 297 28 q 97 69 139 28 q 56 167 56 111 q 167 401 56 301 q 392 500 278 500 q 499 477 454 500 q 544 431 544 454 q 503 389 544 389 q 463 403 494 389 q 392 417 431 417 q 228 344 317 417 q 139 167 139 271 q 156 128 139 146 q 194 111 174 111 q 347 155 276 111 q 438 227 418 199 q 469 279 457 256 q 488 310 482 303 q 515 318 494 318 q 547 303 536 318 q 568 255 558 288 q 588 182 578 222 q 605 128 597 142 q 625 114 613 114 z "},"b":{"ha":667,"x_min":56,"x_max":611,"o":"m 361 814 q 306 872 361 872 q 231 830 268 872 q 194 700 194 788 q 225 569 194 613 q 361 814 361 718 m 222 432 q 121 307 132 317 q 97 297 110 297 q 56 339 56 297 q 74 378 56 356 q 101 414 92 401 q 119 438 111 426 q 169 500 132 454 q 111 694 111 582 q 133 826 111 771 q 189 908 156 883 q 310 956 253 956 q 406 916 368 956 q 444 807 444 876 q 405 668 444 738 q 276 500 365 599 q 492 314 342 413 q 575 233 539 282 q 611 125 611 183 q 559 33 611 67 q 427 0 507 0 q 264 42 347 0 q 222 83 222 61 q 264 125 222 125 q 300 114 276 125 q 369 93 324 103 q 442 83 414 83 q 499 94 471 83 q 528 125 528 106 q 494 199 528 163 q 417 264 461 236 q 316 338 374 292 q 222 432 258 385 z "},"c":{"ha":583,"x_min":56,"x_max":628,"o":"m 361 0 l 278 0 q 108 55 161 0 q 56 194 56 110 q 136 409 56 318 q 319 500 217 500 q 425 476 378 500 q 472 431 472 453 q 431 389 472 389 q 385 403 413 389 q 319 417 357 417 q 192 347 244 417 q 139 207 139 276 q 172 110 139 138 q 278 83 204 83 l 361 83 q 553 115 457 83 q 586 125 582 125 q 628 83 628 125 q 586 39 628 53 q 361 0 469 0 z "},"d":{"ha":667,"x_min":56,"x_max":611,"o":"m 220 743 q 207 760 220 743 q 194 814 194 778 q 219 876 194 850 q 280 913 243 903 q 365 931 317 922 q 450 943 414 939 q 551 955 544 954 q 569 956 557 956 q 611 914 611 956 q 600 889 611 903 q 578 874 589 875 q 530 867 567 872 q 454 858 493 863 q 374 846 415 853 q 278 814 278 829 q 328 742 278 803 q 445 601 378 682 q 542 473 513 521 q 572 366 572 425 q 530 234 572 307 q 427 112 488 161 q 303 31 367 63 q 185 0 239 0 q 94 35 132 0 q 56 125 56 69 q 151 365 56 274 q 350 456 246 456 q 411 449 369 456 q 468 433 453 442 q 343 594 440 479 q 220 743 246 708 m 485 339 q 418 361 463 350 q 350 372 374 372 q 210 306 282 372 q 139 125 139 240 q 156 94 139 106 q 200 83 172 83 q 284 113 228 83 q 401 203 340 142 q 485 339 463 265 z "},"e":{"ha":556,"x_min":-44,"x_max":600,"o":"m 92 81 q 71 69 90 81 q -3 42 21 42 q -44 83 -44 42 q -3 126 -44 110 q 31 143 4 129 q 61 160 57 157 q 56 197 56 172 q 143 411 56 322 q 303 500 231 500 q 417 466 375 500 q 458 384 458 432 q 436 301 458 336 q 367 233 414 267 q 176 124 301 186 q 331 83 232 83 q 525 115 429 83 q 558 125 554 125 q 600 83 600 125 q 558 39 600 53 q 333 0 442 0 q 92 81 179 0 m 139 197 q 375 375 375 315 q 306 417 375 417 q 201 351 264 417 q 139 197 139 285 z "},"f":{"ha":556,"x_min":56,"x_max":600,"o":"m 332 38 q 483 101 413 78 q 558 125 554 125 q 600 83 600 125 q 558 39 600 53 q 361 -42 450 3 q 389 -203 389 -119 q 335 -360 389 -286 q 208 -433 281 -433 q 96 -383 136 -433 q 56 -250 56 -333 q 69 -167 56 -192 q 88 -130 82 -143 q 111 -100 93 -117 q 135 -76 129 -83 q 167 -53 142 -68 q 194 -35 192 -37 q 228 -17 199 -33 l 257 0 q 153 625 153 271 q 193 831 153 726 q 254 920 214 885 q 341 956 294 956 q 419 931 388 956 q 467 869 450 907 q 500 732 500 793 q 485 624 500 671 q 447 551 469 576 q 375 500 403 500 q 333 542 333 500 q 347 567 333 554 q 375 594 360 581 q 403 644 390 608 q 417 725 417 679 q 395 822 417 771 q 347 872 374 872 q 268 791 300 872 q 236 625 236 710 q 332 38 236 286 m 204 -350 q 275 -299 244 -350 q 306 -193 306 -247 q 286 -81 306 -139 l 264 -92 q 236 -107 244 -101 q 209 -124 228 -112 q 181 -147 190 -135 q 161 -174 172 -158 q 139 -250 139 -201 q 204 -350 139 -350 z "},"g":{"ha":556,"x_min":83,"x_max":600,"o":"m 276 -37 q 226 26 268 -26 q 170 101 185 79 q 129 164 156 122 q 83 311 83 236 q 124 443 83 386 q 228 500 165 500 q 338 463 290 500 q 400 356 385 425 q 403 333 403 344 q 361 292 403 292 q 319 333 331 292 q 236 417 300 417 q 184 383 201 417 q 167 315 167 349 q 176 256 167 282 q 206 195 185 229 q 242 142 228 161 q 340 15 279 89 q 525 115 432 83 q 558 125 554 125 q 600 83 600 125 q 558 39 600 53 q 388 -53 476 13 q 453 -224 453 -154 q 397 -363 453 -293 q 276 -433 342 -433 q 168 -389 211 -433 q 125 -278 125 -344 q 276 -37 125 -175 m 324 -106 q 208 -278 208 -214 q 226 -331 208 -311 q 276 -350 244 -350 q 338 -304 307 -350 q 369 -217 369 -258 q 324 -106 369 -176 z "},"h":{"ha":750,"x_min":56,"x_max":794,"o":"m 794 83 q 667 28 794 28 q 574 54 607 28 q 542 146 542 81 q 531 258 542 211 q 500 306 519 306 q 389 197 442 306 q 342 108 367 153 q 276 31 317 63 q 181 0 235 0 q 56 242 56 0 q 94 579 56 415 q 201 849 132 743 q 346 956 269 956 q 461 900 422 956 q 500 756 500 844 q 451 583 500 668 q 331 444 401 497 q 278 417 296 417 q 236 458 236 417 q 283 511 236 475 q 374 615 331 547 q 417 772 417 682 q 400 841 417 810 q 347 872 383 872 q 258 785 306 872 q 174 549 210 699 q 139 241 139 399 q 181 83 139 83 q 292 192 239 83 q 339 281 314 236 q 405 358 364 326 q 500 389 446 389 q 625 153 625 389 q 666 111 625 111 q 728 118 707 111 q 753 125 749 125 q 794 83 794 125 z "},"i":{"ha":583,"x_min":-44,"x_max":628,"o":"m 321 689 q 367 669 343 689 q 390 627 390 649 q 372 594 390 606 q 331 583 353 583 q 294 603 308 583 q 279 647 279 624 q 321 689 279 689 m 196 172 q 38 53 118 89 q -3 42 13 42 q -44 83 -44 42 q -3 126 -44 110 q 56 160 19 135 q 106 197 93 185 q 149 243 118 210 q 199 294 181 276 q 248 329 217 311 q 306 347 279 347 q 389 308 360 347 q 424 222 418 269 q 472 97 439 97 q 540 111 499 97 q 586 125 582 125 q 628 83 628 125 q 586 39 628 53 q 465 14 511 14 q 389 53 418 14 q 354 139 360 92 q 306 264 339 264 q 265 241 288 264 q 228 205 242 218 q 196 172 214 192 z "},"j":{"ha":556,"x_min":56,"x_max":600,"o":"m 264 808 q 310 788 286 808 q 333 747 333 768 q 315 714 333 725 q 274 703 296 703 q 237 723 251 703 q 222 767 222 743 q 264 808 222 808 m 242 0 l 150 458 q 192 500 150 500 q 236 453 228 500 q 319 39 269 299 q 483 103 413 81 q 558 125 554 125 q 600 83 600 125 q 558 39 600 53 l 533 31 q 335 -47 414 -10 q 367 -285 367 -222 q 333 -390 367 -347 q 238 -433 299 -433 q 116 -367 176 -433 q 56 -222 56 -301 q 242 0 56 -103 m 256 -87 q 139 -222 139 -160 q 176 -308 139 -267 q 237 -350 213 -350 q 272 -330 261 -350 q 283 -281 283 -310 q 256 -87 283 -251 z "},"k":{"ha":556,"x_min":56,"x_max":600,"o":"m 444 14 q 331 81 371 14 q 292 233 292 147 q 333 278 292 278 q 375 228 375 278 q 394 138 375 178 q 442 97 414 97 q 513 111 471 97 q 558 125 554 125 q 600 83 600 125 q 558 39 600 53 q 444 14 483 14 m 167 914 l 165 890 q 144 643 149 724 q 139 449 139 563 q 146 301 139 336 q 260 438 179 375 q 458 500 340 500 q 500 458 500 500 q 458 417 500 417 q 353 396 401 417 q 278 344 306 375 q 211 240 225 286 q 202 205 208 232 q 193 169 196 178 q 183 144 192 160 q 140 118 169 118 q 83 210 110 118 q 56 375 56 303 q 56 505 56 447 q 58 597 57 563 q 63 681 58 631 q 67 746 67 731 q 83 915 69 811 q 125 956 88 956 q 167 914 167 956 z "},"l":{"ha":667,"x_min":-44,"x_max":711,"o":"m 486 0 q 263 200 353 0 q 136 111 213 160 q 36 52 60 63 q -3 42 13 42 q -44 83 -44 42 q -3 126 -44 110 q 97 185 21 136 q 225 278 172 235 q 194 500 194 378 q 263 820 194 685 q 417 956 332 956 q 479 933 453 956 q 518 878 506 911 q 542 739 542 814 q 525 587 542 664 q 485 457 508 510 q 431 358 463 404 q 332 249 383 290 q 486 83 407 83 q 603 104 540 83 q 669 125 665 125 q 711 83 711 125 q 669 39 711 53 q 486 0 553 0 m 417 872 q 356 814 393 872 q 278 500 278 692 q 299 329 278 403 q 383 440 344 372 q 458 750 458 571 q 447 831 458 790 q 417 872 436 872 z "},"m":{"ha":1389,"x_min":-44,"x_max":1433,"o":"m 1139 319 q 1250 186 1233 319 q 1253 162 1251 179 q 1257 135 1256 144 q 1261 119 1258 125 q 1264 108 1261 114 q 1278 97 1268 97 q 1346 111 1304 97 q 1392 125 1388 125 q 1433 83 1433 125 q 1392 39 1433 53 q 1275 14 1317 14 q 1167 175 1185 14 q 1139 236 1158 236 q 1033 139 1097 236 q 971 72 1010 103 q 892 42 932 42 q 828 69 851 42 q 797 122 804 97 q 771 243 789 150 q 747 342 753 336 q 736 347 740 347 q 702 323 717 347 q 669 256 688 299 q 635 167 651 213 q 610 101 619 122 q 583 51 600 79 q 500 0 553 0 q 439 25 464 0 q 400 89 414 50 q 374 248 375 167 q 358 373 374 329 q 319 417 342 417 q 211 328 247 417 q 175 206 194 285 q 43 54 147 99 q -3 42 21 42 q -44 83 -44 42 q -3 126 -44 110 q 16 134 14 133 q 26 139 18 135 q 38 145 35 143 q 48 152 40 147 q 59 162 56 157 q 69 174 63 167 q 78 188 75 181 q 97 242 89 208 q 113 297 106 275 q 139 366 119 319 q 179 436 158 413 q 237 480 200 460 q 327 500 274 500 q 419 438 381 500 q 457 250 457 376 q 467 144 457 206 q 500 83 478 83 q 524 113 511 83 q 544 164 536 143 q 564 217 553 186 q 646 383 606 335 q 736 431 686 431 q 819 378 794 431 q 849 288 840 332 q 889 125 876 125 q 994 222 931 125 q 1057 289 1018 258 q 1139 319 1096 319 z "},"n":{"ha":875,"x_min":-44,"x_max":919,"o":"m 878 39 q 761 14 803 14 q 696 44 719 14 q 653 149 672 75 q 625 222 635 222 q 549 111 589 222 q 499 35 533 69 q 412 0 464 0 q 331 46 360 0 q 297 146 301 92 q 282 246 292 200 q 250 292 272 292 q 228 283 235 292 q 216 267 221 275 q 206 252 211 260 q 194 232 201 244 q 181 206 189 219 q 136 133 153 157 q 38 53 103 81 q -3 42 13 42 q -44 83 -44 42 q 0 126 -44 110 q 63 174 44 143 q 106 246 82 206 q 138 300 129 286 q 161 333 147 314 q 186 360 175 354 q 250 375 215 375 q 336 329 307 375 q 370 229 365 283 q 385 129 375 175 q 417 83 394 83 q 459 118 439 83 q 494 194 479 153 q 544 271 510 236 q 625 306 578 306 q 678 288 661 306 q 702 261 694 271 q 716 232 710 251 q 725 203 722 213 q 733 172 728 194 q 764 97 750 96 q 832 111 790 97 q 878 125 874 125 q 919 83 919 125 q 878 39 919 53 z "},"o":{"ha":667,"x_min":56,"x_max":611,"o":"m 111 389 q 153 347 153 389 q 146 314 153 331 q 139 274 139 297 q 153 228 139 251 q 196 177 168 204 q 279 131 224 150 q 391 111 335 111 q 488 140 447 111 q 528 222 528 169 q 488 363 528 310 q 375 417 447 417 q 308 396 342 417 q 264 375 274 375 q 222 417 222 375 q 270 472 222 443 q 375 500 318 500 q 546 423 481 500 q 611 222 611 346 q 545 81 611 133 q 404 28 479 28 q 267 47 329 28 q 168 94 206 65 q 103 156 131 122 q 56 263 56 214 q 71 351 56 313 q 111 389 86 389 z "},"p":{"ha":667,"x_min":56,"x_max":583,"o":"m 194 -433 q 153 -392 157 -433 q 101 -56 146 -319 q 56 264 56 207 q 154 435 56 369 q 375 500 253 500 q 525 447 467 500 q 583 306 583 394 q 553 208 583 253 q 482 139 524 164 q 333 83 393 83 q 292 125 292 83 q 334 166 292 163 q 438 210 376 169 q 500 305 500 250 q 467 388 500 360 q 362 417 433 417 q 215 375 290 417 q 139 269 139 333 q 197 -133 139 206 l 213 -42 q 254 0 219 0 q 296 -42 296 0 q 294 -57 296 -49 l 240 -392 q 228 -419 239 -404 q 194 -433 217 -433 z "},"q":{"ha":556,"x_min":56,"x_max":500,"o":"m 500 417 q 458 375 500 375 q 417 394 449 375 q 347 417 372 417 q 210 339 282 417 q 139 181 139 261 q 158 110 139 136 q 208 83 178 83 q 347 142 276 83 q 417 247 417 201 q 458 292 417 292 q 488 281 476 292 q 500 250 500 269 q 479 17 500 193 q 458 -222 458 -158 l 458 -392 q 447 -422 458 -411 q 417 -433 436 -433 q 375 -392 375 -433 l 375 -222 q 389 -23 375 -124 q 403 83 403 78 q 320 27 374 54 q 201 0 267 0 q 96 56 136 0 q 56 181 56 111 q 153 401 56 301 q 347 500 251 500 q 458 467 400 500 q 500 417 500 442 z "},"r":{"ha":750,"x_min":-44,"x_max":794,"o":"m 93 186 q 106 246 96 190 q 131 355 117 301 q 184 454 146 408 q 276 500 222 500 q 455 445 382 500 q 528 304 528 390 q 551 151 528 218 q 614 83 575 83 q 679 100 640 83 q 753 125 742 125 q 794 83 794 125 q 753 39 794 53 q 613 0 675 0 q 511 52 551 0 q 458 168 471 104 q 444 306 444 232 q 397 385 444 354 q 278 417 350 417 q 186 231 219 417 q 167 147 172 158 q 38 53 143 99 q -3 42 13 42 q -44 83 -44 42 q -3 126 -44 110 q 93 186 79 160 z "},"s":{"ha":750,"x_min":-44,"x_max":694,"o":"m -3 126 q 115 191 72 157 q 221 290 158 225 q 303 372 283 356 q 444 431 369 431 q 545 408 490 431 q 647 329 600 386 q 694 194 694 272 q 603 58 694 115 q 361 0 511 0 q 319 42 319 0 q 361 83 319 83 q 543 120 475 83 q 611 194 611 157 q 578 283 611 246 q 444 347 519 347 q 360 311 401 347 q 280 231 347 300 q 169 126 213 161 q 69 67 125 92 q -3 42 13 42 q -44 83 -44 42 q -3 126 -44 110 z "},"t":{"ha":667,"x_min":56,"x_max":711,"o":"m 140 536 q 139 597 139 556 q 167 914 139 747 q 208 956 174 956 q 250 915 250 956 q 247 892 250 908 q 222 597 222 742 l 222 551 q 486 583 404 583 q 528 542 528 583 q 486 500 528 500 q 226 468 406 500 q 472 83 256 83 q 593 104 521 83 q 669 125 665 125 q 711 83 711 125 q 669 39 711 53 q 472 0 553 0 q 254 106 343 0 q 144 453 165 211 l 113 446 q 97 444 100 444 q 56 486 56 444 q 97 528 56 519 q 140 536 124 533 z "},"u":{"ha":806,"x_min":-44,"x_max":850,"o":"m 167 375 q 178 405 167 393 q 208 417 189 417 q 250 375 250 417 q 301 176 250 268 q 417 83 351 83 q 544 414 446 83 q 597 456 557 456 q 628 447 618 456 q 640 425 638 439 q 647 372 642 411 q 661 294 653 333 q 679 211 668 256 q 736 111 704 111 q 783 118 763 111 q 808 125 804 125 q 850 83 850 125 q 813 40 850 53 q 743 28 775 28 q 690 38 711 28 q 656 64 669 49 q 631 106 644 78 q 602 176 615 136 q 588 224 589 217 q 585 238 586 231 q 583 250 585 246 q 578 233 581 244 l 572 217 q 567 205 569 211 q 553 162 565 199 q 531 103 540 125 q 504 56 521 83 q 413 0 471 0 q 293 56 356 0 q 196 204 231 111 q 132 125 169 161 q 41 53 69 64 q -3 42 13 42 q -44 83 -44 42 q -3 127 -44 110 q 103 215 39 144 q 167 375 167 286 z "},"v":{"ha":806,"x_min":56,"x_max":722,"o":"m 399 100 q 384 72 399 100 q 338 22 369 44 q 276 0 306 0 q 223 8 246 0 q 183 26 200 15 q 150 58 165 36 q 124 96 135 79 q 104 143 114 113 q 90 192 94 174 q 78 247 85 211 q 69 300 72 283 q 56 431 56 411 q 97 472 56 472 q 127 463 118 472 q 139 433 136 454 q 146 374 142 413 q 153 317 150 336 q 160 265 156 297 q 170 215 165 232 q 182 172 175 197 q 197 133 189 147 q 217 108 206 122 q 274 84 238 85 q 359 211 310 83 q 419 394 408 339 q 540 500 447 500 q 681 458 576 500 q 722 417 722 442 q 681 375 722 375 q 613 396 665 375 q 542 417 560 417 q 500 375 511 417 q 461 249 493 342 q 399 100 429 156 z "},"w":{"ha":1014,"x_min":56,"x_max":958,"o":"m 958 458 q 764 42 958 42 q 569 153 669 42 q 386 33 460 67 q 249 0 313 0 q 147 25 185 0 q 92 97 111 51 q 56 286 56 183 q 83 458 56 389 q 101 490 93 481 q 125 500 110 500 q 167 458 167 500 q 163 432 167 442 q 139 306 139 372 q 236 83 139 83 q 327 98 296 83 q 371 117 358 113 q 401 133 383 122 q 428 150 419 144 q 454 169 436 156 q 477 186 472 182 q 499 204 482 190 q 519 221 517 218 q 486 336 486 281 q 506 432 486 392 q 547 472 526 472 q 590 431 590 472 q 580 397 590 421 q 569 333 569 372 q 639 201 569 276 q 764 125 708 125 q 875 458 875 125 q 917 500 875 500 q 958 458 958 500 z "},"x":{"ha":667,"x_min":56,"x_max":611,"o":"m 83 458 q 125 500 83 500 q 172 458 143 500 l 260 336 q 392 471 319 426 q 490 500 439 500 q 576 465 542 500 q 611 383 611 431 q 603 290 611 335 q 575 197 594 246 q 515 115 556 147 q 427 83 474 83 q 351 97 381 83 q 310 126 322 111 q 281 165 297 140 q 258 196 264 189 q 167 33 199 97 q 131 -39 133 -33 q 97 -56 121 -56 q 56 -14 56 -56 q 72 28 56 0 q 206 268 167 215 q 106 407 197 279 q 83 458 83 438 m 311 265 q 377 179 364 192 q 420 167 390 167 q 474 191 450 167 q 508 251 497 215 q 528 375 528 315 q 486 417 528 417 q 411 383 447 417 q 389 362 397 369 q 367 336 381 354 q 347 314 353 319 q 311 265 314 272 z "},"y":{"ha":611,"x_min":56,"x_max":556,"o":"m 556 375 q 540 -1 556 200 q 500 -308 524 -201 q 375 -433 474 -433 q 194 -192 194 -433 q 231 -62 194 -125 q 315 0 268 0 q 361 -42 361 0 q 342 -65 361 -51 q 278 -190 278 -110 q 298 -310 278 -269 q 375 -350 318 -350 q 421 -286 408 -350 q 464 106 447 -162 q 468 208 469 190 q 426 156 439 167 q 399 135 413 146 q 374 119 386 125 q 345 105 363 113 q 310 93 328 97 q 222 83 268 83 q 117 167 149 83 q 57 444 74 276 q 56 467 56 453 q 95 500 56 500 q 139 458 135 500 q 172 267 149 367 q 222 167 194 167 q 363 213 313 167 q 472 375 413 258 q 514 417 489 417 q 556 375 556 417 z "},"z":{"ha":611,"x_min":56,"x_max":556,"o":"m 97 417 q 56 458 56 417 q 97 500 56 500 q 401 467 317 500 q 486 361 486 433 q 444 230 486 328 q 403 80 403 132 q 441 -34 403 28 q 517 -156 479 -96 q 556 -267 556 -217 q 502 -389 556 -344 q 356 -433 449 -433 q 201 -384 264 -433 q 139 -268 139 -335 q 191 -163 139 -201 q 278 -125 243 -125 q 319 -167 319 -125 q 269 -211 319 -181 q 260 -217 263 -215 q 251 -222 257 -218 q 244 -228 246 -226 q 237 -235 242 -231 q 231 -242 232 -239 q 226 -249 229 -244 q 222 -267 222 -254 q 259 -325 222 -300 q 361 -350 296 -350 q 472 -268 472 -350 q 434 -181 472 -239 q 358 -52 396 -124 q 319 84 319 19 q 361 249 319 149 q 403 361 403 349 q 97 417 403 417 z "},"{":{"ha":417,"x_min":56,"x_max":361,"o":"m 225 722 l 217 833 q 256 875 217 875 q 300 833 296 875 q 308 722 308 750 q 260 544 308 646 q 150 354 211 442 q 208 242 200 333 q 217 162 211 203 q 249 83 224 121 q 306 31 274 44 q 361 -14 361 7 q 319 -56 361 -56 q 278 -47 294 -56 q 190 22 224 -22 q 144 112 156 67 q 128 198 133 157 q 118 265 124 239 q 97 292 113 292 q 56 333 56 292 q 78 396 56 365 q 181 569 138 476 q 225 722 225 663 z "},"|":{"ha":667,"x_min":286,"x_max":381,"o":"m 381 0 l 375 -433 q 333 -475 375 -475 q 292 -433 292 -475 l 297 0 q 292 297 297 119 q 286 500 286 475 q 292 956 286 500 q 333 997 292 997 q 375 956 375 997 l 369 500 q 375 296 369 475 q 381 0 381 117 z "},"}":{"ha":417,"x_min":69,"x_max":361,"o":"m 175 611 q 185 713 175 644 q 194 814 194 781 q 153 872 194 872 q 132 865 144 872 q 111 858 119 858 q 69 900 69 858 q 111 947 69 933 q 153 956 133 956 q 244 918 210 956 q 278 814 278 881 q 268 713 278 781 q 258 604 258 644 q 269 538 258 564 q 292 504 281 511 q 325 490 303 497 q 361 439 361 481 q 324 379 361 397 q 256 342 272 354 q 203 139 203 299 q 229 22 203 75 q 236 -14 236 8 q 194 -56 236 -56 q 147 -1 175 -56 q 119 139 119 53 q 206 408 119 339 q 244 433 213 414 q 175 611 175 490 z "},"~":{"ha":556,"x_min":42,"x_max":514,"o":"m 42 806 q 95 873 42 832 q 199 914 149 914 q 308 888 249 914 q 381 861 367 861 q 408 869 396 861 q 424 887 421 878 q 430 912 426 896 q 436 936 433 928 q 472 956 443 956 q 514 910 514 956 q 481 822 514 865 q 375 778 447 778 q 288 804 344 778 q 201 831 232 831 q 136 797 171 831 q 83 764 101 764 q 42 806 42 764 z "},"":{"ha":667,"x_min":0,"x_max":0,"o":""},"":{"ha":333,"x_min":111,"x_max":222,"o":"m 139 -97 q 125 472 139 333 l 122 500 q 164 542 122 542 q 206 500 201 542 q 222 -97 222 333 q 181 -139 222 -139 q 139 -97 139 -139 m 163 814 q 174 814 163 814 q 201 799 185 814 q 217 763 217 785 q 206 724 217 742 q 172 707 194 707 q 130 726 149 707 q 111 767 111 744 q 126 802 111 790 q 163 814 142 814 z "},"":{"ha":611,"x_min":56,"x_max":556,"o":"m 292 406 q 181 330 224 389 q 139 194 139 271 q 158 142 139 168 q 285 85 194 90 q 281 211 281 139 q 292 406 281 283 m 411 772 l 410 753 q 404 690 410 749 q 394 575 399 631 q 385 499 389 519 q 474 463 443 494 q 506 388 506 431 q 464 344 506 344 q 422 386 422 344 q 409 408 422 399 q 376 417 396 417 q 364 197 364 261 q 368 86 364 133 q 465 107 426 92 q 514 122 503 122 q 556 82 556 122 q 539 51 556 64 q 519 40 536 49 q 378 3 457 11 q 437 -209 429 -190 q 444 -236 444 -228 q 404 -278 444 -278 q 358 -240 374 -278 q 296 0 351 -222 q 126 56 197 6 q 56 194 56 106 q 124 390 56 307 q 300 494 192 474 q 317 650 306 529 q 328 774 328 771 q 369 814 332 814 q 411 772 411 814 z "},"":{"ha":806,"x_min":56,"x_max":750,"o":"m 167 22 q 232 101 189 22 q 208 106 221 106 q 139 64 139 106 q 167 22 139 22 m 556 0 q 308 65 439 0 q 248 -19 286 22 q 164 -61 210 -61 q 87 -26 118 -61 q 56 65 56 10 q 100 155 56 121 q 208 189 144 189 q 269 176 240 189 l 315 278 l 286 278 q 257 289 269 278 q 244 319 244 300 q 286 361 244 361 l 347 361 l 511 772 q 528 805 521 796 q 551 814 536 814 q 594 772 594 814 q 589 742 594 756 l 438 361 l 658 361 q 700 319 700 361 q 658 278 700 278 l 407 278 l 344 140 q 379 125 351 138 q 428 106 408 114 q 556 83 485 85 q 614 95 572 83 q 672 116 656 107 q 708 125 689 125 q 750 83 750 125 q 708 42 750 65 q 636 15 688 29 q 556 0 585 0 z "},"":{"ha":944,"x_min":56,"x_max":889,"o":"m 97 42 q 138 103 97 63 l 219 185 q 276 226 267 226 q 318 185 318 226 q 276 124 318 165 l 196 43 q 139 0 153 0 q 97 42 97 0 m 831 81 q 789 39 831 39 q 704 81 764 39 l 639 128 q 597 169 597 156 q 639 211 597 211 q 724 169 664 211 l 794 122 q 831 81 831 99 m 250 401 q 250 439 250 401 q 310 542 250 478 q 453 606 371 606 q 560 556 536 606 q 642 540 599 556 q 728 436 728 510 q 649 284 728 335 q 471 233 569 233 q 311 278 372 233 q 250 401 250 324 m 458 522 q 369 481 406 522 q 333 400 333 440 q 370 338 333 360 q 471 317 407 317 q 590 347 535 317 q 644 436 644 376 q 608 463 644 454 q 530 472 571 472 q 489 513 489 472 q 458 522 482 522 m 175 643 q 200 594 200 608 q 189 568 200 581 q 157 556 178 556 q 106 597 136 556 l 79 633 q 56 681 56 669 q 97 722 56 722 q 149 681 118 722 l 175 643 m 889 772 q 847 711 889 753 l 761 625 q 700 582 718 582 q 658 624 658 582 q 700 683 658 642 l 789 772 q 847 814 831 814 q 889 772 889 814 z "},"":{"ha":667,"x_min":56,"x_max":611,"o":"m 181 206 l 306 189 l 306 293 q 139 278 147 278 q 97 319 97 278 q 139 361 97 357 l 240 371 q 183 474 207 415 q 144 561 158 533 q 100 636 131 589 q 64 688 67 682 q 56 711 56 701 q 97 753 56 753 q 142 719 118 753 q 215 610 200 639 q 258 515 231 582 q 306 422 285 449 q 324 553 308 500 q 356 629 339 606 q 413 701 372 653 q 477 782 454 750 q 528 814 500 814 q 569 772 569 814 q 544 733 569 761 q 476 647 517 693 q 424 579 436 600 q 389 385 389 521 l 569 403 q 611 361 611 403 q 569 319 611 324 l 389 301 l 389 178 q 569 167 500 167 q 611 125 611 167 q 569 83 611 83 q 389 94 500 83 l 389 42 q 347 0 389 0 q 306 42 306 0 l 306 104 q 176 122 279 107 q 139 164 139 126 q 181 206 139 206 z "},"":{"ha":361,"x_min":111,"x_max":236,"o":"m 236 500 l 236 361 q 194 319 236 319 q 153 361 153 319 l 153 500 q 146 644 153 517 l 139 772 q 181 814 139 814 q 208 803 194 814 q 223 772 221 792 q 231 636 225 751 q 236 500 236 521 m 153 236 q 222 -61 222 236 q 215 -218 222 -172 q 172 -264 207 -264 q 131 -222 131 -264 q 135 -189 131 -214 q 139 -64 139 -164 q 115 169 139 106 q 111 194 111 186 q 153 236 111 236 z "},"":{"ha":611,"x_min":56,"x_max":556,"o":"m 244 379 q 122 456 167 414 q 78 558 78 497 q 157 744 78 675 q 350 814 236 814 q 417 790 388 814 q 447 731 447 765 q 406 689 447 689 q 378 710 392 689 q 350 731 364 731 q 219 688 278 731 q 161 558 161 646 q 202 496 161 524 q 301 446 243 468 q 416 399 358 424 q 515 331 474 374 q 556 240 556 289 q 527 138 556 192 q 456 54 499 85 q 489 -30 489 18 q 463 -111 489 -78 q 392 -164 436 -144 q 222 -207 317 -196 q 185 -210 206 -208 q 142 -215 164 -212 q 115 -217 119 -217 q 97 -219 110 -218 q 56 -178 56 -219 q 97 -136 56 -140 q 215 -124 176 -128 q 406 -33 406 -103 q 297 54 406 14 q 207 91 253 71 q 129 147 161 111 q 97 230 97 183 q 133 322 97 276 q 244 379 169 368 m 339 342 q 288 300 339 300 q 208 278 236 300 q 181 234 181 257 q 200 192 181 211 q 242 164 219 174 q 308 138 264 154 q 374 111 351 121 q 441 157 410 113 q 472 233 472 201 q 442 286 472 264 q 381 322 413 308 q 347 338 350 336 q 339 342 343 340 z "},"":{"ha":472,"x_min":56,"x_max":417,"o":"m 347 828 q 393 808 369 828 q 417 767 417 789 q 398 733 417 744 q 357 722 379 722 q 320 742 335 722 q 306 786 306 763 q 347 828 306 828 m 97 869 q 143 850 119 869 q 167 808 167 831 q 148 775 167 786 q 107 764 129 764 q 70 784 85 764 q 56 828 56 804 q 97 869 56 869 z "},"":{"ha":861,"x_min":56,"x_max":806,"o":"m 597 208 q 389 153 486 153 q 299 188 335 153 q 264 278 264 224 q 319 415 264 372 q 444 458 375 458 q 486 417 486 458 q 444 375 486 375 q 406 371 424 375 q 367 343 388 367 q 347 278 347 319 q 389 236 347 236 q 563 283 468 236 q 597 292 579 292 q 639 250 639 292 q 597 208 639 229 m 361 583 q 403 625 361 617 q 514 639 472 639 q 722 546 638 639 q 806 310 806 453 q 703 84 806 168 q 472 0 601 0 q 178 89 300 0 q 56 306 56 178 q 125 513 56 433 q 306 592 194 592 q 361 583 344 592 m 361 500 l 306 508 q 189 460 239 508 q 139 313 139 413 q 236 149 139 214 q 472 83 333 83 q 642 142 561 83 q 722 308 722 201 q 665 485 722 414 q 514 556 607 556 q 448 549 489 556 q 403 542 407 542 q 390 510 403 521 q 361 500 378 500 z "},"":{"ha":514,"x_min":56,"x_max":458,"o":"m 239 721 q 139 653 139 682 q 181 608 139 608 q 197 625 189 608 q 215 672 204 642 q 239 721 226 701 m 319 772 q 418 725 378 772 q 458 638 458 678 q 417 597 458 597 q 372 643 394 597 q 319 689 350 689 q 300 663 311 689 q 277 607 289 638 q 240 550 265 576 q 172 525 214 525 q 93 567 131 525 q 56 653 56 608 q 135 765 56 717 q 278 814 214 814 q 319 772 319 814 m 389 403 q 153 375 250 375 q 111 417 111 375 q 153 458 111 458 q 375 483 250 458 q 389 486 386 486 q 431 444 431 486 q 389 403 431 411 z "},"":{"ha":1000,"x_min":56,"x_max":944,"o":"m 903 42 l 876 46 l 597 131 q 497 196 519 153 q 486 240 486 219 q 488 271 486 261 q 493 290 489 281 q 500 306 497 300 q 510 320 503 311 q 521 332 518 329 q 583 394 532 343 q 639 460 635 446 q 655 488 643 475 q 681 500 667 500 q 722 458 722 500 q 717 432 722 449 q 597 292 708 403 q 569 250 569 264 q 597 218 569 226 l 903 125 q 944 83 944 113 q 903 42 944 42 m 181 42 q 91 77 126 42 q 56 174 56 113 q 128 290 56 236 l 392 485 q 431 500 413 500 q 472 458 472 500 q 450 428 472 444 q 431 413 444 425 l 181 225 q 139 167 139 194 q 181 125 139 125 q 500 83 381 125 q 542 42 542 69 q 500 0 542 0 q 465 8 489 0 q 357 28 442 15 q 181 42 272 42 z "},"":{"ha":611,"x_min":56,"x_max":556,"o":"m 514 458 l 500 264 q 514 142 500 190 q 542 72 528 93 q 556 42 556 50 q 514 0 556 0 q 448 74 479 0 q 417 264 417 147 q 428 414 417 311 q 97 383 125 383 q 56 425 56 383 q 97 467 56 463 q 472 500 431 500 q 514 458 514 500 z "},"":{"ha":667,"x_min":111,"x_max":583,"o":"m 583 250 q 542 208 583 208 q 476 215 539 208 q 375 222 414 222 q 182 199 250 222 q 153 194 169 194 q 111 235 111 194 q 153 278 111 264 q 375 306 236 306 q 542 292 417 306 q 583 250 583 286 z "},"":{"ha":931,"x_min":56,"x_max":875,"o":"m 785 292 q 792 339 792 313 q 755 501 792 411 q 644 660 718 590 q 486 731 571 731 q 251 597 364 731 q 139 347 139 463 q 433 83 139 83 q 694 169 606 83 q 475 237 599 178 q 338 322 351 296 l 315 278 q 274 236 294 236 q 232 278 232 236 q 244 319 232 299 l 335 494 q 372 561 356 535 q 419 613 388 588 q 486 639 451 639 q 591 596 557 639 q 625 497 625 553 q 564 405 625 440 q 407 369 503 369 q 548 294 449 338 q 736 250 647 250 q 785 292 736 292 m 806 185 q 669 52 772 104 q 433 0 565 0 q 149 92 242 0 q 56 347 56 183 q 89 498 56 417 q 178 649 122 579 q 317 767 235 719 q 497 814 399 814 q 687 734 594 814 q 827 546 779 654 q 875 332 875 438 q 806 185 875 226 m 407 453 q 497 467 453 453 q 542 500 542 481 q 486 556 542 556 q 425 486 464 556 q 415 467 421 478 q 407 453 408 456 z "},"":{"ha":667,"x_min":56,"x_max":611,"o":"m 97 928 q 569 956 236 956 q 611 914 611 956 q 569 872 611 872 q 111 846 243 872 q 97 844 100 844 q 56 886 56 844 q 97 928 56 919 z "},"":{"ha":431,"x_min":56,"x_max":375,"o":"m 250 725 q 258 726 250 725 q 278 740 265 728 q 292 781 292 753 q 267 841 292 810 q 210 872 242 872 q 158 846 178 872 q 139 787 139 819 q 160 738 139 754 q 208 722 181 722 q 250 725 235 722 m 56 778 q 97 905 56 854 q 206 956 139 956 q 324 901 272 956 q 375 782 375 846 q 335 678 375 718 q 218 639 294 639 q 99 683 142 639 q 56 778 56 726 z "},"":{"ha":667,"x_min":111,"x_max":583,"o":"m 583 -28 q 542 -69 583 -69 q 476 -62 539 -69 q 375 -56 414 -56 q 182 -79 250 -56 q 153 -83 169 -83 q 111 -43 111 -83 q 153 0 111 -14 q 375 28 236 28 q 542 14 417 28 q 583 -28 583 8 m 399 246 l 417 128 q 375 86 417 86 q 333 128 344 86 q 317 233 324 160 q 181 222 242 222 q 139 264 139 222 q 181 306 139 306 q 310 317 235 306 q 306 458 306 378 q 347 500 306 500 q 389 458 389 500 q 393 329 389 386 l 486 347 q 528 306 528 347 q 486 264 528 275 q 399 246 468 258 z "},"":{"ha":417,"x_min":56,"x_max":361,"o":"m 319 472 l 208 472 q 110 506 151 472 q 69 589 69 540 q 101 684 69 638 q 163 769 132 731 q 194 831 194 808 q 153 872 194 872 q 125 858 139 872 q 97 844 111 844 q 56 886 56 844 q 85 936 56 917 q 161 956 114 956 q 243 922 208 956 q 278 839 278 889 q 247 743 278 789 q 184 658 215 697 q 153 599 153 619 q 169 567 153 578 q 208 556 186 556 l 319 556 q 361 514 361 556 q 319 472 361 472 z "},"":{"ha":361,"x_min":56,"x_max":306,"o":"m 56 458 q 97 500 56 500 q 124 486 111 500 q 156 472 138 472 q 199 492 175 472 q 222 542 222 513 q 178 609 222 556 q 133 696 133 663 q 144 751 133 729 q 171 786 157 775 q 208 831 208 818 q 167 872 208 872 q 139 858 153 872 q 111 844 125 844 q 69 886 69 844 q 99 936 69 917 q 175 956 128 956 q 257 921 222 956 q 292 831 292 886 q 236 731 292 783 q 217 704 217 714 q 261 640 217 694 q 306 542 306 585 q 255 431 306 474 q 159 389 204 389 q 85 408 114 389 q 56 458 56 428 z "},"":{"ha":514,"x_min":111,"x_max":458,"o":"m 153 661 q 111 703 111 661 q 119 726 111 717 q 135 745 126 736 q 147 760 143 754 q 382 947 275 904 q 417 956 403 956 q 458 914 458 956 q 445 890 458 903 q 401 865 432 878 q 307 800 369 853 q 209 704 244 747 q 153 661 174 661 z "},"":{"ha":639,"x_min":56,"x_max":583,"o":"m 583 458 q 483 72 583 213 q 361 0 431 0 q 264 58 301 0 q 203 185 239 97 l 139 -392 q 97 -433 135 -433 q 65 -424 75 -433 q 56 -392 56 -415 l 143 403 q 187 444 147 444 q 226 403 226 444 q 277 226 226 368 q 361 83 328 83 q 456 197 411 83 q 500 460 500 310 q 542 500 500 500 q 583 458 583 500 z "},"":{"ha":569,"x_min":56,"x_max":514,"o":"m 211 508 l 211 717 q 139 619 139 688 q 162 544 139 572 q 211 508 185 515 m 394 483 q 404 717 394 483 q 294 729 358 726 l 294 492 q 394 483 347 486 m 489 744 l 478 469 q 506 97 478 261 q 514 42 514 53 q 472 0 514 0 q 431 42 438 0 q 394 400 394 222 q 296 408 360 401 q 311 256 297 383 l 333 92 q 333 83 333 86 q 292 42 333 42 q 265 51 274 42 q 248 92 256 61 q 226 254 240 122 q 211 419 211 386 q 100 488 144 436 q 56 620 56 539 q 121 758 56 701 q 269 814 186 814 q 450 794 353 814 q 489 744 489 786 z "},"":{"ha":389,"x_min":139,"x_max":250,"o":"m 139 417 q 189 469 139 469 q 231 450 213 469 q 250 404 250 431 q 233 363 250 378 q 194 347 217 347 q 156 370 172 347 q 139 417 139 393 z "},"":{"ha":333,"x_min":56,"x_max":278,"o":"m 97 -361 q 56 -319 56 -361 q 65 -292 56 -300 q 107 -274 79 -278 q 147 -267 135 -271 q 166 -260 160 -264 q 181 -250 172 -256 q 194 -217 194 -240 q 183 -174 194 -193 q 142 -125 171 -154 q 83 0 83 -67 q 125 42 83 42 q 167 0 167 42 q 208 -75 167 -33 q 278 -215 278 -144 q 233 -315 278 -286 q 114 -360 188 -344 q 97 -361 107 -361 z "},"":{"ha":306,"x_min":83,"x_max":194,"o":"m 167 542 q 125 500 156 500 q 83 542 83 500 q 97 608 83 553 q 111 694 111 664 l 111 914 q 153 956 111 956 q 194 914 194 956 l 194 694 q 167 542 194 653 z "},"":{"ha":431,"x_min":56,"x_max":375,"o":"m 250 725 q 258 726 250 725 q 278 740 265 728 q 292 781 292 753 q 267 841 292 810 q 210 872 242 872 q 158 846 178 872 q 139 787 139 819 q 160 738 139 754 q 208 722 181 722 q 250 725 235 722 m 56 778 q 97 905 56 854 q 206 956 139 956 q 324 901 272 956 q 375 782 375 846 q 335 678 375 718 q 218 639 294 639 q 99 683 142 639 q 56 778 56 726 m 97 569 l 111 568 q 142 564 114 568 q 200 554 172 558 q 319 542 286 542 q 375 500 375 542 q 333 458 375 458 q 176 472 253 458 q 97 486 100 486 q 56 531 56 492 q 97 569 56 569 z "},"":{"ha":1056,"x_min":56,"x_max":1000,"o":"m 646 89 q 864 228 725 196 q 906 239 894 235 q 917 253 917 243 q 904 276 917 264 q 542 417 863 318 q 500 458 500 429 q 542 500 500 500 q 572 493 551 500 l 710 450 q 942 353 883 394 q 1000 250 1000 313 q 969 181 1000 211 q 914 152 950 161 q 839 133 878 143 q 714 42 772 114 q 667 0 682 0 q 625 42 625 0 q 646 89 625 58 m 289 369 q 524 315 465 353 q 583 221 583 276 q 537 128 583 165 q 332 25 490 92 l 181 -36 q 153 -42 167 -42 q 111 0 111 -42 q 119 25 111 17 q 149 42 126 33 l 303 104 q 492 200 472 175 q 500 222 500 208 q 431 260 500 242 q 278 288 363 279 l 94 306 q 56 347 56 310 q 97 389 56 389 l 289 369 z "},"":{"ha":806,"x_min":83,"x_max":750,"o":"m 167 542 q 125 500 156 500 q 83 542 83 500 q 97 608 83 553 q 111 694 111 664 l 111 914 q 153 956 111 956 q 194 914 194 956 l 194 694 q 167 542 194 653 m 750 -69 q 708 -111 750 -111 q 682 -101 690 -111 q 663 -58 674 -92 q 653 28 653 -24 q 625 14 640 14 q 535 49 569 14 q 500 135 500 83 q 513 228 500 186 q 539 292 526 271 q 567 337 551 314 q 585 365 582 360 q 589 371 588 369 q 593 376 590 372 q 597 382 596 381 q 601 387 599 383 q 606 392 604 390 q 611 394 608 393 q 619 397 617 397 q 633 400 631 400 q 675 358 675 400 q 644 303 675 349 q 599 221 614 257 q 583 141 583 185 q 625 97 583 97 q 667 139 656 97 q 683 169 671 158 q 708 181 694 181 q 750 139 750 181 q 743 78 750 117 q 736 14 736 40 q 743 -38 736 -12 q 750 -69 750 -64 m 389 731 q 431 772 400 772 q 472 731 472 772 q 465 690 472 718 l 347 225 q 333 126 333 169 q 292 83 333 83 q 250 125 250 83 q 269 263 250 185 l 389 731 z "},"":{"ha":861,"x_min":83,"x_max":806,"o":"m 764 -111 l 653 -111 q 555 -77 596 -111 q 514 6 514 -43 q 545 101 514 54 q 608 186 576 147 q 639 247 639 225 q 597 289 639 289 q 569 275 583 289 q 542 261 556 261 q 500 303 500 261 q 529 353 500 333 q 606 372 558 372 q 688 339 653 372 q 722 256 722 306 q 691 160 722 206 q 628 75 660 114 q 597 15 597 36 q 614 -17 597 -6 q 653 -28 631 -28 l 764 -28 q 806 -69 806 -28 q 764 -111 806 -111 m 167 542 q 125 500 156 500 q 83 542 83 500 q 97 608 83 553 q 111 694 111 664 l 111 914 q 153 956 111 956 q 194 914 194 956 l 194 694 q 167 542 194 653 m 389 717 q 431 758 400 758 q 472 717 472 758 q 465 676 472 704 l 347 211 q 333 113 333 156 q 292 69 333 69 q 250 111 250 69 q 269 249 250 171 l 389 717 z "},"":{"ha":944,"x_min":56,"x_max":889,"o":"m 56 458 q 97 500 56 500 q 124 486 111 500 q 156 472 138 472 q 199 492 175 472 q 222 542 222 513 q 178 609 222 556 q 133 696 133 663 q 144 751 133 729 q 171 786 157 775 q 208 831 208 818 q 167 872 208 872 q 139 858 153 872 q 111 844 125 844 q 69 886 69 844 q 99 936 69 917 q 175 956 128 956 q 257 921 222 956 q 292 831 292 886 q 236 731 292 783 q 217 704 217 714 q 261 640 217 694 q 306 542 306 585 q 255 431 306 474 q 159 389 204 389 q 85 408 114 389 q 56 458 56 428 m 514 675 q 556 717 525 717 q 597 675 597 717 q 590 635 597 663 l 472 169 q 458 71 458 114 q 417 28 458 28 q 375 69 375 28 q 394 207 375 129 l 514 675 m 889 -69 q 847 -111 889 -111 q 821 -101 829 -111 q 802 -58 813 -92 q 792 28 792 -24 q 764 14 779 14 q 674 49 708 14 q 639 135 639 83 q 652 228 639 186 q 678 292 665 271 q 706 337 690 314 q 724 365 721 360 q 728 371 726 369 q 732 376 729 372 q 736 382 735 381 q 740 387 738 383 q 745 392 743 390 q 750 394 747 393 q 758 397 756 397 q 772 400 769 400 q 814 358 814 400 q 783 303 814 349 q 738 221 753 257 q 722 141 722 185 q 764 97 722 97 q 806 139 794 97 q 822 169 810 158 q 847 181 833 181 q 889 139 889 181 q 882 78 889 117 q 875 14 875 40 q 882 -38 875 -12 q 889 -69 889 -64 z "},"":{"ha":444,"x_min":56,"x_max":389,"o":"m 347 0 q 108 50 169 0 q 56 133 56 92 q 111 242 56 175 q 167 356 167 308 l 167 500 q 208 542 167 542 q 250 500 250 542 l 250 356 q 167 178 250 267 q 139 139 139 147 q 198 100 139 117 q 347 83 257 83 q 389 42 389 83 q 347 0 389 0 m 167 814 q 204 797 186 814 q 222 753 222 779 q 206 706 222 728 q 169 683 189 683 q 138 706 149 683 q 128 756 128 729 q 167 814 128 814 z "},"":{"ha":667,"x_min":56,"x_max":611,"o":"m 203 535 q 249 615 214 590 q 326 639 285 639 q 411 575 367 639 q 535 278 494 458 l 569 278 q 600 265 589 278 q 611 236 611 253 q 600 207 611 219 q 569 194 589 194 l 550 194 q 556 114 556 157 q 521 35 556 71 q 439 0 486 0 q 335 56 392 0 q 278 167 278 111 q 451 274 278 263 q 387 460 429 364 q 324 556 344 556 q 296 546 304 556 q 283 514 288 536 q 140 42 221 204 q 119 8 128 15 q 97 0 110 0 q 56 42 56 0 q 65 78 56 60 q 203 535 142 232 m 467 192 q 361 167 361 185 q 392 115 361 146 q 444 83 424 83 q 472 122 472 83 q 467 192 472 160 m 333 913 q 375 956 333 956 q 431 923 392 956 q 522 831 471 890 q 601 717 574 772 q 611 683 611 699 q 569 642 611 642 q 525 683 546 642 q 375 861 476 779 q 333 913 333 894 z "},"":{"ha":667,"x_min":56,"x_max":611,"o":"m 203 535 q 249 615 214 590 q 326 639 285 639 q 411 575 367 639 q 535 278 494 458 l 569 278 q 600 265 589 278 q 611 236 611 253 q 600 207 611 219 q 569 194 589 194 l 550 194 q 556 114 556 157 q 521 35 556 71 q 439 0 486 0 q 335 56 392 0 q 278 167 278 111 q 451 274 278 263 q 387 460 429 364 q 324 556 344 556 q 296 546 304 556 q 283 514 288 536 q 140 42 221 204 q 119 8 128 15 q 97 0 110 0 q 56 42 56 0 q 65 78 56 60 q 203 535 142 232 m 467 192 q 361 167 361 185 q 392 115 361 146 q 444 83 424 83 q 472 122 472 83 q 467 192 472 160 m 403 722 q 361 764 361 722 q 392 803 361 782 q 497 919 439 832 q 542 956 521 956 q 583 914 583 956 q 567 875 583 900 q 438 733 500 775 q 403 722 421 722 z "},"":{"ha":667,"x_min":56,"x_max":611,"o":"m 203 535 q 249 615 214 590 q 326 639 285 639 q 411 575 367 639 q 535 278 494 458 l 569 278 q 600 265 589 278 q 611 236 611 253 q 600 207 611 219 q 569 194 589 194 l 550 194 q 556 114 556 157 q 521 35 556 71 q 439 0 486 0 q 335 56 392 0 q 278 167 278 111 q 451 274 278 263 q 387 460 429 364 q 324 556 344 556 q 296 546 304 556 q 283 514 288 536 q 140 42 221 204 q 119 8 128 15 q 97 0 110 0 q 56 42 56 0 q 65 78 56 60 q 203 535 142 232 m 467 192 q 361 167 361 185 q 392 115 361 146 q 444 83 424 83 q 472 122 472 83 q 467 192 472 160 m 347 872 q 288 849 318 872 q 207 774 258 825 q 139 722 156 722 q 97 764 97 722 q 139 824 97 782 q 175 860 161 846 q 205 888 189 874 q 227 908 221 903 q 248 923 233 913 q 272 937 263 933 q 294 946 281 940 q 349 956 318 956 q 407 936 381 956 q 449 883 433 917 q 486 763 486 803 q 446 722 486 722 q 403 764 411 722 q 381 835 396 797 q 347 872 365 872 z "},"":{"ha":667,"x_min":56,"x_max":611,"o":"m 203 535 q 249 615 214 590 q 326 639 285 639 q 411 575 367 639 q 535 278 494 458 l 569 278 q 600 265 589 278 q 611 236 611 253 q 600 207 611 219 q 569 194 589 194 l 550 194 q 556 114 556 157 q 521 35 556 71 q 439 0 486 0 q 335 56 392 0 q 278 167 278 111 q 451 274 278 263 q 387 460 429 364 q 324 556 344 556 q 296 546 304 556 q 283 514 288 536 q 140 42 221 204 q 119 8 128 15 q 97 0 110 0 q 56 42 56 0 q 65 78 56 60 q 203 535 142 232 m 467 192 q 361 167 361 185 q 392 115 361 146 q 444 83 424 83 q 472 122 472 83 q 467 192 472 160 m 139 806 q 192 873 139 832 q 296 914 246 914 q 405 888 346 914 q 478 861 464 861 q 506 869 493 861 q 521 887 518 878 q 527 912 524 896 q 533 936 531 928 q 569 956 540 956 q 611 910 611 956 q 578 822 611 865 q 472 778 544 778 q 385 804 442 778 q 299 831 329 831 q 233 797 268 831 q 181 764 199 764 q 139 806 139 764 z "},"":{"ha":667,"x_min":56,"x_max":611,"o":"m 203 535 q 249 615 214 590 q 326 639 285 639 q 411 575 367 639 q 535 278 494 458 l 569 278 q 600 265 589 278 q 611 236 611 253 q 600 207 611 219 q 569 194 589 194 l 550 194 q 556 114 556 157 q 521 35 556 71 q 439 0 486 0 q 335 56 392 0 q 278 167 278 111 q 451 274 278 263 q 387 460 429 364 q 324 556 344 556 q 296 546 304 556 q 283 514 288 536 q 140 42 221 204 q 119 8 128 15 q 97 0 110 0 q 56 42 56 0 q 65 78 56 60 q 203 535 142 232 m 467 192 q 361 167 361 185 q 392 115 361 146 q 444 83 424 83 q 472 122 472 83 q 467 192 472 160 m 458 828 q 504 808 481 828 q 528 766 528 788 q 509 733 528 744 q 468 722 490 722 q 431 742 446 722 q 417 786 417 763 q 458 828 417 828 m 208 869 q 254 849 231 869 q 278 808 278 829 q 259 775 278 786 q 218 764 240 764 q 181 784 196 764 q 167 828 167 804 q 208 869 167 869 z "},"":{"ha":667,"x_min":56,"x_max":611,"o":"m 250 822 q 267 789 250 803 q 304 775 283 775 q 336 792 325 775 q 347 829 347 808 q 331 861 347 850 q 292 872 314 872 q 250 822 250 872 m 482 321 l 542 328 q 572 316 561 328 q 583 286 583 304 q 542 244 583 249 q 504 239 519 242 q 603 -12 550 83 q 611 -42 611 -28 q 569 -83 611 -83 q 528 -50 547 -83 q 419 232 474 47 q 375 231 400 231 q 175 251 247 231 q 139 42 147 113 q 97 0 135 0 q 56 40 56 0 q 58 64 56 47 q 122 397 75 208 q 193 635 169 585 q 240 707 217 685 q 187 754 207 724 q 167 832 167 785 q 201 917 167 879 q 283 956 236 956 q 360 940 329 956 q 411 896 392 925 q 431 829 431 867 q 414 759 431 792 q 368 708 397 726 q 413 606 396 678 q 449 456 431 533 q 482 321 467 379 m 193 335 q 375 314 258 314 l 397 314 q 359 473 381 376 q 326 611 338 569 q 306 653 314 653 q 193 335 268 653 z "},"":{"ha":944,"x_min":56,"x_max":889,"o":"m 56 42 l 58 58 l 221 694 q 344 814 250 814 q 394 799 369 814 q 443 723 426 775 q 483 564 460 671 q 578 749 517 683 q 722 814 639 814 q 807 792 767 814 q 847 744 847 769 q 806 703 847 703 q 769 717 793 703 q 722 731 744 731 q 594 626 644 731 q 536 344 543 522 l 778 344 q 819 303 819 344 q 778 261 819 261 l 538 261 q 592 138 547 193 q 692 83 638 83 q 755 92 721 83 q 808 113 789 101 q 847 125 828 125 q 889 86 889 125 q 867 56 889 69 q 857 48 864 53 q 840 36 850 43 q 783 15 829 29 q 692 0 738 0 q 540 72 606 0 q 450 0 519 0 q 360 58 401 0 q 301 167 318 115 q 283 233 283 219 q 330 318 283 292 q 439 344 376 344 q 345 731 376 731 q 300 674 314 731 l 139 42 q 124 10 133 19 q 97 0 115 0 q 56 42 56 0 m 450 261 q 367 235 367 261 q 399 146 367 208 q 450 83 432 83 q 464 138 464 83 q 450 261 464 192 z "},"":{"ha":667,"x_min":56,"x_max":611,"o":"m 319 0 q 178 49 239 0 q 86 174 117 99 q 56 336 56 249 q 78 508 56 424 q 142 661 100 592 q 251 772 183 731 q 403 814 318 814 q 475 799 447 814 q 528 744 528 771 q 486 703 528 703 q 449 717 474 703 q 403 731 425 731 q 285 694 338 731 q 201 600 232 658 q 139 333 139 481 q 221 122 139 197 q 319 83 264 83 q 536 140 422 83 q 569 153 561 153 q 611 111 611 153 q 603 85 611 94 q 569 64 594 76 q 403 7 485 22 q 403 -1 403 3 q 444 -76 403 -35 q 514 -224 514 -146 q 460 -322 514 -292 q 350 -361 415 -347 q 333 -362 343 -362 q 292 -321 292 -362 q 301 -292 292 -301 q 322 -281 311 -283 q 347 -276 333 -279 q 365 -273 360 -274 q 383 -269 371 -272 q 402 -261 396 -265 q 415 -251 408 -257 q 431 -218 431 -242 q 419 -175 431 -194 q 381 -129 407 -156 q 319 -1 319 -68 l 319 0 z "},"":{"ha":667,"x_min":56,"x_max":611,"o":"m 111 42 q 65 513 111 386 q 56 569 56 539 q 97 611 56 611 l 126 611 q 167 639 133 639 q 207 613 201 639 q 556 638 439 617 q 569 639 567 639 q 611 597 611 639 q 569 556 611 564 q 207 529 446 533 l 201 346 q 519 326 263 326 q 561 285 561 326 q 519 243 561 243 q 199 260 279 243 q 194 42 194 133 q 153 0 194 0 q 111 42 111 0 m 569 13 q 398 0 467 0 q 250 26 329 0 q 208 69 208 40 q 250 110 208 110 q 299 98 263 110 q 406 85 335 86 q 520 90 476 83 q 569 96 564 96 q 611 54 611 96 q 599 26 611 38 q 569 13 586 15 m 403 722 q 368 733 385 722 q 239 875 306 775 q 222 914 222 900 q 264 956 222 956 q 308 919 285 956 q 414 803 367 832 q 444 764 444 782 q 403 722 444 722 z "},"":{"ha":667,"x_min":56,"x_max":611,"o":"m 111 42 q 65 513 111 386 q 56 569 56 539 q 97 611 56 611 l 126 611 q 167 639 133 639 q 207 613 201 639 q 556 638 439 617 q 569 639 567 639 q 611 597 611 639 q 569 556 611 564 q 207 529 446 533 l 201 346 q 519 326 263 326 q 561 285 561 326 q 519 243 561 243 q 199 260 279 243 q 194 42 194 133 q 153 0 194 0 q 111 42 111 0 m 569 13 q 398 0 467 0 q 250 26 329 0 q 208 69 208 40 q 250 110 208 110 q 299 98 263 110 q 406 85 335 86 q 520 90 476 83 q 569 96 564 96 q 611 54 611 96 q 599 26 611 38 q 569 13 586 15 m 367 722 q 325 764 325 722 q 356 803 325 782 q 461 919 403 832 q 506 956 485 956 q 547 914 547 956 q 531 875 547 900 q 401 733 464 775 q 367 722 385 722 z "},"":{"ha":667,"x_min":56,"x_max":611,"o":"m 111 42 q 65 513 111 386 q 56 569 56 539 q 97 611 56 611 l 126 611 q 167 639 133 639 q 207 613 201 639 q 556 638 439 617 q 569 639 567 639 q 611 597 611 639 q 569 556 611 564 q 207 529 446 533 l 201 346 q 519 326 263 326 q 561 285 561 326 q 519 243 561 243 q 199 260 279 243 q 194 42 194 133 q 153 0 194 0 q 111 42 111 0 m 569 13 q 398 0 467 0 q 250 26 329 0 q 208 69 208 40 q 250 110 208 110 q 299 98 263 110 q 406 85 335 86 q 520 90 476 83 q 569 96 564 96 q 611 54 611 96 q 599 26 611 38 q 569 13 586 15 m 417 872 q 358 849 388 872 q 276 774 328 825 q 208 722 225 722 q 167 764 167 722 q 208 824 167 782 q 244 860 231 846 q 274 888 258 874 q 297 908 290 903 q 317 923 303 913 q 341 937 332 933 q 364 946 350 940 q 419 956 388 956 q 476 936 450 956 q 518 883 503 917 q 556 763 556 803 q 515 722 556 722 q 472 764 481 722 q 450 835 465 797 q 417 872 435 872 z "},"":{"ha":667,"x_min":56,"x_max":611,"o":"m 111 42 q 65 513 111 386 q 56 569 56 539 q 97 611 56 611 l 126 611 q 167 639 133 639 q 207 613 201 639 q 556 638 439 617 q 569 639 567 639 q 611 597 611 639 q 569 556 611 564 q 207 529 446 533 l 201 346 q 519 326 263 326 q 561 285 561 326 q 519 243 561 243 q 199 260 279 243 q 194 42 194 133 q 153 0 194 0 q 111 42 111 0 m 569 13 q 398 0 467 0 q 250 26 329 0 q 208 69 208 40 q 250 110 208 110 q 299 98 263 110 q 406 85 335 86 q 520 90 476 83 q 569 96 564 96 q 611 54 611 96 q 599 26 611 38 q 569 13 586 15 m 514 828 q 560 808 536 828 q 583 766 583 788 q 565 733 583 744 q 524 722 546 722 q 487 742 501 722 q 472 786 472 763 q 514 828 472 828 m 264 869 q 310 849 286 869 q 333 808 333 829 q 315 775 333 786 q 274 764 296 764 q 237 784 251 764 q 222 828 222 804 q 264 869 222 869 z "},"":{"ha":500,"x_min":167,"x_max":444,"o":"m 444 685 q 403 642 444 642 q 347 675 386 642 q 256 767 308 708 q 176 881 204 825 q 167 914 167 899 q 208 956 167 956 q 253 914 232 956 q 403 736 301 818 q 444 685 444 703 m 319 42 q 278 0 319 0 q 236 42 247 0 q 207 182 210 150 q 194 542 194 382 q 236 583 194 583 q 278 542 278 583 q 290 193 278 393 q 306 103 292 158 q 319 42 319 47 z "},"":{"ha":500,"x_min":167,"x_max":444,"o":"m 444 914 q 438 886 444 907 q 297 639 382 724 q 264 625 283 625 q 222 667 222 625 q 238 697 222 682 q 358 914 307 767 q 403 956 371 956 q 444 914 444 956 m 292 42 q 250 0 292 0 q 208 42 219 0 q 179 182 182 150 q 167 542 167 382 q 208 583 167 583 q 250 542 250 583 q 263 193 250 393 q 278 103 264 158 q 292 42 292 47 z "},"":{"ha":500,"x_min":56,"x_max":444,"o":"m 292 42 q 250 0 292 0 q 208 42 219 0 q 179 182 182 150 q 167 542 167 382 q 208 583 167 583 q 250 542 250 583 q 263 193 250 393 q 278 102 265 157 q 292 42 292 47 m 306 872 q 247 849 276 872 q 166 774 218 825 q 97 722 114 722 q 56 764 56 722 q 97 824 56 782 q 133 860 119 846 q 163 888 147 874 q 185 908 179 903 q 206 923 192 913 q 230 937 221 933 q 253 946 239 940 q 308 956 276 956 q 365 936 339 956 q 407 883 392 917 q 444 763 444 803 q 404 722 444 722 q 361 764 369 722 q 339 835 354 797 q 306 872 324 872 z "},"":{"ha":500,"x_min":83,"x_max":444,"o":"m 292 42 q 250 0 292 0 q 208 42 219 0 q 179 182 182 150 q 167 542 167 382 q 208 583 167 583 q 250 542 250 583 q 263 193 250 393 q 278 103 264 158 q 292 42 292 47 m 375 911 q 421 892 397 911 q 444 850 444 872 q 426 817 444 828 q 385 806 407 806 q 348 826 363 806 q 333 869 333 846 q 375 911 333 911 m 125 869 q 171 850 147 869 q 194 808 194 831 q 176 775 194 786 q 135 764 157 764 q 98 784 113 764 q 83 828 83 804 q 125 869 83 869 z "},"":{"ha":778,"x_min":56,"x_max":722,"o":"m 111 390 l 97 389 q 56 428 56 389 q 97 472 56 467 l 167 482 q 194 678 171 593 q 236 747 206 713 q 431 814 296 814 q 631 733 539 814 q 722 558 722 651 q 619 301 722 410 q 439 146 544 224 q 311 49 333 68 q 281 19 289 28 l 268 7 q 228 -10 251 -10 q 186 33 186 -10 q 363 194 186 61 q 502 303 451 261 q 596 414 553 346 q 639 549 639 482 q 569 674 639 617 q 438 731 500 731 q 346 719 376 731 q 272 644 286 699 q 251 492 253 568 q 375 500 340 500 q 417 458 417 500 q 406 428 417 440 q 367 417 394 417 q 250 408 339 417 q 267 215 253 265 q 269 194 269 199 q 228 153 269 153 q 199 161 207 153 q 167 399 172 189 l 111 390 z "},"":{"ha":667,"x_min":56,"x_max":611,"o":"m 253 456 q 208 514 246 514 q 176 458 188 514 q 139 97 139 271 q 146 39 139 67 q 153 0 153 11 q 111 -42 153 -42 q 68 7 81 -42 q 56 97 56 56 q 94 472 56 278 q 208 597 118 597 q 290 563 253 597 q 333 472 328 528 q 344 347 333 436 q 362 223 356 258 q 376 154 368 188 q 417 83 394 83 q 473 234 446 83 q 500 500 500 385 q 523 593 500 547 q 569 639 546 639 q 611 597 611 639 q 597 558 611 586 q 583 500 583 531 q 565 281 583 397 q 519 83 547 164 q 478 22 506 44 q 417 0 450 0 q 356 22 385 0 q 315 81 328 44 q 293 158 303 117 q 277 235 283 199 q 266 311 271 271 q 259 377 261 351 q 255 428 257 403 q 253 456 253 453 m 308 847 q 246 826 267 847 q 208 806 225 806 q 167 847 167 806 q 183 882 167 865 q 308 931 232 931 q 396 903 350 931 q 458 875 442 875 q 527 915 514 875 q 569 956 540 956 q 611 914 611 956 q 608 892 611 900 q 553 819 593 847 q 465 792 514 792 q 371 819 417 792 q 308 847 325 847 z "},"":{"ha":667,"x_min":56,"x_max":611,"o":"m 339 531 q 292 535 318 535 q 185 451 231 535 q 139 278 139 367 q 183 137 139 190 q 306 83 228 83 q 466 179 404 83 q 528 389 528 275 q 498 502 528 449 q 426 556 468 556 q 378 543 404 556 q 339 531 351 531 m 336 615 q 356 624 342 617 q 426 639 385 639 q 559 557 507 639 q 611 389 611 475 q 525 119 611 239 q 306 0 439 0 q 125 78 194 0 q 56 292 56 157 q 85 438 56 363 q 170 565 114 513 q 292 618 226 618 q 336 615 314 618 m 514 722 q 479 733 496 722 q 350 875 417 775 q 333 914 333 900 q 375 956 333 956 q 419 919 396 956 q 525 803 478 832 q 556 764 556 782 q 514 722 556 722 z "},"":{"ha":667,"x_min":56,"x_max":611,"o":"m 339 531 q 292 535 318 535 q 185 451 231 535 q 139 278 139 367 q 183 137 139 190 q 306 83 228 83 q 466 179 404 83 q 528 389 528 275 q 498 502 528 449 q 426 556 468 556 q 378 543 404 556 q 339 531 351 531 m 336 615 q 356 624 342 617 q 426 639 385 639 q 559 557 507 639 q 611 389 611 475 q 525 119 611 239 q 306 0 439 0 q 125 78 194 0 q 56 292 56 157 q 85 438 56 363 q 170 565 114 513 q 292 618 226 618 q 336 615 314 618 m 375 722 q 333 764 333 722 q 364 803 333 782 q 469 919 411 832 q 514 956 493 956 q 556 914 556 956 q 539 875 556 900 q 410 733 472 775 q 375 722 393 722 z "},"":{"ha":667,"x_min":56,"x_max":611,"o":"m 339 531 q 292 535 318 535 q 185 451 231 535 q 139 278 139 367 q 183 137 139 190 q 306 83 228 83 q 466 179 404 83 q 528 389 528 275 q 498 502 528 449 q 426 556 468 556 q 378 543 404 556 q 339 531 351 531 m 336 615 q 356 624 342 617 q 426 639 385 639 q 559 557 507 639 q 611 389 611 475 q 525 119 611 239 q 306 0 439 0 q 125 78 194 0 q 56 292 56 157 q 85 438 56 363 q 170 565 114 513 q 292 618 226 618 q 336 615 314 618 m 417 872 q 358 849 388 872 q 276 774 328 825 q 208 722 225 722 q 167 764 167 722 q 208 824 167 782 q 244 860 231 846 q 274 888 258 874 q 297 908 290 903 q 317 923 303 913 q 341 937 332 933 q 364 946 350 940 q 419 956 388 956 q 476 936 450 956 q 518 883 503 917 q 556 763 556 803 q 515 722 556 722 q 472 764 481 722 q 450 835 465 797 q 417 872 435 872 z "},"":{"ha":667,"x_min":56,"x_max":611,"o":"m 339 531 q 292 535 318 535 q 185 451 231 535 q 139 278 139 367 q 183 137 139 190 q 306 83 228 83 q 466 179 404 83 q 528 389 528 275 q 498 502 528 449 q 426 556 468 556 q 378 543 404 556 q 339 531 351 531 m 336 615 q 356 624 342 617 q 426 639 385 639 q 559 557 507 639 q 611 389 611 475 q 525 119 611 239 q 306 0 439 0 q 125 78 194 0 q 56 292 56 157 q 85 438 56 363 q 170 565 114 513 q 292 618 226 618 q 336 615 314 618 m 294 847 q 232 826 253 847 q 194 806 211 806 q 153 847 153 806 q 169 882 153 865 q 294 931 218 931 q 382 903 336 931 q 444 875 428 875 q 513 915 500 875 q 556 956 526 956 q 597 914 597 956 q 594 892 597 900 q 540 819 579 847 q 451 792 500 792 q 357 819 403 792 q 294 847 311 847 z "},"":{"ha":667,"x_min":56,"x_max":611,"o":"m 339 531 q 292 535 318 535 q 185 451 231 535 q 139 278 139 367 q 183 137 139 190 q 306 83 228 83 q 466 179 404 83 q 528 389 528 275 q 498 502 528 449 q 426 556 468 556 q 378 543 404 556 q 339 531 351 531 m 336 615 q 356 624 342 617 q 426 639 385 639 q 559 557 507 639 q 611 389 611 475 q 525 119 611 239 q 306 0 439 0 q 125 78 194 0 q 56 292 56 157 q 85 438 56 363 q 170 565 114 513 q 292 618 226 618 q 336 615 314 618 m 458 828 q 504 808 481 828 q 528 766 528 788 q 509 733 528 744 q 468 722 490 722 q 431 742 446 722 q 417 786 417 763 q 458 828 417 828 m 208 869 q 254 849 231 869 q 278 808 278 829 q 259 775 278 786 q 218 764 240 764 q 181 784 196 764 q 167 828 167 804 q 208 869 167 869 z "},"":{"ha":444,"x_min":56,"x_max":389,"o":"m 343 314 l 268 239 q 337 193 299 213 q 375 153 375 174 q 333 111 375 111 q 279 128 314 111 q 210 181 244 146 l 154 125 q 126 100 147 117 q 97 83 104 83 q 56 125 56 83 q 97 186 56 144 l 153 242 q 111 317 139 261 q 83 389 83 372 q 125 431 83 431 q 178 363 150 431 q 211 300 194 324 l 286 375 q 347 417 328 417 q 389 375 389 417 q 343 314 389 360 z "},"":{"ha":806,"x_min":56,"x_max":750,"o":"m 199 -131 q 235 19 199 -101 q 56 375 56 83 q 128 625 56 478 q 217 740 161 692 q 336 788 272 788 q 389 785 361 788 q 482 814 421 810 q 503 913 499 889 q 517 947 508 938 q 547 956 526 956 q 588 914 588 956 q 576 850 588 906 l 568 814 q 669 747 628 800 q 750 506 750 646 q 714 264 750 365 q 619 108 678 164 q 354 0 504 0 l 317 0 q 299 -65 313 -14 q 282 -131 286 -117 q 240 -172 269 -172 q 199 -131 199 -172 m 419 696 l 393 700 q 336 704 368 704 q 236 642 283 704 q 164 503 189 579 q 139 375 139 428 q 263 99 139 146 q 456 713 392 478 q 419 696 436 696 m 547 731 q 346 83 482 478 q 499 117 435 83 q 600 213 564 151 q 667 500 667 329 q 635 648 667 576 q 547 731 603 719 z "},"":{"ha":667,"x_min":56,"x_max":611,"o":"m 139 500 q 168 186 139 289 q 208 112 181 140 q 267 83 235 83 q 381 138 329 83 q 469 283 433 192 q 528 597 528 432 q 569 639 528 639 q 611 597 611 639 q 544 251 611 418 q 428 69 499 138 q 267 0 358 0 q 157 46 206 0 q 88 167 108 92 q 56 500 56 278 q 97 542 56 542 q 139 500 139 542 m 167 913 q 208 956 167 956 q 264 922 225 956 q 355 831 303 889 q 435 717 407 772 q 444 683 444 699 q 403 642 444 642 q 358 683 379 642 q 208 861 310 779 q 167 913 167 894 z "},"":{"ha":667,"x_min":56,"x_max":611,"o":"m 139 500 q 168 186 139 289 q 208 112 181 140 q 267 83 235 83 q 381 138 329 83 q 469 283 433 192 q 528 597 528 432 q 569 639 528 639 q 611 597 611 639 q 544 251 611 418 q 428 69 499 138 q 267 0 358 0 q 157 46 206 0 q 88 167 108 92 q 56 500 56 278 q 97 542 56 542 q 139 500 139 542 m 208 661 q 167 703 167 661 q 174 726 167 717 q 190 745 182 736 q 203 760 199 754 q 438 947 331 904 q 472 956 458 956 q 514 914 514 956 q 501 890 514 903 q 456 865 488 878 q 363 800 425 853 q 264 703 300 747 q 208 661 228 661 z "},"":{"ha":667,"x_min":56,"x_max":611,"o":"m 139 500 q 168 186 139 289 q 208 112 181 140 q 267 83 235 83 q 381 138 329 83 q 469 283 433 192 q 528 597 528 432 q 569 639 528 639 q 611 597 611 639 q 544 251 611 418 q 428 69 499 138 q 267 0 358 0 q 157 46 206 0 q 88 167 108 92 q 56 500 56 278 q 97 542 56 542 q 139 500 139 542 m 361 872 q 302 849 332 872 q 221 774 272 825 q 153 722 169 722 q 111 764 111 722 q 153 824 111 782 q 189 860 175 846 q 219 888 203 874 q 241 908 235 903 q 262 923 247 913 q 285 937 276 933 q 308 946 294 940 q 363 956 332 956 q 421 936 394 956 q 463 883 447 917 q 500 763 500 803 q 460 722 500 722 q 417 764 425 722 q 394 835 410 797 q 361 872 379 872 z "},"":{"ha":667,"x_min":56,"x_max":611,"o":"m 139 500 q 168 186 139 289 q 208 112 181 140 q 267 83 235 83 q 381 138 329 83 q 469 283 433 192 q 528 597 528 432 q 569 639 528 639 q 611 597 611 639 q 544 251 611 418 q 428 69 499 138 q 267 0 358 0 q 157 46 206 0 q 88 167 108 92 q 56 500 56 278 q 97 542 56 542 q 139 500 139 542 m 403 828 q 449 808 425 828 q 472 767 472 789 q 453 733 472 744 q 413 722 435 722 q 376 742 390 722 q 361 786 361 763 q 403 828 361 828 m 153 869 q 199 850 175 869 q 222 808 222 831 q 203 775 222 786 q 163 764 185 764 q 126 784 140 764 q 111 828 111 804 q 153 869 111 869 z "},"":{"ha":667,"x_min":56,"x_max":625,"o":"m 319 661 q 278 703 278 661 q 285 726 278 717 q 301 745 293 736 q 314 760 310 754 q 549 947 442 904 q 583 956 569 956 q 625 914 625 956 q 612 890 625 903 q 567 865 599 878 q 474 800 536 853 q 376 704 411 747 q 319 661 340 661 m 399 0 q 357 42 357 0 q 367 75 357 49 l 486 381 q 390 350 435 350 q 315 357 344 350 q 264 372 286 364 q 217 399 242 381 q 179 428 193 417 q 144 463 165 439 q 117 496 124 488 q 93 529 111 504 q 72 557 75 554 q 63 575 69 560 q 56 597 56 590 q 96 639 56 639 q 139 606 111 639 q 176 558 144 600 q 228 497 208 517 q 290 455 249 476 q 372 433 331 433 q 460 463 414 433 q 526 533 507 492 q 569 575 544 575 q 611 533 611 575 q 565 350 611 460 l 442 38 q 399 0 426 0 z "},"":{"ha":736,"x_min":56,"x_max":681,"o":"m 177 688 q 164 677 177 688 q 144 647 150 665 q 139 602 139 628 q 154 525 139 576 q 250 458 174 458 q 401 474 303 458 q 597 571 597 504 q 547 684 597 638 q 415 731 497 731 q 269 721 333 731 q 177 688 204 711 m 139 765 q 417 814 214 814 q 604 744 528 814 q 681 569 681 675 q 638 478 681 517 q 539 419 594 439 q 411 390 481 401 q 269 375 315 375 q 185 386 222 375 q 250 42 250 107 q 208 0 250 0 q 167 42 167 0 q 111 313 167 58 q 56 608 56 567 l 56 914 q 97 956 56 956 q 139 914 139 956 l 139 765 z "},"":{"ha":667,"x_min":56,"x_max":611,"o":"m 236 -394 q 236 -401 236 -394 q 225 -421 236 -408 q 198 -433 214 -433 q 174 -428 182 -433 q 153 -392 163 -419 q 56 181 56 -100 q 108 596 56 413 q 194 755 136 696 q 326 814 251 814 q 436 752 400 814 q 472 625 472 690 q 421 438 472 508 q 560 379 508 431 q 611 236 611 328 q 576 138 611 178 q 486 97 542 97 q 319 125 375 97 q 287 144 296 136 q 278 167 278 153 q 319 208 278 208 q 372 194 335 208 q 486 181 410 181 q 517 197 507 181 q 528 236 528 213 q 389 361 528 361 q 340 347 368 361 q 292 333 313 333 q 250 375 250 333 q 253 387 250 383 q 257 392 256 390 q 261 397 258 394 q 267 401 264 400 q 283 412 276 407 q 292 417 290 417 q 389 625 389 476 q 372 697 389 663 q 333 731 354 731 q 242 682 281 731 q 181 551 203 633 q 139 181 139 390 q 232 -367 139 -87 q 236 -394 236 -379 z "},"":{"ha":667,"x_min":56,"x_max":611,"o":"m 611 685 q 569 642 611 642 q 513 674 553 642 q 422 766 474 707 q 343 881 371 825 q 333 914 333 899 q 375 956 333 956 q 419 914 399 956 q 569 736 468 818 q 611 685 611 703 m 569 42 q 528 0 569 0 q 506 9 514 0 q 486 42 497 18 l 438 139 q 349 51 419 103 q 206 0 278 0 q 94 39 133 0 q 56 139 56 78 q 161 394 56 288 q 375 500 267 500 q 474 471 435 500 q 514 417 514 442 q 472 375 514 375 q 450 386 461 375 q 375 417 419 417 q 221 335 303 417 q 139 139 139 253 q 154 99 139 114 q 194 83 169 83 q 303 121 250 83 q 371 188 357 158 q 438 264 408 264 q 471 247 456 264 q 528 147 486 231 q 569 42 569 63 z "},"":{"ha":667,"x_min":56,"x_max":711,"o":"m 264 660 q 222 701 222 660 q 230 725 222 715 q 246 744 238 735 q 258 758 254 753 q 493 946 386 903 q 528 954 514 954 q 569 913 569 954 q 525 870 569 889 q 418 799 481 851 q 320 703 356 746 q 264 660 285 660 m 625 114 l 669 125 q 711 83 711 125 q 669 39 711 53 q 620 31 644 31 q 574 42 596 31 q 539 75 551 53 q 508 153 518 111 l 503 176 q 388 82 479 136 q 194 28 297 28 q 97 69 139 28 q 56 167 56 111 q 167 401 56 301 q 392 500 278 500 q 499 477 454 500 q 544 431 544 454 q 503 389 544 389 q 463 403 494 389 q 392 417 431 417 q 228 344 317 417 q 139 167 139 271 q 156 128 139 146 q 194 111 174 111 q 347 155 276 111 q 438 227 418 199 q 469 279 457 256 q 488 310 482 303 q 515 318 494 318 q 547 303 536 318 q 568 255 558 288 q 588 182 578 222 q 605 128 597 142 q 625 114 613 114 z "},"":{"ha":667,"x_min":56,"x_max":711,"o":"m 622 111 l 669 125 q 711 83 711 125 q 674 40 711 53 q 622 28 636 28 q 503 142 533 28 q 239 0 411 0 q 108 44 161 0 q 56 189 56 89 q 135 414 56 328 q 324 500 214 500 q 501 439 433 500 q 544 381 544 400 q 503 339 544 339 q 444 378 488 339 q 326 417 401 417 q 195 357 251 417 q 139 189 139 297 q 165 106 139 128 q 239 83 192 83 q 324 96 286 83 q 386 133 361 108 q 475 253 433 175 q 492 279 488 275 q 517 283 497 283 q 564 243 556 283 q 594 131 586 150 q 622 111 603 111 m 416 872 q 402 872 416 872 q 351 842 388 872 q 261 758 314 811 l 203 700 q 194 692 197 694 q 188 686 192 690 q 171 672 175 674 q 164 669 167 671 q 153 667 158 667 q 111 708 111 667 q 153 768 111 729 q 191 806 165 781 q 226 841 217 831 q 256 870 236 851 q 285 897 276 889 q 311 917 294 904 q 338 934 328 929 q 363 944 349 939 q 411 956 386 956 q 453 948 436 956 q 483 929 471 940 q 505 900 494 918 q 522 867 515 882 q 534 831 528 853 q 543 797 540 808 q 553 747 553 758 q 556 731 556 738 q 515 689 556 689 q 472 731 481 689 q 416 872 444 872 z "},"":{"ha":667,"x_min":56,"x_max":711,"o":"m 622 111 l 669 125 q 711 83 711 125 q 674 40 711 53 q 622 28 636 28 q 503 142 533 28 q 239 0 411 0 q 108 44 161 0 q 56 189 56 89 q 135 414 56 328 q 324 500 214 500 q 501 439 433 500 q 544 381 544 400 q 503 339 544 339 q 444 378 488 339 q 326 417 401 417 q 195 357 251 417 q 139 189 139 297 q 165 106 139 128 q 239 83 192 83 q 324 96 286 83 q 386 133 361 108 q 475 253 433 175 q 492 279 488 275 q 517 283 497 283 q 564 243 556 283 q 594 131 586 150 q 622 111 603 111 m 97 806 q 151 873 97 832 q 254 914 204 914 q 363 888 304 914 q 437 861 422 861 q 464 869 451 861 q 479 887 476 878 q 485 912 482 896 q 492 936 489 928 q 528 956 499 956 q 569 910 569 956 q 536 822 569 865 q 431 778 503 778 q 344 804 400 778 q 257 831 288 831 q 192 797 226 831 q 139 764 157 764 q 97 806 97 764 z "},"":{"ha":667,"x_min":56,"x_max":711,"o":"m 458 828 q 504 808 481 828 q 528 766 528 788 q 509 733 528 744 q 468 722 490 722 q 431 742 446 722 q 417 786 417 763 q 458 828 417 828 m 208 869 q 254 849 231 869 q 278 808 278 829 q 259 775 278 786 q 218 764 240 764 q 181 784 196 764 q 167 828 167 804 q 208 869 167 869 m 625 114 l 669 125 q 711 83 711 125 q 669 39 711 53 q 620 31 644 31 q 574 42 596 31 q 539 75 551 53 q 508 153 518 111 l 503 176 q 388 82 479 136 q 194 28 297 28 q 97 69 139 28 q 56 167 56 111 q 167 401 56 301 q 392 500 278 500 q 499 477 454 500 q 544 431 544 454 q 503 389 544 389 q 463 403 494 389 q 392 417 431 417 q 228 344 317 417 q 139 167 139 271 q 156 128 139 146 q 194 111 174 111 q 347 155 276 111 q 438 227 418 199 q 469 279 457 256 q 488 310 482 303 q 515 318 494 318 q 547 303 536 318 q 568 255 558 288 q 588 182 578 222 q 605 128 597 142 q 625 114 613 114 z "},"":{"ha":667,"x_min":56,"x_max":711,"o":"m 361 725 q 369 726 361 725 q 390 740 376 728 q 403 781 403 753 q 378 841 403 810 q 321 872 353 872 q 269 846 289 872 q 250 787 250 819 q 271 738 250 754 q 319 722 292 722 q 361 725 346 722 m 167 778 q 208 905 167 854 q 317 956 250 956 q 435 901 383 956 q 486 782 486 846 q 446 678 486 718 q 329 639 406 639 q 210 683 253 639 q 167 778 167 726 m 625 114 l 669 125 q 711 83 711 125 q 669 39 711 53 q 620 31 644 31 q 574 42 596 31 q 539 75 551 53 q 508 153 518 111 l 503 176 q 388 82 479 136 q 194 28 297 28 q 97 69 139 28 q 56 167 56 111 q 167 401 56 301 q 392 500 278 500 q 499 477 454 500 q 544 431 544 454 q 503 389 544 389 q 463 403 494 389 q 392 417 431 417 q 228 344 317 417 q 139 167 139 271 q 156 128 139 146 q 194 111 174 111 q 347 155 276 111 q 438 227 418 199 q 469 279 457 256 q 488 310 482 303 q 515 318 494 318 q 547 303 536 318 q 568 255 558 288 q 588 182 578 222 q 605 128 597 142 q 625 114 613 114 z "},"":{"ha":1083,"x_min":56,"x_max":1128,"o":"m 611 190 q 660 376 611 308 q 771 444 708 444 q 875 403 833 444 q 917 306 917 361 q 724 133 917 196 q 889 83 772 83 q 1053 115 957 83 q 1086 125 1082 125 q 1128 83 1128 125 q 1086 39 1128 53 q 889 0 969 0 q 739 26 808 0 q 636 110 669 53 q 556 97 572 97 q 491 125 515 97 q 461 176 467 153 q 318 39 417 100 q 197 0 256 0 q 97 42 139 0 q 56 139 56 83 q 120 315 56 229 q 272 451 185 401 q 426 500 360 500 q 531 477 492 500 q 569 431 569 454 q 528 389 569 389 q 494 403 519 389 q 428 417 469 417 q 319 381 386 417 q 195 277 251 344 q 139 139 139 210 q 156 101 139 118 q 194 83 172 83 q 399 232 296 83 q 422 267 410 247 q 439 297 433 289 q 476 320 454 321 q 509 302 497 319 q 532 233 521 285 q 556 181 543 181 q 611 190 563 181 m 696 211 q 833 306 833 256 q 816 344 833 326 q 774 361 799 361 q 722 321 749 361 q 696 211 696 281 z "},"":{"ha":583,"x_min":56,"x_max":500,"o":"m 250 0 q 108 52 160 0 q 56 194 56 104 q 136 409 56 318 q 319 500 217 500 q 424 476 376 500 q 472 431 472 453 q 431 389 472 389 q 385 403 413 389 q 319 417 357 417 q 192 347 244 417 q 139 194 139 276 q 250 83 139 83 q 425 115 329 83 q 458 125 454 125 q 500 83 500 125 q 492 57 500 67 q 441 33 483 47 q 333 8 399 19 q 375 -61 338 -24 q 444 -208 444 -131 q 390 -307 444 -276 q 281 -346 346 -332 q 264 -347 274 -347 q 222 -306 222 -347 q 232 -277 222 -286 q 253 -266 242 -268 q 277 -261 264 -264 q 296 -258 290 -258 q 314 -253 301 -257 q 333 -246 326 -250 q 346 -236 339 -242 q 361 -203 361 -226 q 349 -160 361 -179 q 308 -111 338 -140 q 251 0 258 -61 q 250 0 251 0 z "},"":{"ha":556,"x_min":-44,"x_max":600,"o":"m 122 92 q -3 42 22 42 q -44 83 -44 42 q 7 131 -44 110 q 88 168 58 153 q 83 211 83 189 q 129 396 83 319 q 244 472 175 472 q 351 432 313 472 q 389 335 389 392 q 337 233 389 279 q 196 132 285 186 q 361 83 244 83 q 525 115 429 83 q 558 125 554 125 q 600 83 600 125 q 558 39 600 53 q 366 0 442 0 q 222 24 290 0 q 122 92 153 47 m 167 213 q 294 306 275 275 q 306 338 306 319 q 290 372 306 356 q 247 389 275 389 q 192 337 218 389 q 167 213 167 285 m 528 685 q 486 642 528 642 q 430 674 469 642 q 339 766 390 707 q 260 881 288 825 q 250 914 250 899 q 292 956 250 956 q 336 914 315 956 q 486 736 385 818 q 528 685 528 703 z "},"":{"ha":556,"x_min":-44,"x_max":600,"o":"m 556 914 q 549 886 556 907 q 408 639 493 724 q 375 625 394 625 q 333 667 333 625 q 349 697 333 682 q 469 914 418 767 q 514 956 482 956 q 556 914 556 956 m 122 92 q -3 42 22 42 q -44 83 -44 42 q 7 131 -44 110 q 88 168 58 153 q 83 211 83 189 q 129 396 83 319 q 244 472 175 472 q 351 432 313 472 q 389 335 389 392 q 337 233 389 279 q 196 132 285 186 q 361 83 244 83 q 525 115 429 83 q 558 125 554 125 q 600 83 600 125 q 558 39 600 53 q 366 0 442 0 q 222 24 290 0 q 122 92 153 47 m 167 213 q 294 306 275 275 q 306 338 306 319 q 290 372 306 356 q 247 389 275 389 q 192 337 218 389 q 167 213 167 285 z "},"":{"ha":556,"x_min":-44,"x_max":600,"o":"m 122 92 q -3 42 22 42 q -44 83 -44 42 q 7 131 -44 110 q 88 168 58 153 q 83 211 83 189 q 129 396 83 319 q 244 472 175 472 q 351 432 313 472 q 389 335 389 392 q 337 233 389 279 q 196 132 285 186 q 361 83 244 83 q 525 115 429 83 q 558 125 554 125 q 600 83 600 125 q 558 39 600 53 q 366 0 442 0 q 222 24 290 0 q 122 92 153 47 m 167 213 q 294 306 275 275 q 306 338 306 319 q 290 372 306 356 q 247 389 275 389 q 192 337 218 389 q 167 213 167 285 m 370 761 q 356 761 370 761 q 305 730 342 761 q 215 647 268 699 q 157 589 163 594 q 149 581 151 583 q 142 575 146 579 q 125 561 129 563 q 118 558 121 560 q 107 556 113 556 q 65 597 65 556 q 107 657 65 618 q 145 694 119 669 q 181 730 171 719 q 210 759 190 740 q 240 785 231 778 q 265 806 249 793 q 292 823 282 818 q 317 833 303 828 q 365 844 340 844 q 408 837 390 844 q 437 818 425 829 q 459 789 449 807 q 476 756 469 771 q 488 719 482 742 q 497 686 494 697 q 507 636 507 647 q 510 619 510 626 q 469 578 510 578 q 426 619 435 578 q 370 761 399 761 z "},"":{"ha":556,"x_min":-44,"x_max":600,"o":"m 347 786 q 393 766 369 786 q 417 724 417 746 q 398 692 417 703 q 357 681 379 681 q 320 701 335 681 q 306 744 306 721 q 347 786 306 786 m 97 828 q 143 808 119 828 q 167 766 167 788 q 148 733 167 744 q 107 722 129 722 q 70 742 85 722 q 56 786 56 763 q 97 828 56 828 m 92 81 q 71 69 90 81 q -3 42 21 42 q -44 83 -44 42 q -3 126 -44 110 q 31 143 4 129 q 61 160 57 157 q 56 197 56 172 q 143 411 56 322 q 303 500 231 500 q 417 466 375 500 q 458 384 458 432 q 436 301 458 336 q 367 233 414 267 q 176 124 301 186 q 331 83 232 83 q 525 115 429 83 q 558 125 554 125 q 600 83 600 125 q 558 39 600 53 q 333 0 442 0 q 92 81 179 0 m 139 197 q 375 375 375 315 q 306 417 375 417 q 201 351 264 417 q 139 197 139 285 z "},"":{"ha":583,"x_min":-44,"x_max":628,"o":"m 222 913 q 264 956 222 956 q 320 923 281 956 q 411 831 360 890 q 490 717 463 772 q 500 683 500 699 q 458 642 500 642 q 414 683 435 642 q 264 861 365 779 q 222 913 222 894 m 196 172 q 38 53 118 89 q -3 42 13 42 q -44 83 -44 42 q -3 126 -44 110 q 56 160 19 135 q 106 197 93 185 q 149 243 118 210 q 199 294 181 276 q 248 329 217 311 q 306 347 279 347 q 389 308 360 347 q 424 222 418 269 q 472 97 439 97 q 540 111 499 97 q 586 125 582 125 q 628 83 628 125 q 586 39 628 53 q 465 14 511 14 q 389 53 418 14 q 354 139 360 92 q 306 264 339 264 q 265 241 288 264 q 228 205 242 218 q 196 172 214 192 z "},"":{"ha":583,"x_min":-44,"x_max":628,"o":"m 208 661 q 167 703 167 661 q 174 726 167 717 q 190 745 182 736 q 203 760 199 754 q 438 947 331 904 q 472 956 458 956 q 514 914 514 956 q 501 890 514 903 q 456 865 488 878 q 363 800 425 853 q 264 703 300 747 q 208 661 228 661 m 196 172 q 38 53 118 89 q -3 42 13 42 q -44 83 -44 42 q -3 126 -44 110 q 56 160 19 135 q 106 197 93 185 q 149 243 118 210 q 199 294 181 276 q 248 329 217 311 q 306 347 279 347 q 389 308 360 347 q 424 222 418 269 q 472 97 439 97 q 540 111 499 97 q 586 125 582 125 q 628 83 628 125 q 586 39 628 53 q 465 14 511 14 q 389 53 418 14 q 354 139 360 92 q 306 264 339 264 q 265 241 288 264 q 228 205 242 218 q 196 172 214 192 z "},"":{"ha":583,"x_min":-44,"x_max":628,"o":"m 365 731 q 350 731 365 731 q 299 700 336 731 q 209 617 261 669 q 151 558 157 564 q 143 551 146 553 q 136 544 140 549 q 119 531 124 532 q 113 528 115 529 q 101 525 107 525 q 60 567 60 525 q 101 626 60 588 q 140 664 114 639 q 175 699 165 689 q 205 728 185 710 q 234 755 225 747 q 260 775 243 763 q 287 792 276 788 q 311 803 297 797 q 360 814 335 814 q 402 806 385 814 q 431 788 419 799 q 453 758 443 776 q 470 726 464 740 q 483 689 476 711 q 492 656 489 667 q 501 606 501 617 q 504 589 504 596 q 464 547 504 547 q 421 589 429 547 q 365 731 393 731 m 196 172 q 38 53 118 89 q -3 42 13 42 q -44 83 -44 42 q -3 126 -44 110 q 56 160 19 135 q 106 197 93 185 q 149 243 118 210 q 199 294 181 276 q 248 329 217 311 q 306 347 279 347 q 389 308 360 347 q 424 222 418 269 q 472 97 439 97 q 540 111 499 97 q 586 125 582 125 q 628 83 628 125 q 586 39 628 53 q 465 14 511 14 q 389 53 418 14 q 354 139 360 92 q 306 264 339 264 q 265 241 288 264 q 228 205 242 218 q 196 172 214 192 z "},"":{"ha":583,"x_min":-44,"x_max":628,"o":"m 403 772 q 449 752 425 772 q 472 710 472 732 q 453 678 472 689 q 413 667 435 667 q 376 687 390 667 q 361 731 361 707 q 403 772 361 772 m 153 814 q 199 794 175 814 q 222 752 222 774 q 203 719 222 731 q 163 708 185 708 q 126 728 140 708 q 111 772 111 749 q 153 814 111 814 m 196 172 q 38 53 118 89 q -3 42 13 42 q -44 83 -44 42 q -3 126 -44 110 q 56 160 19 135 q 106 197 93 185 q 149 243 118 210 q 199 294 181 276 q 248 329 217 311 q 306 347 279 347 q 389 308 360 347 q 424 222 418 269 q 472 97 439 97 q 540 111 499 97 q 586 125 582 125 q 628 83 628 125 q 586 39 628 53 q 465 14 511 14 q 389 53 418 14 q 354 139 360 92 q 306 264 339 264 q 265 241 288 264 q 228 205 242 218 q 196 172 214 192 z "},"":{"ha":667,"x_min":56,"x_max":611,"o":"m 397 657 q 540 476 517 511 q 572 366 572 425 q 530 234 572 307 q 427 112 488 161 q 303 31 367 63 q 185 0 239 0 q 94 35 132 0 q 56 125 56 69 q 151 365 56 274 q 350 456 246 456 q 411 449 369 456 q 468 433 453 442 q 296 649 449 464 q 190 639 208 642 l 181 639 q 139 681 139 639 q 181 722 139 718 q 232 728 188 722 l 111 872 q 89 914 89 900 q 132 956 89 956 q 185 924 160 956 q 333 736 208 889 q 569 750 511 750 q 611 708 611 750 q 565 667 611 667 q 397 657 519 667 m 485 339 q 418 361 463 350 q 350 372 374 372 q 210 306 282 372 q 139 125 139 240 q 156 94 139 106 q 200 83 172 83 q 284 113 228 83 q 401 203 340 142 q 485 339 463 265 z "},"":{"ha":875,"x_min":-44,"x_max":919,"o":"m 208 806 q 262 873 208 832 q 365 914 315 914 q 474 888 415 914 q 548 861 533 861 q 575 869 563 861 q 590 887 588 878 q 597 912 593 896 q 603 936 600 928 q 639 956 610 956 q 681 910 681 956 q 647 822 681 865 q 542 778 614 778 q 455 804 511 778 q 368 831 399 831 q 303 797 338 831 q 250 764 268 764 q 208 806 208 764 m 878 39 q 761 14 803 14 q 696 44 719 14 q 653 149 672 75 q 625 222 635 222 q 549 111 589 222 q 499 35 533 69 q 412 0 464 0 q 331 46 360 0 q 297 146 301 92 q 282 246 292 200 q 250 292 272 292 q 228 283 235 292 q 216 267 221 275 q 206 252 211 260 q 194 232 201 244 q 181 206 189 219 q 136 133 153 157 q 38 53 103 81 q -3 42 13 42 q -44 83 -44 42 q 0 126 -44 110 q 63 174 44 143 q 106 246 82 206 q 138 300 129 286 q 161 333 147 314 q 186 360 175 354 q 250 375 215 375 q 336 329 307 375 q 370 229 365 283 q 385 129 375 175 q 417 83 394 83 q 459 118 439 83 q 494 194 479 153 q 544 271 510 236 q 625 306 578 306 q 678 288 661 306 q 702 261 694 271 q 716 232 710 251 q 725 203 722 213 q 733 172 728 194 q 764 97 750 96 q 832 111 790 97 q 878 125 874 125 q 919 83 919 125 q 878 39 919 53 z "},"":{"ha":667,"x_min":56,"x_max":611,"o":"m 222 913 q 264 956 222 956 q 320 923 281 956 q 411 831 360 890 q 490 717 463 772 q 500 683 500 699 q 458 642 500 642 q 414 683 435 642 q 264 861 365 779 q 222 913 222 894 m 111 389 q 153 347 153 389 q 146 314 153 331 q 139 274 139 297 q 153 228 139 251 q 196 177 168 204 q 279 131 224 150 q 391 111 335 111 q 488 140 447 111 q 528 222 528 169 q 488 363 528 310 q 375 417 447 417 q 308 396 342 417 q 264 375 274 375 q 222 417 222 375 q 270 472 222 443 q 375 500 318 500 q 546 423 481 500 q 611 222 611 346 q 545 81 611 133 q 404 28 479 28 q 267 47 329 28 q 168 94 206 65 q 103 156 131 122 q 56 263 56 214 q 71 351 56 313 q 111 389 86 389 z "},"":{"ha":667,"x_min":56,"x_max":611,"o":"m 264 661 q 222 703 222 661 q 230 726 222 717 q 246 745 238 736 q 258 760 254 754 q 493 947 386 904 q 528 956 514 956 q 569 914 569 956 q 556 890 569 903 q 512 865 543 878 q 418 800 481 853 q 320 704 356 747 q 264 661 285 661 m 111 389 q 153 347 153 389 q 146 314 153 331 q 139 274 139 297 q 153 228 139 251 q 196 177 168 204 q 279 131 224 150 q 391 111 335 111 q 488 140 447 111 q 528 222 528 169 q 488 363 528 310 q 375 417 447 417 q 308 396 342 417 q 264 375 274 375 q 222 417 222 375 q 270 472 222 443 q 375 500 318 500 q 546 423 481 500 q 611 222 611 346 q 545 81 611 133 q 404 28 479 28 q 267 47 329 28 q 168 94 206 65 q 103 156 131 122 q 56 263 56 214 q 71 351 56 313 q 111 389 86 389 z "},"":{"ha":667,"x_min":56,"x_max":611,"o":"m 416 872 q 402 872 416 872 q 351 842 388 872 q 261 758 314 811 l 203 700 q 194 692 197 694 q 188 686 192 690 q 171 672 175 674 q 164 669 167 671 q 153 667 158 667 q 111 708 111 667 q 153 768 111 729 q 191 806 165 781 q 226 841 217 831 q 256 870 236 851 q 285 897 276 889 q 311 917 294 904 q 338 934 328 929 q 363 944 349 939 q 411 956 386 956 q 453 948 436 956 q 483 929 471 940 q 505 900 494 918 q 522 867 515 882 q 534 831 528 853 q 543 797 540 808 q 553 747 553 758 q 556 731 556 738 q 515 689 556 689 q 472 731 481 689 q 416 872 444 872 m 111 389 q 153 347 153 389 q 146 314 153 331 q 139 274 139 297 q 153 228 139 251 q 196 177 168 204 q 279 131 224 150 q 391 111 335 111 q 488 140 447 111 q 528 222 528 169 q 488 363 528 310 q 375 417 447 417 q 308 396 342 417 q 264 375 274 375 q 222 417 222 375 q 270 472 222 443 q 375 500 318 500 q 546 423 481 500 q 611 222 611 346 q 545 81 611 133 q 404 28 479 28 q 267 47 329 28 q 168 94 206 65 q 103 156 131 122 q 56 263 56 214 q 71 351 56 313 q 111 389 86 389 z "},"":{"ha":667,"x_min":56,"x_max":611,"o":"m 111 806 q 165 873 111 832 q 268 914 218 914 q 377 888 318 914 q 451 861 436 861 q 478 869 465 861 q 493 887 490 878 q 499 912 496 896 q 506 936 503 928 q 542 956 513 956 q 583 910 583 956 q 550 822 583 865 q 444 778 517 778 q 358 804 414 778 q 271 831 301 831 q 206 797 240 831 q 153 764 171 764 q 111 806 111 764 m 111 389 q 153 347 153 389 q 146 314 153 331 q 139 274 139 297 q 153 228 139 251 q 196 177 168 204 q 279 131 224 150 q 391 111 335 111 q 488 140 447 111 q 528 222 528 169 q 488 363 528 310 q 375 417 447 417 q 308 396 342 417 q 264 375 274 375 q 222 417 222 375 q 270 472 222 443 q 375 500 318 500 q 546 423 481 500 q 611 222 611 346 q 545 81 611 133 q 404 28 479 28 q 267 47 329 28 q 168 94 206 65 q 103 156 131 122 q 56 263 56 214 q 71 351 56 313 q 111 389 86 389 z "},"":{"ha":667,"x_min":56,"x_max":611,"o":"m 431 828 q 476 808 453 828 q 500 766 500 788 q 481 733 500 744 q 440 722 463 722 q 403 742 418 722 q 389 786 389 763 q 431 828 389 828 m 181 869 q 226 849 203 869 q 250 808 250 829 q 231 775 250 786 q 190 764 213 764 q 153 784 168 764 q 139 828 139 804 q 181 869 139 869 m 111 389 q 153 347 153 389 q 146 314 153 331 q 139 274 139 297 q 153 228 139 251 q 196 177 168 204 q 279 131 224 150 q 391 111 335 111 q 488 140 447 111 q 528 222 528 169 q 488 363 528 310 q 375 417 447 417 q 308 396 342 417 q 264 375 274 375 q 222 417 222 375 q 270 472 222 443 q 375 500 318 500 q 546 423 481 500 q 611 222 611 346 q 545 81 611 133 q 404 28 479 28 q 267 47 329 28 q 168 94 206 65 q 103 156 131 122 q 56 263 56 214 q 71 351 56 313 q 111 389 86 389 z "},"":{"ha":667,"x_min":56,"x_max":611,"o":"m 306 708 q 351 689 328 708 q 375 647 375 669 q 356 614 375 625 q 315 603 338 603 q 278 623 293 603 q 264 667 264 643 q 306 708 264 708 m 333 306 q 379 286 356 306 q 403 244 403 267 q 384 211 403 222 q 343 200 365 200 q 306 220 321 200 q 292 264 292 240 q 333 306 292 306 m 97 472 q 569 500 236 500 q 611 458 611 500 q 569 417 611 417 q 111 390 243 417 q 97 389 100 389 q 56 431 56 389 q 97 472 56 464 z "},"":{"ha":667,"x_min":56,"x_max":611,"o":"m 306 649 q 374 917 350 803 q 417 956 383 956 q 457 914 457 956 q 440 826 457 906 q 406 685 424 747 q 442 686 417 686 q 565 619 518 686 q 611 472 611 551 q 515 228 611 331 q 256 125 419 125 q 232 126 239 125 q 151 -136 158 -81 q 139 -160 150 -147 q 110 -172 128 -172 q 68 -131 68 -172 q 79 -67 68 -108 q 150 154 90 -25 q 81 224 107 179 q 56 321 56 268 q 134 539 56 438 q 306 649 213 640 m 381 596 q 260 208 338 440 q 454 285 381 210 q 528 472 528 360 q 506 564 528 525 q 444 603 483 603 q 381 596 406 603 m 278 551 q 180 459 221 524 q 139 333 139 394 q 178 238 139 272 l 278 551 z "},"":{"ha":667,"x_min":56,"x_max":711,"o":"m 444 250 q 208 0 361 0 q 95 45 135 0 q 56 159 56 90 q 83 394 56 228 q 125 436 90 436 q 167 394 167 436 q 153 308 167 392 q 139 174 139 225 q 153 103 139 122 q 201 83 168 83 q 259 100 235 83 q 302 144 283 117 q 337 204 321 172 q 365 273 353 236 q 386 336 378 310 q 406 414 406 406 q 458 456 418 456 q 489 447 479 456 q 501 425 499 439 q 508 372 503 411 q 522 294 514 333 q 540 211 529 256 q 597 111 565 111 q 644 118 624 111 q 669 125 665 125 q 711 83 711 125 q 674 40 711 53 q 604 28 636 28 q 551 38 572 28 q 517 64 531 49 q 492 106 506 78 q 463 176 476 136 q 449 224 450 217 q 447 238 447 231 q 444 250 446 246 m 333 913 q 375 956 333 956 q 431 923 392 956 q 522 831 471 890 q 601 717 574 772 q 611 683 611 699 q 569 642 611 642 q 525 683 546 642 q 375 861 476 779 q 333 913 333 894 z "},"":{"ha":667,"x_min":56,"x_max":711,"o":"m 444 250 q 208 0 361 0 q 95 45 135 0 q 56 159 56 90 q 83 394 56 228 q 125 436 90 436 q 167 394 167 436 q 153 308 167 392 q 139 174 139 225 q 153 103 139 122 q 201 83 168 83 q 259 100 235 83 q 302 144 283 117 q 337 204 321 172 q 365 273 353 236 q 386 336 378 310 q 406 414 406 406 q 458 456 418 456 q 489 447 479 456 q 501 425 499 439 q 508 372 503 411 q 522 294 514 333 q 540 211 529 256 q 597 111 565 111 q 644 118 624 111 q 669 125 665 125 q 711 83 711 125 q 674 40 711 53 q 604 28 636 28 q 551 38 572 28 q 517 64 531 49 q 492 106 506 78 q 463 176 476 136 q 449 224 450 217 q 447 238 447 231 q 444 250 446 246 m 319 661 q 278 703 278 661 q 285 726 278 717 q 301 745 293 736 q 314 760 310 754 q 549 947 442 904 q 583 956 569 956 q 625 914 625 956 q 612 890 625 903 q 567 865 599 878 q 474 800 536 853 q 376 704 411 747 q 319 661 340 661 z "},"":{"ha":667,"x_min":56,"x_max":711,"o":"m 444 250 q 208 0 361 0 q 95 45 135 0 q 56 159 56 90 q 83 394 56 228 q 125 436 90 436 q 167 394 167 436 q 153 308 167 392 q 139 174 139 225 q 153 103 139 122 q 201 83 168 83 q 259 100 235 83 q 302 144 283 117 q 337 204 321 172 q 365 273 353 236 q 386 336 378 310 q 406 414 406 406 q 458 456 418 456 q 489 447 479 456 q 501 425 499 439 q 508 372 503 411 q 522 294 514 333 q 540 211 529 256 q 597 111 565 111 q 644 118 624 111 q 669 125 665 125 q 711 83 711 125 q 674 40 711 53 q 604 28 636 28 q 551 38 572 28 q 517 64 531 49 q 492 106 506 78 q 463 176 476 136 q 449 224 450 217 q 447 238 447 231 q 444 250 446 246 m 416 872 q 402 872 416 872 q 351 842 388 872 q 261 758 314 811 l 203 700 q 194 692 197 694 q 188 686 192 690 q 171 672 175 674 q 164 669 167 671 q 153 667 158 667 q 111 708 111 667 q 153 768 111 729 q 191 806 165 781 q 226 841 217 831 q 256 870 236 851 q 285 897 276 889 q 311 917 294 904 q 338 934 328 929 q 363 944 349 939 q 411 956 386 956 q 453 948 436 956 q 483 929 471 940 q 505 900 494 918 q 522 867 515 882 q 534 831 528 853 q 543 797 540 808 q 553 747 553 758 q 556 731 556 738 q 515 689 556 689 q 472 731 481 689 q 416 872 444 872 z "},"":{"ha":667,"x_min":56,"x_max":711,"o":"m 444 250 q 208 0 361 0 q 95 45 135 0 q 56 159 56 90 q 83 394 56 228 q 125 436 90 436 q 167 394 167 436 q 153 308 167 392 q 139 174 139 225 q 153 103 139 122 q 201 83 168 83 q 259 100 235 83 q 302 144 283 117 q 337 204 321 172 q 365 273 353 236 q 386 336 378 310 q 406 414 406 406 q 458 456 418 456 q 489 447 479 456 q 501 425 499 439 q 508 372 503 411 q 522 294 514 333 q 540 211 529 256 q 597 111 565 111 q 644 118 624 111 q 669 125 665 125 q 711 83 711 125 q 674 40 711 53 q 604 28 636 28 q 551 38 572 28 q 517 64 531 49 q 492 106 506 78 q 463 176 476 136 q 449 224 450 217 q 447 238 447 231 q 444 250 446 246 m 444 828 q 490 808 467 828 q 514 766 514 788 q 495 733 514 744 q 454 722 476 722 q 417 742 432 722 q 403 786 403 763 q 444 828 403 828 m 194 869 q 240 849 217 869 q 264 808 264 829 q 245 775 264 786 q 204 764 226 764 q 167 784 182 764 q 153 828 153 804 q 194 869 153 869 z "},"":{"ha":611,"x_min":56,"x_max":556,"o":"m 208 661 q 167 703 167 661 q 174 726 167 717 q 190 745 182 736 q 203 760 199 754 q 438 947 331 904 q 472 956 458 956 q 514 914 514 956 q 501 890 514 903 q 456 865 488 878 q 363 800 425 853 q 264 703 300 747 q 208 661 228 661 m 556 375 q 540 -1 556 200 q 500 -308 524 -201 q 375 -433 474 -433 q 194 -192 194 -433 q 231 -62 194 -125 q 315 0 268 0 q 361 -42 361 0 q 342 -65 361 -51 q 278 -190 278 -110 q 298 -310 278 -269 q 375 -350 318 -350 q 421 -286 408 -350 q 464 106 447 -162 q 468 208 469 190 q 426 156 439 167 q 399 135 413 146 q 374 119 386 125 q 345 105 363 113 q 310 93 328 97 q 222 83 268 83 q 117 167 149 83 q 57 444 74 276 q 56 467 56 453 q 95 500 56 500 q 139 458 135 500 q 172 267 149 367 q 222 167 194 167 q 363 213 313 167 q 472 375 413 258 q 514 417 489 417 q 556 375 556 417 z "},"":{"ha":667,"x_min":56,"x_max":611,"o":"m 528 347 q 528 367 528 347 q 497 409 528 388 q 414 431 467 431 q 329 425 361 431 q 267 398 297 419 q 217 333 236 376 q 181 217 197 290 q 497 278 428 217 q 528 347 528 306 m 167 -386 q 167 -392 167 -389 q 125 -433 167 -433 q 83 -394 90 -433 q 56 -98 56 -228 q 83 175 56 32 l 83 406 q 69 833 83 556 q 62 876 68 850 q 56 914 56 901 q 97 956 56 956 q 140 910 128 956 q 153 833 151 864 q 167 406 167 556 q 258 492 206 469 q 405 514 310 514 q 556 468 500 514 q 611 347 611 422 q 489 178 611 228 q 347 143 417 149 q 161 133 249 133 q 139 -100 139 22 q 163 -364 139 -222 l 167 -386 z "},"":{"ha":611,"x_min":56,"x_max":556,"o":"m 458 828 q 504 808 481 828 q 528 766 528 788 q 509 733 528 744 q 468 722 490 722 q 431 742 446 722 q 417 786 417 763 q 458 828 417 828 m 208 869 q 254 849 231 869 q 278 808 278 829 q 259 775 278 786 q 218 764 240 764 q 181 784 196 764 q 167 828 167 804 q 208 869 167 869 m 556 375 q 540 -1 556 200 q 500 -308 524 -201 q 375 -433 474 -433 q 194 -192 194 -433 q 231 -62 194 -125 q 315 0 268 0 q 361 -42 361 0 q 342 -65 361 -51 q 278 -190 278 -110 q 298 -310 278 -269 q 375 -350 318 -350 q 421 -286 408 -350 q 464 106 447 -162 q 468 208 469 190 q 426 156 439 167 q 399 135 413 146 q 374 119 386 125 q 345 105 363 113 q 310 93 328 97 q 222 83 268 83 q 117 167 149 83 q 57 444 74 276 q 56 467 56 453 q 95 500 56 500 q 139 458 135 500 q 172 267 149 367 q 222 167 194 167 q 363 213 313 167 q 472 375 413 258 q 514 417 489 417 q 556 375 556 417 z "},"":{"ha":667,"x_min":56,"x_max":611,"o":"m 203 535 q 249 615 214 590 q 326 639 285 639 q 411 575 367 639 q 535 278 494 458 l 569 278 q 600 265 589 278 q 611 236 611 253 q 600 207 611 219 q 569 194 589 194 l 550 194 q 556 114 556 157 q 521 35 556 71 q 439 0 486 0 q 335 56 392 0 q 278 167 278 111 q 451 274 278 263 q 387 460 429 364 q 324 556 344 556 q 296 546 304 556 q 283 514 288 536 q 140 42 221 204 q 119 8 128 15 q 97 0 110 0 q 56 42 56 0 q 65 78 56 60 q 203 535 142 232 m 467 192 q 361 167 361 185 q 392 115 361 146 q 444 83 424 83 q 472 122 472 83 q 467 192 472 160 m 97 928 q 569 956 236 956 q 611 914 611 956 q 569 872 611 872 q 111 846 243 872 q 97 844 100 844 q 56 886 56 844 q 97 928 56 919 z "},"":{"ha":667,"x_min":56,"x_max":711,"o":"m 97 786 q 569 814 236 814 q 611 772 611 814 q 569 731 611 731 q 111 704 243 731 q 97 703 100 703 q 56 744 56 703 q 97 786 56 778 m 625 114 q 669 125 625 114 q 711 83 711 125 q 669 39 711 53 q 620 31 644 31 q 574 42 596 31 q 539 75 551 53 q 508 153 518 111 l 503 176 q 388 82 479 136 q 194 28 297 28 q 97 69 139 28 q 56 167 56 111 q 167 401 56 301 q 392 500 278 500 q 499 477 454 500 q 544 431 544 454 q 503 389 544 389 q 463 403 494 389 q 392 417 431 417 q 228 344 317 417 q 139 167 139 271 q 156 128 139 146 q 194 111 174 111 q 347 155 276 111 q 438 227 418 199 q 469 279 457 256 q 488 310 482 303 q 515 318 494 318 q 547 303 536 318 q 568 255 558 288 q 588 182 578 222 q 605 128 597 142 q 625 114 613 114 z "},"":{"ha":667,"x_min":56,"x_max":611,"o":"m 140 919 q 155 900 140 919 q 197 870 169 882 q 285 858 225 858 q 419 883 346 858 q 543 944 493 907 q 569 956 558 956 q 611 914 611 956 q 594 878 611 890 q 444 802 529 829 q 281 775 358 775 q 83 857 149 775 q 56 914 56 892 q 97 956 56 956 q 140 919 111 956 m 203 535 q 249 615 214 590 q 326 639 285 639 q 411 575 367 639 q 535 278 494 458 l 569 278 q 600 265 589 278 q 611 236 611 253 q 600 207 611 219 q 569 194 589 194 l 550 194 q 556 114 556 157 q 521 35 556 71 q 439 0 486 0 q 335 56 392 0 q 278 167 278 111 q 451 274 278 263 q 387 460 429 364 q 324 556 344 556 q 296 546 304 556 q 283 514 288 536 q 140 42 221 204 q 119 8 128 15 q 97 0 110 0 q 56 42 56 0 q 65 78 56 60 q 203 535 142 232 m 467 192 q 361 167 361 185 q 392 115 361 146 q 444 83 424 83 q 472 122 472 83 q 467 192 472 160 z "},"":{"ha":667,"x_min":56,"x_max":711,"o":"m 140 777 q 155 759 140 777 q 197 728 169 740 q 285 717 225 717 q 419 741 346 717 q 543 803 493 765 q 569 814 558 814 q 611 772 611 814 q 594 736 611 749 q 444 660 529 688 q 281 633 358 633 q 83 715 149 633 q 56 772 56 750 q 97 814 56 814 q 140 777 111 814 m 625 114 l 669 125 q 711 83 711 125 q 669 39 711 53 q 620 31 644 31 q 574 42 596 31 q 539 75 551 53 q 508 153 518 111 l 503 176 q 388 82 479 136 q 194 28 297 28 q 97 69 139 28 q 56 167 56 111 q 167 401 56 301 q 392 500 278 500 q 499 477 454 500 q 544 431 544 454 q 503 389 544 389 q 463 403 494 389 q 392 417 431 417 q 228 344 317 417 q 139 167 139 271 q 156 128 139 146 q 194 111 174 111 q 347 155 276 111 q 438 227 418 199 q 469 279 457 256 q 488 310 482 303 q 515 318 494 318 q 547 303 536 318 q 568 255 558 288 q 588 182 578 222 q 605 128 597 142 q 625 114 613 114 z "},"":{"ha":708,"x_min":56,"x_max":653,"o":"m 56 42 l 111 265 q 97 264 103 264 q 56 306 56 264 q 65 334 56 325 q 88 345 75 343 q 106 347 100 347 q 133 353 119 350 l 221 694 q 344 814 250 814 q 394 799 369 814 q 442 731 432 772 q 517 375 476 572 l 569 375 q 611 333 611 375 q 569 292 611 292 l 532 292 q 569 42 569 104 q 528 0 569 0 q 473 -60 501 -15 q 444 -125 444 -106 q 485 -167 444 -167 q 565 -153 526 -167 q 611 -139 603 -139 q 653 -181 653 -139 q 611 -222 653 -201 q 535 -248 560 -246 q 486 -250 511 -250 q 397 -215 432 -250 q 361 -129 361 -179 q 401 -17 361 -79 q 486 72 440 46 l 447 292 q 199 276 319 289 l 139 42 q 124 10 133 19 q 97 0 115 0 q 56 42 56 0 m 432 375 q 344 731 364 731 q 300 674 314 731 l 221 363 q 432 375 343 372 z "},"":{"ha":667,"x_min":56,"x_max":611,"o":"m 486 0 q 431 -60 460 -15 q 403 -125 403 -106 q 444 -167 403 -167 q 523 -153 485 -167 q 569 -139 561 -139 q 611 -181 611 -139 q 569 -222 611 -201 q 494 -248 518 -246 q 444 -250 469 -250 q 355 -215 390 -250 q 319 -129 319 -179 q 358 -18 319 -79 q 443 69 397 43 q 431 164 433 150 q 323 64 410 128 q 181 0 236 0 q 90 35 125 0 q 56 125 56 69 q 169 381 56 263 q 392 500 282 500 q 499 477 454 500 q 544 431 544 454 q 503 389 544 389 q 463 403 494 389 q 392 417 431 417 q 230 325 321 417 q 139 125 139 233 q 181 83 139 83 q 283 138 210 83 q 371 222 357 193 q 416 299 408 293 q 431 306 424 306 q 483 288 467 306 q 506 221 499 271 q 528 42 528 72 q 486 0 528 0 z "},"":{"ha":667,"x_min":56,"x_max":711,"o":"m 319 0 q 128 72 200 0 q 56 264 56 144 q 185 527 56 415 q 472 639 314 639 q 558 603 519 639 q 597 519 597 567 q 556 472 597 472 q 531 493 543 472 q 506 535 519 514 q 472 556 492 556 q 244 468 349 556 q 139 264 139 381 q 186 131 139 178 q 319 83 233 83 q 636 115 540 83 q 669 125 665 125 q 711 83 711 125 q 669 39 711 53 q 319 0 553 0 m 375 722 q 333 764 333 722 q 364 803 333 782 q 469 919 411 832 q 514 956 493 956 q 556 914 556 956 q 539 875 556 900 q 410 733 472 775 q 375 722 393 722 z "},"":{"ha":583,"x_min":56,"x_max":628,"o":"m 208 661 q 167 703 167 661 q 174 726 167 717 q 190 745 182 736 q 203 760 199 754 q 438 947 331 904 q 472 956 458 956 q 514 914 514 956 q 501 890 514 903 q 456 865 488 878 q 363 800 425 853 q 264 703 300 747 q 208 661 228 661 m 361 0 l 278 0 q 108 55 161 0 q 56 194 56 110 q 136 409 56 318 q 319 500 217 500 q 424 476 376 500 q 472 431 472 453 q 431 389 472 389 q 385 403 413 389 q 319 417 357 417 q 192 347 244 417 q 139 207 139 276 q 172 110 139 138 q 278 83 204 83 l 361 83 q 553 115 457 83 q 586 125 582 125 q 628 83 628 125 q 586 39 628 53 q 361 0 469 0 z "},"":{"ha":667,"x_min":56,"x_max":711,"o":"m 319 0 q 128 72 200 0 q 56 264 56 144 q 185 527 56 415 q 472 639 314 639 q 558 602 519 639 q 597 519 597 565 q 556 472 597 472 q 531 493 543 472 q 506 535 519 514 q 472 556 492 556 q 244 468 349 556 q 139 264 139 381 q 186 131 139 178 q 319 83 233 83 q 636 115 540 83 q 669 125 665 125 q 711 83 711 125 q 669 39 711 53 q 319 0 553 0 m 417 872 q 358 849 388 872 q 276 774 328 825 q 208 722 225 722 q 167 764 167 722 q 208 824 167 782 q 244 860 231 846 q 274 888 258 874 q 297 908 290 903 q 317 923 303 913 q 341 937 332 933 q 364 946 350 940 q 419 956 388 956 q 476 936 450 956 q 518 883 503 917 q 556 763 556 803 q 515 722 556 722 q 472 764 481 722 q 450 835 465 797 q 417 872 435 872 z "},"":{"ha":583,"x_min":56,"x_max":628,"o":"m 388 872 q 374 872 388 872 q 323 842 360 872 q 233 758 286 811 l 175 700 q 167 692 169 694 q 160 686 164 690 q 143 672 147 674 q 136 669 139 671 q 125 667 131 667 q 83 708 83 667 q 125 768 83 729 q 163 806 138 781 q 199 841 189 831 q 228 870 208 851 q 258 897 249 889 q 283 917 267 904 q 310 934 300 929 q 335 944 321 939 q 383 956 358 956 q 426 948 408 956 q 455 929 443 940 q 477 900 467 918 q 494 867 488 882 q 506 831 500 853 q 515 797 513 808 q 525 747 525 758 q 528 731 528 738 q 488 689 528 689 q 444 731 453 689 q 388 872 417 872 m 361 0 l 278 0 q 108 55 161 0 q 56 194 56 110 q 136 409 56 318 q 319 500 217 500 q 424 476 376 500 q 472 431 472 453 q 431 389 472 389 q 385 403 413 389 q 319 417 357 417 q 192 347 244 417 q 139 207 139 276 q 172 110 139 138 q 278 83 204 83 l 361 83 q 553 115 457 83 q 586 125 582 125 q 628 83 628 125 q 586 39 628 53 q 361 0 469 0 z "},"":{"ha":667,"x_min":56,"x_max":711,"o":"m 319 0 q 128 72 200 0 q 56 264 56 144 q 185 527 56 415 q 472 639 314 639 q 558 603 519 639 q 597 519 597 567 q 556 472 597 472 q 531 493 543 472 q 506 535 519 514 q 472 556 492 556 q 244 468 349 556 q 139 264 139 381 q 186 131 139 178 q 319 83 233 83 q 636 115 540 83 q 669 125 665 125 q 711 83 711 125 q 669 39 711 53 q 319 0 553 0 m 431 956 q 476 936 453 956 q 500 894 500 917 q 481 861 500 872 q 440 850 463 850 q 403 870 418 850 q 389 914 389 890 q 431 956 389 956 z "},"":{"ha":583,"x_min":56,"x_max":628,"o":"m 347 814 q 393 794 369 814 q 417 753 417 775 q 398 719 417 731 q 357 708 379 708 q 320 728 335 708 q 306 772 306 749 q 347 814 306 814 m 361 0 l 278 0 q 108 55 161 0 q 56 194 56 110 q 136 409 56 318 q 319 500 217 500 q 425 476 378 500 q 472 431 472 453 q 431 389 472 389 q 385 403 413 389 q 319 417 357 417 q 192 347 244 417 q 139 207 139 276 q 172 110 139 138 q 278 83 204 83 l 361 83 q 553 115 457 83 q 586 125 582 125 q 628 83 628 125 q 586 39 628 53 q 361 0 469 0 z "},"":{"ha":667,"x_min":56,"x_max":711,"o":"m 319 0 q 128 72 200 0 q 56 264 56 144 q 185 527 56 415 q 472 639 314 639 q 558 602 519 639 q 597 519 597 565 q 556 472 597 472 q 531 493 543 472 q 506 535 519 514 q 472 556 492 556 q 244 468 349 556 q 139 264 139 381 q 186 131 139 178 q 319 83 233 83 q 636 115 540 83 q 669 125 665 125 q 711 83 711 125 q 669 39 711 53 q 319 0 553 0 m 456 914 q 514 956 497 956 q 556 914 556 956 q 514 854 556 896 q 306 722 382 722 q 246 742 272 722 q 204 794 219 761 q 167 915 167 875 q 207 956 167 956 q 250 914 242 956 q 272 843 257 881 q 306 806 288 806 q 456 914 347 806 z "},"":{"ha":583,"x_min":56,"x_max":628,"o":"m 400 914 q 458 956 442 956 q 500 914 500 956 q 458 854 500 896 q 250 722 326 722 q 190 742 217 722 q 149 794 164 761 q 111 915 111 875 q 151 956 111 956 q 194 914 186 956 q 217 843 201 881 q 250 806 232 806 q 400 914 292 806 m 361 0 l 278 0 q 108 55 161 0 q 56 194 56 110 q 136 409 56 318 q 319 500 217 500 q 424 476 376 500 q 472 431 472 453 q 431 389 472 389 q 385 403 413 389 q 319 417 357 417 q 192 347 244 417 q 139 207 139 276 q 172 110 139 138 q 278 83 204 83 l 361 83 q 553 115 457 83 q 586 125 582 125 q 628 83 628 125 q 586 39 628 53 q 361 0 469 0 z "},"":{"ha":611,"x_min":56,"x_max":556,"o":"m 151 85 q 356 164 256 97 q 440 254 407 197 q 472 379 472 311 q 428 501 472 447 q 319 556 385 556 q 161 456 201 556 q 139 289 139 400 q 151 85 139 178 m 399 92 q 366 70 399 92 q 262 24 332 47 q 138 0 192 0 q 74 42 83 0 q 56 264 56 114 q 85 486 56 414 q 319 639 146 639 q 487 562 418 639 q 556 388 556 485 q 511 214 556 290 q 399 92 467 138 m 442 914 q 500 956 483 956 q 542 914 542 956 q 500 854 542 896 q 292 722 368 722 q 232 742 258 722 q 190 794 206 761 q 153 915 153 875 q 193 956 153 956 q 236 914 228 956 q 258 843 243 881 q 292 806 274 806 q 442 914 333 806 z "},"":{"ha":778,"x_min":56,"x_max":778,"o":"m 431 279 q 347 344 431 333 q 319 347 332 347 q 193 288 247 347 q 139 167 139 229 q 222 83 139 83 q 344 133 288 83 q 431 279 400 183 m 451 397 q 427 615 451 463 q 403 822 403 767 q 421 907 403 876 q 448 947 439 938 q 472 956 457 956 q 514 914 514 956 q 500 877 514 900 q 486 814 486 854 q 510 622 486 774 q 535 386 535 471 q 497 211 535 301 q 385 60 458 121 q 228 0 313 0 q 100 44 144 0 q 56 167 56 89 q 137 349 56 268 q 309 431 218 431 q 451 397 400 431 m 778 913 q 700 621 778 775 q 653 579 679 579 q 611 621 611 579 q 617 642 611 631 q 694 913 694 788 q 736 954 694 954 q 778 913 778 954 z "},"":{"ha":778,"x_min":56,"x_max":722,"o":"m 111 390 l 97 389 q 56 428 56 389 q 97 472 56 467 l 167 482 q 194 678 171 593 q 236 747 206 713 q 431 814 296 814 q 631 733 539 814 q 722 558 722 651 q 619 301 722 410 q 439 146 544 224 q 311 49 333 68 q 281 19 289 28 l 268 7 q 228 -10 251 -10 q 186 33 186 -10 q 363 194 186 61 q 502 303 451 261 q 596 414 553 346 q 639 549 639 482 q 569 674 639 617 q 438 731 500 731 q 346 719 376 731 q 272 644 286 699 q 251 492 253 568 q 375 500 340 500 q 417 458 417 500 q 406 428 417 440 q 367 417 394 417 q 250 408 339 417 q 267 215 253 265 q 269 194 269 199 q 228 153 269 153 q 199 161 207 153 q 167 399 172 189 l 111 390 z "},"":{"ha":667,"x_min":56,"x_max":611,"o":"m 306 613 l 292 611 q 250 650 250 611 q 292 694 250 689 q 314 697 294 694 q 413 710 376 706 q 403 828 403 781 q 421 907 403 876 q 448 947 439 938 q 472 956 457 956 q 514 914 514 956 q 500 877 514 900 q 486 819 486 854 q 496 718 486 783 q 569 722 538 722 q 611 681 611 722 q 600 651 611 663 q 571 639 589 639 q 508 636 553 639 q 535 385 535 469 q 497 211 535 301 q 385 60 458 121 q 228 0 313 0 q 100 44 144 0 q 56 167 56 89 q 137 349 56 268 q 309 431 218 431 q 451 397 400 431 q 425 628 451 461 l 306 613 m 431 279 q 347 344 431 333 q 319 347 332 347 q 193 288 247 347 q 139 167 139 229 q 222 83 139 83 q 344 133 288 83 q 431 279 400 183 z "},"":{"ha":667,"x_min":56,"x_max":611,"o":"m 97 928 q 569 956 236 956 q 611 914 611 956 q 569 872 611 872 q 111 846 243 872 q 97 844 100 844 q 56 886 56 844 q 97 928 56 919 m 111 42 q 65 513 111 386 q 56 569 56 539 q 97 611 56 611 l 126 611 q 167 639 133 639 q 207 613 201 639 q 556 638 439 617 q 569 639 567 639 q 611 597 611 639 q 569 556 611 564 q 207 529 446 533 l 201 346 q 519 326 263 326 q 561 285 561 326 q 519 243 561 243 q 199 260 279 243 q 194 42 194 133 q 153 0 194 0 q 111 42 111 0 m 569 13 q 398 0 467 0 q 250 26 329 0 q 208 69 208 40 q 250 110 208 110 q 299 98 263 110 q 406 85 335 86 q 520 90 476 83 q 569 96 564 96 q 611 54 611 96 q 599 26 611 38 q 569 13 586 15 z "},"":{"ha":556,"x_min":-44,"x_max":600,"o":"m 92 81 q 71 69 90 81 q -3 42 21 42 q -44 83 -44 42 q -3 126 -44 110 q 31 143 4 129 q 61 160 57 157 q 56 197 56 172 q 143 411 56 322 q 303 500 231 500 q 417 466 375 500 q 458 384 458 432 q 436 301 458 336 q 367 233 414 267 q 176 124 301 186 q 331 83 232 83 q 525 115 429 83 q 558 125 554 125 q 600 83 600 125 q 558 39 600 53 q 333 0 442 0 q 92 81 179 0 m 139 197 q 375 375 375 315 q 306 417 375 417 q 201 351 264 417 q 139 197 139 285 m 56 886 q 93 926 56 915 q 146 941 131 938 q 242 950 161 944 q 458 956 324 956 q 500 914 500 956 q 458 872 500 872 q 281 869 325 872 l 214 865 q 141 853 169 863 q 97 844 113 844 q 56 886 56 844 z "},"":{"ha":667,"x_min":56,"x_max":611,"o":"m 358 810 q 278 837 307 810 q 250 893 250 864 q 292 935 250 935 q 320 914 304 935 q 358 893 336 893 q 513 940 449 893 q 542 956 533 956 q 583 914 583 956 q 542 864 583 894 q 358 810 472 810 m 111 42 q 65 513 111 386 q 56 569 56 539 q 97 611 56 611 l 126 611 q 167 639 133 639 q 207 613 201 639 q 556 638 439 617 q 569 639 567 639 q 611 597 611 639 q 569 556 611 564 q 207 529 446 533 l 201 346 q 519 326 263 326 q 561 285 561 326 q 519 243 561 243 q 199 260 279 243 q 194 42 194 133 q 153 0 194 0 q 111 42 111 0 m 569 13 q 398 0 467 0 q 250 26 329 0 q 208 69 208 40 q 250 110 208 110 q 299 98 263 110 q 406 85 335 86 q 520 90 476 83 q 569 96 564 96 q 611 54 611 96 q 599 26 611 38 q 569 13 586 15 z "},"":{"ha":556,"x_min":-44,"x_max":600,"o":"m 275 668 q 195 695 224 668 q 167 751 167 722 q 208 793 167 793 q 237 772 221 793 q 275 751 253 751 q 429 799 365 751 q 458 814 450 814 q 500 772 500 814 q 458 722 500 753 q 275 668 389 668 m 92 81 q 71 69 90 81 q -3 42 21 42 q -44 83 -44 42 q -3 126 -44 110 q 31 143 4 129 q 61 160 57 157 q 56 197 56 172 q 143 411 56 322 q 303 500 231 500 q 417 466 375 500 q 458 384 458 432 q 436 301 458 336 q 367 233 414 267 q 176 124 301 186 q 331 83 232 83 q 525 115 429 83 q 558 125 554 125 q 600 83 600 125 q 558 39 600 53 q 333 0 442 0 q 92 81 179 0 m 139 197 q 375 375 375 315 q 306 417 375 417 q 201 351 264 417 q 139 197 139 285 z "},"":{"ha":667,"x_min":56,"x_max":611,"o":"m 111 42 q 65 513 111 386 q 56 569 56 539 q 97 611 56 611 l 126 611 q 167 639 133 639 q 207 613 201 639 q 556 638 439 617 q 569 639 567 639 q 611 597 611 639 q 569 556 611 564 q 207 529 446 533 l 201 346 q 519 326 263 326 q 561 285 561 326 q 519 243 561 243 q 199 260 279 243 q 194 42 194 133 q 153 0 194 0 q 111 42 111 0 m 569 13 q 398 0 467 0 q 250 26 329 0 q 208 69 208 40 q 250 110 208 110 q 299 98 263 110 q 406 85 335 86 q 520 90 476 83 q 569 96 564 96 q 611 54 611 96 q 599 26 611 38 q 569 13 586 15 m 347 956 q 393 935 369 956 q 417 894 417 915 q 398 861 417 872 q 357 850 379 850 q 320 870 335 850 q 306 914 306 890 q 347 956 306 956 z "},"":{"ha":556,"x_min":-44,"x_max":600,"o":"m 92 81 q 71 69 90 81 q -3 42 21 42 q -44 83 -44 42 q -3 126 -44 110 q 31 143 4 129 q 61 160 57 157 q 56 197 56 172 q 143 411 56 322 q 303 500 231 500 q 417 466 375 500 q 458 384 458 432 q 436 301 458 336 q 367 233 414 267 q 176 124 301 186 q 331 83 232 83 q 525 115 429 83 q 558 125 554 125 q 600 83 600 125 q 558 39 600 53 q 333 0 442 0 q 92 81 179 0 m 139 197 q 375 375 375 315 q 306 417 375 417 q 201 351 264 417 q 139 197 139 285 m 319 814 q 365 794 342 814 q 389 752 389 774 q 370 719 389 731 q 329 708 351 708 q 292 728 307 708 q 278 772 278 749 q 319 814 278 814 z "},"":{"ha":667,"x_min":56,"x_max":611,"o":"m 569 726 l 444 731 q 183 703 319 731 q 151 475 160 594 q 375 486 207 486 q 492 466 442 486 q 542 417 542 446 q 500 375 542 375 q 457 389 490 375 q 375 403 424 403 q 144 390 207 403 q 139 239 139 299 q 163 131 139 179 q 222 83 188 83 q 513 111 399 83 q 569 125 565 125 q 611 83 611 125 q 600 60 611 72 q 549 35 589 49 q 407 10 508 21 q 228 0 306 0 q 103 71 151 0 q 56 222 56 142 q 94 675 56 415 q 104 739 104 738 q 153 782 117 775 q 407 814 308 814 q 569 810 506 814 q 611 767 611 808 q 569 726 611 726 m 389 -42 q 380 -62 389 -54 q 346 -85 371 -71 q 292 -144 321 -99 q 264 -208 264 -189 q 305 -250 264 -250 q 384 -236 346 -250 q 431 -222 422 -222 q 472 -264 472 -222 q 431 -306 472 -285 q 355 -331 379 -329 q 306 -333 331 -333 q 216 -298 251 -333 q 181 -206 181 -262 q 238 -75 181 -150 q 342 0 294 0 q 389 -42 389 0 z "},"":{"ha":556,"x_min":-44,"x_max":600,"o":"m 92 81 q 71 69 90 81 q -3 42 21 42 q -44 83 -44 42 q -3 126 -44 110 q 31 143 4 129 q 61 160 57 157 q 56 197 56 172 q 143 411 56 322 q 303 500 231 500 q 417 466 375 500 q 458 384 458 432 q 436 301 458 336 q 367 233 414 267 q 176 124 301 186 q 331 83 232 83 q 525 115 429 83 q 558 125 554 125 q 600 83 600 125 q 558 39 600 53 q 333 0 442 0 q 92 81 179 0 m 139 197 q 375 375 375 315 q 306 417 375 417 q 201 351 264 417 q 139 197 139 285 m 347 -42 q 338 -62 347 -54 q 304 -85 329 -71 q 251 -144 279 -99 q 222 -208 222 -189 q 263 -250 222 -250 q 342 -236 304 -250 q 389 -222 381 -222 q 431 -264 431 -222 q 389 -306 431 -285 q 313 -331 338 -329 q 264 -333 289 -333 q 174 -298 210 -333 q 139 -206 139 -262 q 196 -75 139 -150 q 300 0 253 0 q 347 -42 347 0 z "},"":{"ha":667,"x_min":56,"x_max":611,"o":"m 111 42 q 65 513 111 386 q 56 569 56 539 q 97 611 56 611 l 126 611 q 167 639 133 639 q 207 613 201 639 q 556 638 439 617 q 569 639 567 639 q 611 597 611 639 q 569 556 611 564 q 207 529 446 533 l 201 346 q 519 326 263 326 q 561 285 561 326 q 519 243 561 243 q 199 260 279 243 q 194 42 194 133 q 153 0 194 0 q 111 42 111 0 m 569 13 q 398 0 467 0 q 250 26 329 0 q 208 69 208 40 q 250 110 208 110 q 299 98 263 110 q 406 85 335 86 q 520 90 476 83 q 569 96 564 96 q 611 54 611 96 q 599 26 611 38 q 569 13 586 15 m 511 914 q 569 956 553 956 q 611 914 611 956 q 569 854 611 896 q 361 722 438 722 q 301 742 328 722 q 260 794 275 761 q 222 915 222 875 q 263 956 222 956 q 306 914 297 956 q 328 843 313 881 q 361 806 343 806 q 511 914 403 806 z "},"":{"ha":556,"x_min":-44,"x_max":600,"o":"m 400 914 q 458 956 442 956 q 500 914 500 956 q 458 854 500 896 q 250 722 326 722 q 190 742 217 722 q 149 794 164 761 q 111 915 111 875 q 151 956 111 956 q 194 914 186 956 q 217 843 201 881 q 250 806 232 806 q 400 914 292 806 m 92 81 q 71 69 90 81 q -3 42 21 42 q -44 83 -44 42 q -3 126 -44 110 q 31 143 4 129 q 61 160 57 157 q 56 197 56 172 q 143 411 56 322 q 303 500 231 500 q 417 466 375 500 q 458 384 458 432 q 436 301 458 336 q 367 233 414 267 q 176 124 301 186 q 331 83 232 83 q 525 115 429 83 q 558 125 554 125 q 600 83 600 125 q 558 39 600 53 q 333 0 442 0 q 92 81 179 0 m 139 197 q 375 375 375 315 q 306 417 375 417 q 201 351 264 417 q 139 197 139 285 z "},"":{"ha":667,"x_min":56,"x_max":611,"o":"m 569 361 q 611 319 611 361 q 569 278 611 278 q 444 250 444 278 q 458 210 444 239 q 472 153 472 182 q 418 39 472 78 q 283 0 364 0 q 128 67 201 0 q 56 250 56 133 q 171 530 56 421 q 431 639 286 639 q 472 597 472 639 q 431 556 472 556 q 232 471 325 556 q 139 250 139 386 q 183 129 139 175 q 283 83 228 83 q 389 153 389 83 q 375 192 389 164 q 361 250 361 221 q 569 361 361 361 m 389 872 q 330 849 360 872 q 249 774 300 825 q 181 722 197 722 q 139 764 139 722 q 181 824 139 782 q 217 860 203 846 q 247 888 231 874 q 269 908 263 903 q 290 923 275 913 q 313 937 304 933 q 336 946 322 940 q 391 956 360 956 q 449 936 422 956 q 490 883 475 917 q 528 763 528 803 q 488 722 528 722 q 444 764 453 722 q 422 835 438 797 q 389 872 407 872 z "},"":{"ha":556,"x_min":56,"x_max":500,"o":"m 347 389 q 304 403 331 389 q 264 417 278 417 q 173 349 207 417 q 139 208 139 281 q 222 125 139 125 q 316 182 271 125 q 361 286 361 239 q 401 333 361 333 q 444 292 444 333 q 454 0 444 269 q 500 -42 500 0 q 458 -83 500 -75 l 458 -153 q 418 -352 458 -271 q 298 -433 378 -433 q 172 -387 218 -433 q 125 -260 125 -342 q 197 -115 125 -179 q 372 -18 268 -51 q 367 115 372 26 q 222 42 297 42 q 101 88 147 42 q 56 208 56 133 q 114 408 56 315 q 264 500 172 500 q 344 477 299 500 q 389 431 389 454 q 347 389 389 389 m 375 -106 q 253 -175 299 -133 q 208 -267 208 -217 q 292 -350 208 -350 q 375 -153 375 -350 l 375 -106 m 306 872 q 247 849 276 872 q 166 774 218 825 q 97 722 114 722 q 56 764 56 722 q 97 824 56 782 q 133 860 119 846 q 163 888 147 874 q 185 908 179 903 q 206 923 192 913 q 230 937 221 933 q 253 946 239 940 q 308 956 276 956 q 365 936 339 956 q 407 883 392 917 q 444 763 444 803 q 404 722 444 722 q 361 764 369 722 q 339 835 354 797 q 306 872 324 872 z "},"":{"ha":667,"x_min":56,"x_max":611,"o":"m 140 919 q 155 900 140 919 q 197 870 169 882 q 285 858 225 858 q 419 883 346 858 q 543 944 493 907 q 569 956 558 956 q 611 914 611 956 q 594 878 611 890 q 444 802 529 829 q 281 775 358 775 q 83 857 149 775 q 56 914 56 892 q 97 956 56 956 q 140 919 111 956 m 569 361 q 611 319 611 361 q 569 278 611 278 q 444 250 444 278 q 458 210 444 239 q 472 153 472 182 q 418 39 472 78 q 283 0 364 0 q 128 67 201 0 q 56 250 56 133 q 171 530 56 421 q 431 639 286 639 q 472 597 472 639 q 431 556 472 556 q 232 471 325 556 q 139 250 139 386 q 183 129 139 175 q 283 83 228 83 q 389 153 389 83 q 375 192 389 164 q 361 250 361 221 q 569 361 361 361 z "},"":{"ha":556,"x_min":83,"x_max":600,"o":"m 219 668 q 140 695 168 668 q 111 751 111 722 q 153 793 111 793 q 181 772 165 793 q 219 751 197 751 q 374 799 310 751 q 403 814 394 814 q 444 772 444 814 q 403 722 444 753 q 219 668 333 668 m 276 -37 q 226 26 268 -26 q 170 101 185 79 q 129 164 156 122 q 83 311 83 236 q 124 443 83 386 q 228 500 165 500 q 338 463 290 500 q 400 356 385 425 q 403 333 403 344 q 361 292 403 292 q 319 333 331 292 q 236 417 300 417 q 184 383 201 417 q 167 315 167 349 q 176 256 167 282 q 206 195 185 229 q 242 142 228 161 q 340 15 279 89 q 525 115 432 83 q 558 125 554 125 q 600 83 600 125 q 558 39 600 53 q 388 -53 476 13 q 453 -224 453 -154 q 397 -363 453 -293 q 276 -433 342 -433 q 168 -389 211 -433 q 125 -278 125 -344 q 276 -37 125 -175 m 324 -106 q 208 -278 208 -214 q 226 -331 208 -311 q 276 -350 244 -350 q 338 -304 307 -350 q 369 -217 369 -258 q 324 -106 369 -176 z "},"":{"ha":667,"x_min":56,"x_max":611,"o":"m 569 361 q 611 319 611 361 q 569 278 611 278 q 444 250 444 278 q 458 210 444 239 q 472 153 472 182 q 418 39 472 78 q 283 0 364 0 q 128 67 201 0 q 56 250 56 133 q 171 530 56 421 q 431 639 286 639 q 472 597 472 639 q 431 556 472 556 q 232 471 325 556 q 139 250 139 386 q 183 129 139 175 q 283 83 228 83 q 389 153 389 83 q 375 192 389 164 q 361 250 361 221 q 569 361 361 361 m 319 956 q 365 935 342 956 q 389 894 389 915 q 370 861 389 872 q 329 850 351 850 q 292 870 307 850 q 278 914 278 890 q 319 956 278 956 z "},"":{"ha":556,"x_min":56,"x_max":500,"o":"m 347 389 q 304 403 331 389 q 264 417 278 417 q 173 349 207 417 q 139 208 139 281 q 222 125 139 125 q 316 182 271 125 q 361 286 361 239 q 401 333 361 333 q 444 292 444 333 q 454 0 444 269 q 500 -42 500 0 q 458 -83 500 -75 l 458 -153 q 418 -352 458 -271 q 298 -433 378 -433 q 172 -387 218 -433 q 125 -260 125 -342 q 197 -115 125 -179 q 372 -18 268 -51 q 367 115 372 26 q 222 42 297 42 q 101 88 147 42 q 56 208 56 133 q 114 408 56 315 q 264 500 172 500 q 344 477 299 500 q 389 431 389 454 q 347 389 389 389 m 375 -106 q 253 -175 299 -133 q 208 -267 208 -217 q 292 -350 208 -350 q 375 -153 375 -350 l 375 -106 m 319 814 q 365 794 342 814 q 389 752 389 774 q 370 719 389 731 q 329 708 351 708 q 292 728 307 708 q 278 772 278 749 q 319 814 278 814 z "},"":{"ha":667,"x_min":56,"x_max":611,"o":"m 417 0 q 431 -76 417 -62 q 514 -220 514 -160 q 479 -315 514 -281 q 389 -349 444 -349 l 347 -349 q 306 -307 306 -349 q 347 -265 306 -265 l 389 -265 q 431 -224 431 -265 q 364 -126 431 -193 q 340 -83 346 -108 q 333 0 333 -57 q 140 81 225 0 q 56 293 56 163 q 95 524 56 424 q 197 685 135 624 q 328 780 258 746 q 458 814 397 814 q 565 778 518 814 q 611 683 611 743 q 596 592 611 622 q 542 539 569 539 q 513 550 525 539 q 500 581 500 561 l 511 608 q 528 672 528 642 q 508 717 528 703 q 459 731 489 731 q 388 716 429 731 q 303 667 347 701 q 222 586 258 633 q 163 465 186 539 q 139 299 139 392 q 195 144 139 206 q 333 83 251 83 l 417 83 q 458 125 458 83 q 389 186 458 167 q 341 217 363 194 q 319 278 319 239 q 486 389 319 389 l 569 389 q 611 347 611 389 q 569 306 611 306 l 486 306 q 403 278 403 306 q 424 259 403 269 q 472 237 446 249 q 520 196 499 225 q 542 118 542 167 q 507 35 542 69 q 417 0 472 0 z "},"":{"ha":556,"x_min":56,"x_max":500,"o":"m 347 389 q 304 403 331 389 q 264 417 278 417 q 173 349 207 417 q 139 208 139 281 q 222 125 139 125 q 316 182 271 125 q 361 286 361 239 q 401 333 361 333 q 444 292 444 333 q 454 0 444 269 q 500 -42 500 0 q 458 -83 500 -75 l 458 -153 q 418 -352 458 -271 q 298 -433 378 -433 q 172 -387 218 -433 q 125 -260 125 -342 q 197 -115 125 -179 q 372 -18 268 -51 q 367 115 372 26 q 222 42 297 42 q 101 88 147 42 q 56 208 56 133 q 114 408 56 315 q 264 500 172 500 q 344 477 299 500 q 389 431 389 454 q 347 389 389 389 m 375 -106 q 253 -175 299 -133 q 208 -267 208 -217 q 292 -350 208 -350 q 375 -153 375 -350 l 375 -106 m 417 639 q 375 597 417 597 q 313 624 349 597 q 249 705 276 651 q 222 807 222 758 q 244 886 222 856 q 305 936 267 917 q 361 956 343 956 q 403 914 403 956 q 354 869 403 893 q 306 813 306 844 q 324 742 306 781 q 380 676 343 704 q 417 639 417 649 z "},"":{"ha":667,"x_min":56,"x_max":611,"o":"m 189 236 q 139 179 139 211 q 147 115 139 147 q 167 83 154 83 q 194 125 194 83 q 189 236 194 144 m 397 382 l 389 472 q 420 563 389 528 q 500 597 451 597 q 580 563 549 597 q 611 472 611 528 q 486 326 611 378 q 500 0 500 157 q 458 -42 500 -42 q 417 0 417 -42 q 404 299 417 154 l 272 265 q 278 122 278 174 q 247 35 278 69 q 163 0 215 0 q 83 51 110 0 q 56 175 56 103 q 183 322 56 271 q 181 425 181 392 q 194 597 181 458 q 236 639 199 639 q 278 597 278 639 l 276 583 q 264 427 264 458 q 267 349 264 396 l 397 382 m 478 411 q 528 475 528 436 q 500 514 528 514 q 472 472 472 514 q 478 411 472 461 m 444 872 q 386 849 415 872 q 305 774 357 825 q 236 722 253 722 q 194 764 194 722 q 236 824 194 782 q 272 860 258 846 q 302 888 286 874 q 324 908 318 903 q 345 923 331 913 q 369 937 360 933 q 392 946 378 940 q 447 956 415 956 q 504 936 478 956 q 546 883 531 917 q 583 763 583 803 q 543 722 583 722 q 500 764 508 722 q 478 835 493 797 q 444 872 463 872 z "},"":{"ha":806,"x_min":56,"x_max":750,"o":"m 500 872 q 441 849 471 872 q 360 774 411 825 q 292 722 308 722 q 250 764 250 722 q 292 824 250 782 q 328 860 314 846 q 358 888 342 874 q 380 908 374 903 q 401 923 386 913 q 424 937 415 933 q 447 946 433 940 q 502 956 471 956 q 563 935 533 956 q 613 883 592 915 q 667 764 667 800 q 626 722 667 722 q 583 764 599 722 q 544 833 571 794 q 500 872 518 872 m 736 94 q 743 31 736 44 q 750 0 750 17 q 708 -42 750 -42 q 670 -7 688 -42 q 653 97 653 28 q 547 154 653 128 q 319 181 442 181 q 224 209 265 181 q 172 278 183 238 l 97 278 q 56 319 56 278 q 97 361 56 361 l 172 361 q 272 549 192 458 q 431 639 351 639 q 521 604 486 639 q 556 514 556 569 q 261 286 556 325 q 319 264 283 264 q 594 231 472 264 q 736 94 736 192 m 261 369 q 472 514 472 401 q 431 556 472 556 q 337 495 389 556 q 261 369 285 435 z "},"":{"ha":667,"x_min":56,"x_max":611,"o":"m 251 546 q 272 369 271 375 q 415 392 361 369 q 469 444 469 414 l 464 485 q 456 556 458 525 q 251 546 428 556 m 443 639 l 433 731 q 472 772 433 772 q 517 731 511 772 q 522 691 518 722 q 528 639 525 660 l 569 639 q 611 597 611 639 q 569 556 611 556 l 540 556 l 556 444 q 576 328 561 403 q 611 83 611 158 q 569 42 611 42 q 528 83 528 42 q 517 198 528 147 q 499 288 507 249 q 489 338 492 326 q 279 286 422 286 q 292 125 292 176 q 181 0 292 0 q 83 83 113 0 q 56 244 56 158 q 101 338 56 306 q 188 369 146 369 q 168 538 188 372 q 97 528 100 528 q 56 569 56 528 q 65 597 56 589 q 160 619 79 610 q 153 772 153 710 q 194 814 153 814 q 236 772 236 814 q 243 628 236 711 q 443 639 368 638 m 139 236 q 139 222 139 236 q 151 146 139 208 q 181 83 163 83 q 204 92 200 83 q 208 125 208 100 l 194 286 q 156 275 172 286 q 139 236 139 264 z "},"":{"ha":750,"x_min":56,"x_max":694,"o":"m 219 644 l 472 771 q 456 840 472 808 q 403 872 439 872 q 298 815 349 872 q 219 644 247 757 m 114 503 q 97 500 108 500 q 56 542 56 500 q 65 564 56 556 q 97 583 74 572 l 125 597 q 228 862 154 768 q 403 956 303 956 q 504 915 465 956 q 553 811 543 874 q 579 814 558 814 q 621 772 621 814 q 579 731 621 751 l 551 717 q 495 559 540 629 q 389 444 450 489 q 333 417 354 417 q 292 458 292 417 q 333 506 292 474 q 456 668 421 572 l 201 542 q 194 408 194 475 q 236 250 194 250 q 350 294 297 250 q 397 331 372 313 q 556 375 457 375 q 681 139 681 375 q 688 72 681 86 q 694 42 694 58 q 653 0 694 0 q 631 8 639 0 q 597 121 597 44 q 586 244 597 197 q 556 292 575 292 q 422 247 469 292 q 383 211 403 229 q 236 167 333 167 q 111 408 111 167 q 114 503 111 442 z "},"":{"ha":583,"x_min":56,"x_max":528,"o":"m 319 42 q 278 0 319 0 q 236 42 247 0 q 207 182 210 150 q 194 542 194 382 q 236 583 194 583 q 278 542 278 583 q 290 193 278 393 q 306 102 293 157 q 319 42 319 47 m 56 806 q 109 873 56 832 q 213 914 163 914 q 322 888 263 914 q 395 861 381 861 q 422 869 410 861 q 438 887 435 878 q 444 912 440 896 q 450 936 447 928 q 486 956 457 956 q 528 910 528 956 q 494 822 528 865 q 389 778 461 778 q 302 804 358 778 q 215 831 246 831 q 150 797 185 831 q 97 764 115 764 q 56 806 56 764 z "},"":{"ha":583,"x_min":-44,"x_max":628,"o":"m 56 664 q 109 731 56 690 q 213 772 163 772 q 322 746 263 772 q 395 719 381 719 q 422 728 410 719 q 438 745 435 736 q 444 770 440 754 q 450 794 447 786 q 486 814 457 814 q 528 769 528 814 q 494 680 528 724 q 389 636 461 636 q 302 663 358 636 q 215 689 246 689 q 150 656 185 689 q 97 622 115 622 q 56 664 56 622 m 196 172 q 38 53 118 89 q -3 42 13 42 q -44 83 -44 42 q -3 126 -44 110 q 56 160 19 135 q 106 197 93 185 q 149 243 118 210 q 199 294 181 276 q 248 329 217 311 q 306 347 279 347 q 389 308 360 347 q 424 222 418 269 q 472 97 439 97 q 540 111 499 97 q 586 125 582 125 q 628 83 628 125 q 586 39 628 53 q 465 14 511 14 q 389 53 418 14 q 354 139 360 92 q 306 264 339 264 q 265 241 288 264 q 228 205 242 218 q 196 172 214 192 z "},"":{"ha":667,"x_min":56,"x_max":611,"o":"m 319 708 l 306 319 q 313 169 306 247 q 327 72 321 90 q 333 42 333 54 q 292 0 333 0 q 250 42 264 0 q 222 319 222 125 l 236 708 q 278 750 236 750 q 319 708 319 750 m 97 928 q 569 956 236 956 q 611 914 611 956 q 569 872 611 872 q 111 846 243 872 q 97 844 100 844 q 56 886 56 844 q 97 928 56 919 z "},"":{"ha":583,"x_min":-44,"x_max":628,"o":"m 56 744 q 93 785 56 774 q 146 799 131 796 q 242 808 161 803 q 458 814 324 814 q 500 772 500 814 q 458 731 500 731 q 281 728 325 731 l 214 724 q 141 712 169 721 q 97 703 113 703 q 56 744 56 703 m 196 172 q 38 53 118 89 q -3 42 13 42 q -44 83 -44 42 q -3 126 -44 110 q 56 160 19 135 q 106 197 93 185 q 149 243 118 210 q 199 294 181 276 q 248 329 217 311 q 306 347 279 347 q 389 308 360 347 q 424 222 418 269 q 472 97 439 97 q 540 111 499 97 q 586 125 582 125 q 628 83 628 125 q 586 39 628 53 q 465 14 511 14 q 389 53 418 14 q 354 139 360 92 q 306 264 339 264 q 265 241 288 264 q 228 205 242 218 q 196 172 214 192 z "},"":{"ha":722,"x_min":56,"x_max":611,"o":"m 375 42 q 333 0 375 0 q 292 42 303 0 q 263 182 265 150 q 250 542 250 382 q 292 583 250 583 q 333 542 333 583 q 346 193 333 393 q 362 102 349 157 q 375 42 375 47 m 140 919 q 155 900 140 919 q 197 870 169 882 q 285 858 225 858 q 419 883 346 858 q 543 944 493 907 q 569 956 558 956 q 611 914 611 956 q 594 878 611 890 q 444 802 529 829 q 281 775 358 775 q 83 857 149 775 q 56 914 56 892 q 97 956 56 956 q 140 919 111 956 z "},"":{"ha":583,"x_min":-44,"x_max":628,"o":"m 275 668 q 195 695 224 668 q 167 751 167 722 q 208 793 167 793 q 237 772 221 793 q 275 751 253 751 q 429 799 365 751 q 458 814 450 814 q 500 772 500 814 q 458 722 500 753 q 275 668 389 668 m 196 172 q 38 53 118 89 q -3 42 13 42 q -44 83 -44 42 q -3 126 -44 110 q 56 160 19 135 q 106 197 93 185 q 149 243 118 210 q 199 294 181 276 q 248 329 217 311 q 306 347 279 347 q 389 308 360 347 q 424 222 418 269 q 472 97 439 97 q 540 111 499 97 q 586 125 582 125 q 628 83 628 125 q 586 39 628 53 q 465 14 511 14 q 389 53 418 14 q 354 139 360 92 q 306 264 339 264 q 265 241 288 264 q 228 205 242 218 q 196 172 214 192 z "},"":{"ha":417,"x_min":56,"x_max":347,"o":"m 208 708 l 194 319 q 202 169 194 247 q 216 72 210 90 q 222 42 222 54 q 181 0 222 0 q 139 42 153 0 q 111 319 111 125 l 125 708 q 167 750 125 750 q 208 708 208 750 m 264 -42 q 255 -62 264 -54 q 221 -85 246 -71 q 167 -144 196 -99 q 139 -208 139 -189 q 180 -250 139 -250 q 259 -236 221 -250 q 306 -222 297 -222 q 347 -264 347 -222 q 306 -306 347 -285 q 230 -331 254 -329 q 181 -333 206 -333 q 91 -298 126 -333 q 56 -206 56 -262 q 113 -75 56 -150 q 217 0 169 0 q 264 -42 264 0 z "},"":{"ha":500,"x_min":56,"x_max":444,"o":"m 208 814 q 254 794 231 814 q 278 752 278 774 q 259 719 278 731 q 218 708 240 708 q 181 728 196 708 q 167 772 167 749 q 208 814 167 814 m 403 167 q 444 125 444 167 q 415 80 444 110 q 324 25 385 50 q 215 0 263 0 q 132 35 167 0 q 97 119 97 69 q 139 461 97 169 q 181 500 144 500 q 222 458 222 500 q 201 304 222 450 q 181 125 181 158 q 222 83 181 83 q 298 104 253 83 q 364 146 343 125 q 403 167 385 167 m 264 -43 q 255 -64 264 -56 q 221 -86 246 -72 q 167 -145 196 -100 q 139 -210 139 -190 q 180 -251 139 -251 q 259 -237 221 -251 q 306 -224 297 -224 q 347 -265 347 -224 q 306 -307 347 -286 q 230 -333 254 -331 q 181 -335 206 -335 q 91 -299 126 -335 q 56 -208 56 -264 q 113 -76 56 -151 q 217 -1 169 -1 q 264 -43 264 -1 z "},"":{"ha":361,"x_min":111,"x_max":278,"o":"m 208 708 l 194 319 q 202 169 194 247 q 216 72 210 90 q 222 42 222 54 q 181 0 222 0 q 139 42 153 0 q 111 319 111 125 l 125 708 q 167 750 125 750 q 208 708 208 750 m 208 956 q 254 935 231 956 q 278 894 278 915 q 259 861 278 872 q 218 850 240 850 q 181 870 196 850 q 167 914 167 890 q 208 956 167 956 z "},"":{"ha":583,"x_min":-44,"x_max":628,"o":"m 196 172 q 38 53 118 89 q -3 42 13 42 q -44 83 -44 42 q -3 126 -44 110 q 56 160 19 135 q 106 197 93 185 q 149 243 118 210 q 199 294 181 276 q 248 329 217 311 q 306 347 279 347 q 389 308 360 347 q 424 222 418 269 q 472 97 439 97 q 540 111 499 97 q 586 125 582 125 q 628 83 628 125 q 586 39 628 53 q 465 14 511 14 q 389 53 418 14 q 354 139 360 92 q 306 264 339 264 q 265 241 288 264 q 228 205 242 218 q 196 172 214 192 z "},"":{"ha":972,"x_min":56,"x_max":917,"o":"m 847 753 l 875 750 q 917 708 917 746 q 875 667 917 667 q 831 671 867 667 q 828 588 828 640 q 844 373 828 536 q 861 144 861 210 q 814 39 861 78 q 699 0 767 0 l 419 0 q 251 28 311 0 q 160 114 192 56 q 153 142 153 128 q 194 183 153 183 q 224 169 213 183 q 236 149 236 154 q 290 101 249 124 q 278 417 278 251 l 278 583 q 319 625 278 625 q 361 583 361 625 l 361 417 q 372 131 361 269 l 375 83 l 699 83 q 753 100 729 83 q 778 139 778 117 q 761 359 778 203 q 744 585 744 515 q 749 682 744 656 q 419 717 493 717 q 129 672 263 717 q 97 667 107 667 q 56 708 56 667 q 97 750 56 736 q 251 789 183 778 q 407 800 318 800 q 765 764 496 800 q 784 805 774 796 q 814 814 794 814 q 842 806 833 814 q 850 781 850 797 q 847 753 850 764 z "},"":{"ha":1167,"x_min":-44,"x_max":1211,"o":"m 906 28 q 1169 125 1149 125 q 1211 83 1211 125 q 1169 39 1211 53 q 924 -56 1111 19 q 950 -277 950 -207 q 916 -390 950 -347 q 821 -433 882 -433 q 699 -367 760 -433 q 639 -228 639 -301 q 692 -90 639 -154 q 826 0 744 -25 q 736 306 774 306 q 717 285 728 306 q 698 250 706 264 q 678 213 690 236 q 656 174 665 190 q 458 14 568 14 q 347 208 347 14 q 342 281 347 257 q 319 306 338 306 q 222 203 300 306 q 167 140 189 161 q 103 90 146 118 q -3 42 28 42 q -44 83 -44 42 q -3 126 -44 110 q 56 160 19 135 q 108 199 93 185 q 164 267 122 214 q 320 389 257 389 q 407 341 383 389 q 431 195 431 293 q 458 97 431 97 q 583 217 519 97 q 608 263 589 226 q 636 314 628 300 q 664 350 647 328 q 736 389 694 390 q 839 306 803 389 q 906 28 868 238 m 321 689 q 367 669 343 689 q 390 627 390 649 q 372 594 390 606 q 331 583 353 583 q 294 603 308 583 q 279 647 279 624 q 321 689 279 689 m 842 -83 q 762 -136 801 -96 q 722 -222 722 -176 q 759 -308 722 -267 q 820 -350 796 -350 q 856 -330 844 -350 q 867 -286 867 -310 q 842 -83 867 -208 m 875 814 q 887 814 875 814 q 915 801 899 814 q 931 765 931 788 q 916 723 931 743 q 878 703 901 703 q 837 716 854 703 q 819 758 819 729 q 835 800 819 786 q 875 814 851 814 z "},"":{"ha":667,"x_min":56,"x_max":611,"o":"m 56 158 q 97 200 56 200 q 172 173 114 200 q 260 132 229 146 q 349 101 292 118 q 443 83 407 83 q 503 102 479 83 q 526 147 526 121 q 510 263 526 174 q 494 450 494 353 q 561 639 494 639 q 600 597 600 639 q 597 574 600 592 q 578 434 578 506 q 594 269 578 363 q 611 142 611 175 q 563 43 611 86 q 449 0 514 0 q 336 17 385 0 q 274 38 288 33 q 229 56 260 42 q 191 72 199 69 q 151 90 183 75 q 107 111 119 106 q 83 122 94 117 q 56 158 56 136 m 472 872 q 414 849 443 872 q 333 774 385 825 q 264 722 281 722 q 222 764 222 722 q 264 824 222 782 q 300 860 286 846 q 330 888 314 874 q 352 908 346 903 q 373 923 358 913 q 397 937 388 933 q 419 946 406 940 q 474 956 443 956 q 532 936 506 956 q 574 883 558 917 q 611 763 611 803 q 571 722 611 722 q 528 764 536 722 q 506 835 521 797 q 472 872 490 872 z "},"":{"ha":556,"x_min":56,"x_max":600,"o":"m 360 872 q 346 872 360 872 q 294 842 332 872 q 205 758 257 811 q 147 700 153 706 q 139 692 142 694 q 132 686 136 690 q 115 672 119 674 q 108 669 111 671 q 97 667 103 667 q 56 708 56 667 q 97 768 56 729 q 135 806 110 781 q 171 841 161 831 q 201 870 181 851 q 230 897 221 889 q 256 917 239 904 q 283 934 272 929 q 307 944 293 939 q 356 956 331 956 q 398 948 381 956 q 427 929 415 940 q 449 900 439 918 q 466 867 460 882 q 478 831 472 853 q 488 797 485 808 q 497 747 497 758 q 500 731 500 738 q 460 689 500 689 q 417 731 425 689 q 360 872 389 872 m 242 0 l 150 458 q 192 500 150 500 q 236 453 228 500 q 319 39 269 299 q 483 103 413 81 q 558 125 554 125 q 600 83 600 125 q 558 39 600 53 l 533 31 q 335 -47 414 -10 q 367 -285 367 -222 q 333 -390 367 -347 q 238 -433 299 -433 q 116 -367 176 -433 q 56 -222 56 -301 q 242 0 56 -103 m 256 -87 q 139 -222 139 -160 q 176 -308 139 -267 q 237 -350 213 -350 q 272 -330 261 -350 q 283 -281 283 -310 q 256 -87 283 -251 z "},"":{"ha":667,"x_min":69,"x_max":625,"o":"m 307 464 q 203 361 239 411 q 167 249 167 311 q 174 160 167 188 q 181 125 181 132 q 139 83 181 83 q 83 250 83 83 q 76 431 83 257 q 69 736 69 604 q 111 778 69 778 q 153 736 153 778 q 160 439 153 650 q 544 697 275 569 q 583 708 567 708 q 625 667 625 708 q 613 642 625 650 q 531 600 600 635 q 389 519 461 565 q 416 331 389 407 q 485 219 443 254 q 528 167 528 183 q 486 125 528 125 q 424 164 469 125 q 307 464 321 257 m 458 125 q 563 82 515 125 q 611 -8 611 39 q 578 -109 611 -54 q 511 -199 546 -164 q 458 -233 476 -233 q 417 -192 417 -233 q 449 -144 417 -176 q 504 -74 481 -111 q 528 -17 528 -36 q 504 22 528 3 q 458 42 481 42 q 417 83 417 42 q 458 125 417 125 z "},"":{"ha":556,"x_min":56,"x_max":600,"o":"m 528 -28 q 450 -319 528 -165 q 403 -361 429 -361 q 361 -319 361 -361 q 367 -299 361 -310 q 444 -28 444 -153 q 486 14 444 14 q 528 -28 528 14 m 444 14 q 331 81 371 14 q 292 233 292 147 q 333 278 292 278 q 375 228 375 278 q 394 138 375 178 q 442 97 414 97 q 513 111 471 97 q 558 125 554 125 q 600 83 600 125 q 558 39 600 53 q 444 14 483 14 m 167 914 l 165 890 q 144 643 149 724 q 139 449 139 563 q 146 301 139 336 q 260 438 179 375 q 458 500 340 500 q 500 458 500 500 q 458 417 500 417 q 353 396 401 417 q 278 344 306 375 q 211 240 225 286 q 202 205 208 232 q 193 169 196 178 q 183 144 192 160 q 140 118 169 118 q 83 210 110 118 q 56 375 56 303 q 56 505 56 447 q 58 597 57 563 q 63 681 58 631 q 67 746 67 731 q 83 915 69 811 q 125 956 88 956 q 167 914 167 956 z "},"":{"ha":667,"x_min":56,"x_max":611,"o":"m 569 83 q 611 42 611 83 q 569 0 611 0 q 359 78 447 0 q 258 229 271 156 q 217 133 247 207 q 181 40 186 58 q 139 0 168 0 q 97 42 97 0 q 84 252 97 97 q 64 428 71 407 q 56 458 56 449 q 97 500 56 500 q 143 448 125 500 q 168 231 161 396 q 225 344 192 293 q 274 412 258 396 q 325 464 289 428 q 389 500 361 500 q 431 458 431 500 q 411 428 431 443 q 389 410 392 413 q 372 394 375 396 q 365 385 369 392 q 358 376 360 379 q 351 366 356 372 q 345 355 347 360 q 340 342 343 350 q 336 328 338 335 q 333 292 333 314 q 412 144 333 206 q 569 83 490 83 z "},"":{"ha":556,"x_min":56,"x_max":600,"o":"m 89 694 l 83 771 q 125 814 83 814 q 167 772 163 814 q 172 686 172 739 q 156 423 172 633 q 139 162 139 213 q 153 97 139 111 q 200 83 168 83 q 525 115 429 83 q 558 125 554 125 q 600 83 600 125 q 558 39 600 53 q 200 0 442 0 q 56 153 56 0 q 72 425 56 213 q 89 694 89 638 m 367 722 q 325 764 325 722 q 356 803 325 782 q 461 919 403 832 q 506 956 485 956 q 547 914 547 956 q 531 875 547 900 q 401 733 464 775 q 367 722 385 722 z "},"":{"ha":444,"x_min":56,"x_max":489,"o":"m 447 39 q 271 0 331 0 q 176 11 211 0 q 113 56 142 25 q 56 308 56 117 q 89 514 56 413 q 146 604 108 569 q 236 639 183 639 q 361 414 361 639 q 338 313 361 363 q 279 231 314 264 q 157 143 210 164 q 188 98 165 113 q 265 83 211 83 q 381 104 318 83 q 447 125 443 125 q 489 83 489 125 q 447 39 489 53 m 143 226 q 249 323 221 283 q 278 414 278 363 q 236 556 278 556 q 165 476 190 556 q 139 331 139 397 q 143 226 139 264 m 200 722 q 158 764 158 722 q 189 803 158 782 q 303 919 254 846 q 347 956 326 956 q 389 914 389 956 q 372 875 389 900 q 235 733 313 785 q 200 722 218 722 z "},"":{"ha":556,"x_min":56,"x_max":600,"o":"m 89 694 l 83 771 q 125 814 83 814 q 167 772 163 814 q 172 686 172 739 q 156 423 172 633 q 139 161 139 213 q 163 97 139 110 q 278 83 188 83 l 361 83 q 525 115 429 83 q 558 125 554 125 q 600 83 600 125 q 558 39 600 53 l 543 33 q 361 0 464 0 l 361 -14 q 375 -75 361 -61 q 385 -84 376 -76 q 404 -100 394 -92 q 426 -122 414 -108 q 449 -153 439 -139 q 472 -233 472 -189 q 438 -312 472 -278 q 347 -347 403 -347 l 292 -347 q 250 -306 250 -347 q 292 -264 250 -264 l 347 -264 q 389 -222 389 -264 q 371 -186 389 -206 q 334 -149 353 -167 q 308 -125 315 -132 q 278 -14 278 -94 l 278 0 q 105 35 154 0 q 56 141 56 69 q 72 425 56 213 q 89 694 89 638 z "},"":{"ha":667,"x_min":-44,"x_max":711,"o":"m 610 -42 q 532 -333 610 -179 q 485 -375 511 -375 q 443 -333 443 -375 q 449 -312 443 -324 q 526 -42 526 -167 q 568 0 526 0 q 610 -42 610 0 m 486 0 q 263 200 353 0 q 136 111 213 160 q 36 52 60 63 q -3 42 13 42 q -44 83 -44 42 q -3 126 -44 110 q 97 185 21 136 q 225 278 172 235 q 194 500 194 378 q 263 820 194 685 q 417 956 332 956 q 479 933 453 956 q 518 878 506 911 q 542 739 542 814 q 525 587 542 664 q 485 457 508 510 q 431 358 463 404 q 332 249 383 290 q 486 83 407 83 q 603 104 540 83 q 669 125 665 125 q 711 83 711 125 q 669 39 711 53 q 486 0 553 0 m 417 872 q 356 814 393 872 q 278 500 278 692 q 299 329 278 403 q 383 440 344 372 q 458 750 458 571 q 447 831 458 790 q 417 872 436 872 z "},"":{"ha":556,"x_min":56,"x_max":600,"o":"m 89 519 l 83 596 q 125 639 83 639 q 167 597 163 639 q 172 511 172 564 q 156 335 172 458 q 139 162 139 213 q 153 97 139 111 q 200 83 168 83 l 375 83 q 492 104 429 83 q 558 125 554 125 q 600 83 600 125 q 558 39 600 53 q 375 0 442 0 l 200 0 q 56 153 56 0 q 72 338 56 213 q 89 519 89 463 m 456 914 q 514 956 497 956 q 556 914 556 956 q 514 854 556 896 q 306 722 382 722 q 246 742 272 722 q 204 794 219 761 q 167 915 167 875 q 207 956 167 956 q 250 914 242 956 q 272 843 257 881 q 306 806 288 806 q 456 914 347 806 z "},"":{"ha":444,"x_min":56,"x_max":489,"o":"m 447 39 q 271 0 331 0 q 176 11 211 0 q 113 56 142 25 q 56 308 56 117 q 89 514 56 413 q 146 604 108 569 q 236 639 183 639 q 361 414 361 639 q 338 313 361 363 q 279 231 314 264 q 157 143 210 164 q 188 98 165 113 q 265 83 211 83 q 381 104 318 83 q 447 125 443 125 q 489 83 489 125 q 447 39 489 53 m 143 226 q 249 323 221 283 q 278 414 278 363 q 236 556 278 556 q 165 476 190 556 q 139 331 139 397 q 143 226 139 264 m 194 806 q 283 853 236 806 q 347 900 331 900 q 389 858 389 900 q 347 799 389 840 q 194 722 271 722 q 135 742 161 722 q 93 794 108 761 q 56 915 56 875 q 96 956 56 956 q 139 914 131 956 q 161 843 146 881 q 194 806 176 806 z "},"":{"ha":556,"x_min":56,"x_max":500,"o":"m 158 694 l 139 208 q 458 125 139 125 q 500 83 500 125 q 458 42 500 42 q 56 208 56 42 l 75 694 l 69 771 q 111 814 69 814 q 153 772 149 814 q 158 694 158 739 m 319 425 q 365 405 342 425 q 389 363 389 385 q 370 331 389 342 q 329 319 351 319 q 292 340 307 319 q 278 383 278 360 q 319 425 278 425 z "},"":{"ha":667,"x_min":-44,"x_max":711,"o":"m 597 369 q 643 349 619 369 q 667 308 667 329 q 648 275 667 286 q 607 264 629 264 q 570 284 585 264 q 556 328 556 304 q 597 369 556 369 m 486 0 q 263 200 353 0 q 136 111 213 160 q 36 52 60 63 q -3 42 13 42 q -44 83 -44 42 q -3 126 -44 110 q 97 185 21 136 q 225 278 172 235 q 194 500 194 378 q 263 820 194 685 q 417 956 332 956 q 479 933 453 956 q 518 878 506 911 q 542 739 542 814 q 525 587 542 664 q 485 457 508 510 q 431 358 463 404 q 332 249 383 290 q 486 83 407 83 q 603 104 540 83 q 669 125 665 125 q 711 83 711 125 q 669 39 711 53 q 486 0 553 0 m 417 872 q 356 814 393 872 q 278 500 278 692 q 299 329 278 403 q 383 440 344 372 q 458 750 458 571 q 447 831 458 790 q 417 872 436 872 z "},"":{"ha":667,"x_min":56,"x_max":711,"o":"m 256 668 l 250 771 q 292 814 250 814 q 333 772 329 814 q 339 668 339 739 q 417 806 413 794 q 460 844 432 844 q 500 803 500 844 q 488 763 500 792 q 326 483 476 733 q 306 153 306 175 q 486 83 306 83 q 603 104 540 83 q 669 125 665 125 q 711 83 711 125 q 669 39 711 53 q 486 0 553 0 q 222 153 222 0 q 231 319 222 186 q 139 153 147 176 q 97 111 122 111 q 56 153 56 111 q 67 195 56 168 q 246 510 78 222 q 256 668 256 642 z "},"":{"ha":556,"x_min":83,"x_max":600,"o":"m 467 710 q 418 625 433 654 l 406 600 q 431 611 421 611 q 472 568 472 611 q 431 517 472 550 l 331 436 q 292 246 292 329 q 325 123 292 163 q 417 83 358 83 q 492 104 429 83 q 558 125 554 125 q 600 83 600 125 q 558 39 600 53 q 417 0 442 0 q 266 66 324 0 q 208 236 208 132 q 217 329 208 278 q 167 260 185 296 q 125 225 149 225 q 83 267 83 225 q 93 300 83 282 q 261 486 132 376 q 321 620 296 575 q 401 761 346 665 q 478 906 456 857 q 529 956 500 956 q 569 921 569 956 q 467 710 569 886 z "},"":{"ha":667,"x_min":56,"x_max":611,"o":"m 253 456 q 208 514 246 514 q 176 458 188 514 q 139 97 139 271 q 146 39 139 67 q 153 0 153 11 q 111 -42 153 -42 q 68 7 81 -42 q 56 97 56 56 q 94 472 56 278 q 208 597 118 597 q 290 563 253 597 q 333 472 328 528 q 344 347 333 436 q 362 223 356 258 q 376 154 368 188 q 417 83 394 83 q 473 234 446 83 q 500 500 500 385 q 523 593 500 547 q 569 639 546 639 q 611 597 611 639 q 597 558 611 586 q 583 500 583 531 q 565 281 583 397 q 519 83 547 164 q 478 22 506 44 q 417 0 450 0 q 356 22 385 0 q 315 81 328 44 q 293 158 303 117 q 277 235 283 199 q 266 311 271 271 q 259 377 261 351 q 255 428 257 403 q 253 456 253 453 m 431 722 q 389 764 389 722 q 419 803 389 782 q 525 919 467 832 q 569 956 549 956 q 611 914 611 956 q 594 875 611 900 q 465 733 528 775 q 431 722 449 722 z "},"":{"ha":694,"x_min":56,"x_max":739,"o":"m 58 389 l 56 417 q 97 458 56 458 q 139 417 135 458 q 151 246 150 307 q 241 369 188 321 q 363 417 294 417 q 471 354 432 417 q 515 188 510 292 q 556 83 519 83 q 631 104 568 83 q 697 125 693 125 q 739 83 739 125 q 697 39 739 53 q 556 0 581 0 q 466 53 497 0 q 431 182 435 107 q 409 295 428 257 q 361 333 390 333 q 271 281 314 333 q 204 161 228 228 q 181 47 181 94 q 139 0 181 0 q 83 42 94 0 q 69 194 69 111 q 58 389 69 278 m 319 661 q 278 703 278 661 q 285 726 278 717 q 301 745 293 736 q 314 760 310 754 q 549 947 442 904 q 583 956 569 956 q 625 914 625 956 q 612 890 625 903 q 567 865 599 878 q 474 800 536 853 q 376 704 411 747 q 319 661 340 661 z "},"":{"ha":694,"x_min":56,"x_max":639,"o":"m 94 639 q 208 764 118 764 q 290 731 257 764 q 333 639 322 697 q 342 574 335 632 q 360 449 350 515 q 383 313 371 382 q 413 199 396 244 q 444 153 429 153 q 498 279 472 153 q 528 500 524 406 q 555 776 536 738 q 597 814 574 814 q 639 772 639 814 q 629 742 639 761 q 611 497 619 722 q 592 328 608 429 q 556 169 575 225 q 448 69 519 69 q 342 153 376 69 q 267 519 297 260 q 253 622 256 618 q 208 681 242 681 q 178 637 188 681 q 154 416 169 593 q 139 171 139 239 q 146 75 139 103 q 153 42 153 47 q 111 0 153 0 q 68 49 81 0 q 56 168 56 97 q 72 423 56 239 q 94 639 88 607 m 542 0 q 464 -292 542 -137 q 417 -333 443 -333 q 375 -292 375 -333 q 381 -271 375 -282 q 458 0 458 -125 q 500 42 458 42 q 542 0 542 42 z "},"":{"ha":694,"x_min":56,"x_max":739,"o":"m 58 389 l 56 417 q 97 458 56 458 q 139 417 135 458 q 151 246 150 307 q 241 369 188 321 q 363 417 294 417 q 471 354 432 417 q 515 188 510 292 q 556 83 519 83 q 631 104 568 83 q 697 125 693 125 q 739 83 739 125 q 697 39 739 53 q 556 0 581 0 q 466 53 497 0 q 431 182 435 107 q 409 295 428 257 q 361 333 390 333 q 271 281 314 333 q 204 161 228 228 q 181 47 181 94 q 139 0 181 0 q 83 42 94 0 q 69 194 69 111 q 58 389 69 278 m 556 -42 q 478 -333 556 -179 q 431 -375 457 -375 q 389 -333 389 -375 q 394 -312 389 -324 q 472 -42 472 -167 q 514 0 472 0 q 556 -42 556 0 z "},"":{"ha":667,"x_min":56,"x_max":667,"o":"m 253 456 q 208 514 246 514 q 176 458 188 514 q 139 97 139 271 q 146 39 139 67 q 153 0 153 11 q 111 -42 153 -42 q 68 7 81 -42 q 56 97 56 56 q 94 472 56 278 q 208 597 118 597 q 290 563 253 597 q 333 472 328 528 q 344 347 333 436 q 362 223 356 258 q 376 154 368 188 q 417 83 394 83 q 473 234 446 83 q 500 500 500 385 q 523 593 500 547 q 569 639 546 639 q 611 597 611 639 q 597 558 611 586 q 583 500 583 531 q 565 281 583 397 q 519 83 547 164 q 478 22 506 44 q 417 0 450 0 q 356 22 385 0 q 315 81 328 44 q 293 158 303 117 q 277 235 283 199 q 266 311 271 271 q 259 377 261 351 q 255 428 257 403 q 253 456 253 453 m 567 914 q 625 956 608 956 q 667 914 667 956 q 625 854 667 896 q 417 722 493 722 q 357 742 383 722 q 315 794 331 761 q 278 915 278 875 q 318 956 278 956 q 361 914 353 956 q 383 843 368 881 q 417 806 399 806 q 567 914 458 806 z "},"":{"ha":694,"x_min":56,"x_max":739,"o":"m 58 389 l 56 417 q 97 458 56 458 q 139 417 135 458 q 151 246 150 307 q 241 369 188 321 q 363 417 294 417 q 471 354 432 417 q 515 188 510 292 q 556 83 519 83 q 631 104 568 83 q 697 125 693 125 q 739 83 739 125 q 697 39 739 53 q 556 0 581 0 q 466 53 497 0 q 431 182 435 107 q 409 295 428 257 q 361 333 390 333 q 271 281 314 333 q 204 161 228 228 q 181 47 181 94 q 139 0 181 0 q 83 42 94 0 q 69 194 69 111 q 58 389 69 278 m 511 856 q 569 897 553 897 q 611 856 611 897 q 569 796 611 838 q 361 664 438 664 q 301 683 328 664 q 260 736 275 703 q 222 857 222 817 q 263 897 222 897 q 306 856 297 897 q 328 785 313 822 q 361 747 343 747 q 511 856 403 747 z "},"":{"ha":639,"x_min":56,"x_max":583,"o":"m 583 42 q 542 0 583 0 q 500 42 500 0 q 482 326 500 236 q 403 417 464 417 q 311 394 339 417 q 283 325 283 371 q 271 192 283 239 q 228 85 258 146 q 192 18 197 25 q 158 0 179 0 q 117 42 117 0 q 147 105 117 44 q 189 209 178 165 q 200 325 200 253 q 260 460 200 421 q 403 500 321 500 q 547 389 507 500 q 578 247 572 319 q 583 42 583 154 m 222 856 q 144 572 222 726 q 97 531 124 531 q 56 572 56 531 q 61 593 56 582 q 139 856 139 739 q 181 897 139 897 q 222 856 222 897 z "},"":{"ha":667,"x_min":56,"x_max":611,"o":"m 56 42 q 100 500 56 304 q 333 814 171 814 q 536 697 461 814 q 611 361 611 581 q 528 -83 611 83 q 486 -125 506 -125 q 444 -83 444 -125 q 454 -45 444 -65 q 479 19 464 -25 q 511 160 494 63 q 528 361 528 258 q 473 642 528 553 q 333 731 418 731 q 181 478 235 731 q 139 42 139 281 q 97 0 139 0 q 56 42 56 0 z "},"":{"ha":611,"x_min":56,"x_max":556,"o":"m 264 -350 q 364 -285 317 -350 q 431 -142 411 -221 q 472 194 472 25 q 456 306 472 250 q 411 361 439 361 q 347 331 375 361 q 319 239 319 300 q 285 138 319 178 q 190 97 250 97 q 100 153 131 97 q 69 290 69 210 q 111 332 69 332 q 153 290 153 332 q 163 217 153 253 q 193 181 172 181 q 225 197 214 181 q 236 254 236 214 q 256 338 236 294 q 303 403 275 381 q 411 444 356 444 q 519 371 482 444 q 556 194 556 297 q 513 -158 556 6 q 417 -352 483 -271 q 264 -433 351 -433 q 156 -416 206 -433 q 81 -374 106 -399 q 56 -333 56 -349 q 97 -292 56 -292 q 135 -312 114 -292 q 264 -350 172 -350 z "},"":{"ha":667,"x_min":56,"x_max":611,"o":"m 167 886 q 204 926 167 915 q 257 941 242 938 q 353 950 272 944 q 569 956 435 956 q 611 914 611 956 q 569 872 611 872 q 392 869 436 872 l 325 865 q 252 853 281 863 q 208 844 224 844 q 167 886 167 844 m 339 531 q 292 535 318 535 q 185 451 231 535 q 139 278 139 367 q 183 137 139 190 q 306 83 228 83 q 466 179 404 83 q 528 389 528 275 q 498 502 528 449 q 426 556 468 556 q 378 543 404 556 q 339 531 351 531 m 336 615 q 356 624 342 617 q 426 639 385 639 q 559 557 507 639 q 611 389 611 475 q 525 119 611 239 q 306 0 439 0 q 125 78 194 0 q 56 292 56 157 q 85 438 56 363 q 170 565 114 513 q 292 618 226 618 q 336 615 314 618 z "},"":{"ha":667,"x_min":56,"x_max":611,"o":"m 97 786 q 569 814 236 814 q 611 772 611 814 q 569 731 611 731 q 111 704 243 731 q 97 703 100 703 q 56 744 56 703 q 97 786 56 778 m 111 389 q 153 347 153 389 q 146 314 153 331 q 139 274 139 297 q 153 228 139 251 q 196 177 168 204 q 279 131 224 150 q 391 111 335 111 q 488 140 447 111 q 528 222 528 169 q 488 363 528 310 q 375 417 447 417 q 308 396 342 417 q 264 375 274 375 q 222 417 222 375 q 270 472 222 443 q 375 500 318 500 q 546 423 481 500 q 611 222 611 346 q 545 81 611 133 q 404 28 479 28 q 267 47 329 28 q 168 94 206 65 q 103 156 131 122 q 56 263 56 214 q 71 351 56 313 q 111 389 86 389 z "},"":{"ha":667,"x_min":56,"x_max":611,"o":"m 140 919 q 155 900 140 919 q 197 870 169 882 q 285 858 225 858 q 419 883 346 858 q 543 944 493 907 q 569 956 558 956 q 611 914 611 956 q 594 878 611 890 q 444 802 529 829 q 281 775 358 775 q 83 857 149 775 q 56 914 56 892 q 97 956 56 956 q 140 919 111 956 m 339 531 q 292 535 318 535 q 185 451 231 535 q 139 278 139 367 q 183 137 139 190 q 306 83 228 83 q 466 179 404 83 q 528 389 528 275 q 498 502 528 449 q 426 556 468 556 q 378 543 404 556 q 339 531 351 531 m 336 615 q 356 624 342 617 q 426 639 385 639 q 559 557 507 639 q 611 389 611 475 q 525 119 611 239 q 306 0 439 0 q 125 78 194 0 q 56 292 56 157 q 85 438 56 363 q 170 565 114 513 q 292 618 226 618 q 336 615 314 618 z "},"":{"ha":667,"x_min":56,"x_max":611,"o":"m 140 777 q 155 759 140 777 q 197 728 169 740 q 285 717 225 717 q 419 741 346 717 q 543 803 493 765 q 569 814 558 814 q 611 772 611 814 q 594 736 611 749 q 444 660 529 688 q 281 633 358 633 q 83 715 149 633 q 56 772 56 750 q 97 814 56 814 q 140 777 111 814 m 111 389 q 153 347 153 389 q 146 314 153 331 q 139 274 139 297 q 153 228 139 251 q 196 177 168 204 q 279 131 224 150 q 391 111 335 111 q 488 140 447 111 q 528 222 528 169 q 488 363 528 310 q 375 417 447 417 q 308 396 342 417 q 264 375 274 375 q 222 417 222 375 q 270 472 222 443 q 375 500 318 500 q 546 423 481 500 q 611 222 611 346 q 545 81 611 133 q 404 28 479 28 q 267 47 329 28 q 168 94 206 65 q 103 156 131 122 q 56 263 56 214 q 71 351 56 313 q 111 389 86 389 z "},"":{"ha":667,"x_min":56,"x_max":611,"o":"m 339 531 q 292 535 318 535 q 185 451 231 535 q 139 278 139 367 q 183 137 139 190 q 306 83 228 83 q 466 179 404 83 q 528 389 528 275 q 498 502 528 449 q 426 556 468 556 q 378 543 404 556 q 339 531 351 531 m 336 615 q 356 624 342 617 q 426 639 385 639 q 559 557 507 639 q 611 389 611 475 q 525 119 611 239 q 306 0 439 0 q 125 78 194 0 q 56 292 56 157 q 85 438 56 363 q 170 565 114 513 q 292 618 226 618 q 336 615 314 618 m 417 790 q 344 733 394 768 q 264 697 293 697 q 222 739 222 697 q 253 914 222 761 q 265 946 257 936 q 294 956 274 956 q 336 914 336 956 q 317 814 336 892 q 419 903 357 851 q 500 956 482 956 q 542 914 542 956 q 538 892 542 900 q 496 764 507 832 q 454 722 488 722 q 413 764 413 722 q 417 790 413 775 z "},"":{"ha":667,"x_min":56,"x_max":611,"o":"m 389 732 q 316 674 367 710 q 236 639 265 639 q 194 681 194 639 q 225 856 194 703 q 238 888 229 878 q 267 897 246 897 q 308 856 308 897 q 289 756 308 833 q 392 845 329 793 q 472 897 454 897 q 514 856 514 897 q 510 833 514 842 q 468 706 479 774 q 426 664 460 664 q 385 706 385 664 q 389 732 385 717 m 111 389 q 153 347 153 389 q 146 314 153 331 q 139 274 139 297 q 153 228 139 251 q 196 177 168 204 q 279 131 224 150 q 391 111 335 111 q 488 140 447 111 q 528 222 528 169 q 488 363 528 310 q 375 417 447 417 q 308 396 342 417 q 264 375 274 375 q 222 417 222 375 q 270 472 222 443 q 375 500 318 500 q 546 423 481 500 q 611 222 611 346 q 545 81 611 133 q 404 28 479 28 q 267 47 329 28 q 168 94 206 65 q 103 156 131 122 q 56 263 56 214 q 71 351 56 313 q 111 389 86 389 z "},"":{"ha":1181,"x_min":56,"x_max":1225,"o":"m 885 733 q 826 707 840 733 q 836 687 826 701 q 849 664 846 672 q 870 646 853 660 q 894 626 888 632 q 918 606 900 619 q 947 581 936 592 q 975 550 961 568 q 1006 473 1006 511 q 970 395 1006 435 q 893 323 935 356 q 816 251 851 290 q 781 185 781 213 q 851 113 781 142 q 988 83 921 83 q 1150 115 1054 83 q 1183 125 1179 125 q 1225 83 1225 125 q 1183 39 1225 53 q 985 0 1067 0 q 817 35 903 0 q 703 140 731 71 l 651 93 q 392 0 543 0 q 149 125 242 0 q 56 432 56 250 q 101 638 56 556 q 249 721 146 721 q 297 715 275 721 q 380 766 350 749 q 461 799 410 783 q 567 814 513 814 q 764 760 688 814 q 885 814 807 814 q 1028 753 936 814 q 1050 718 1050 738 q 1038 685 1050 699 q 1010 672 1026 672 q 949 703 994 672 q 885 733 904 733 m 313 513 l 322 557 q 301 615 322 590 q 249 640 281 640 q 139 432 139 640 q 212 181 139 278 q 398 83 285 83 q 601 157 511 83 q 744 304 690 231 q 799 467 799 378 q 781 606 799 556 q 746 665 758 631 q 567 732 690 732 q 469 715 511 732 q 372 664 426 699 q 407 565 407 622 q 386 486 407 507 q 356 472 374 472 q 326 484 339 472 q 313 513 313 496 m 882 529 q 885 473 885 493 q 881 425 885 453 q 919 465 917 458 q 882 529 918 493 z "},"":{"ha":1000,"x_min":56,"x_max":1044,"o":"m 736 222 q 607 261 635 222 q 576 161 603 213 q 660 110 599 138 q 798 83 722 83 q 969 115 874 83 q 1003 125 999 125 q 1044 83 1044 125 q 1003 39 1044 53 q 802 0 886 0 q 641 29 718 0 q 526 97 564 58 q 349 0 449 0 q 140 67 225 0 q 56 232 56 135 q 111 329 56 285 q 153 449 111 397 q 259 500 196 500 q 380 479 322 500 q 528 389 438 458 q 620 444 560 417 q 736 472 681 472 q 891 439 838 472 q 944 347 944 406 q 919 281 944 308 q 858 242 896 253 q 736 222 794 222 m 586 329 q 603 293 597 314 q 644 317 610 317 q 681 311 658 317 q 744 306 704 306 q 822 317 783 306 q 861 347 861 328 q 822 378 861 367 q 741 389 783 389 q 654 369 699 389 q 586 329 610 350 m 478 322 q 421 364 464 336 q 367 395 378 392 q 339 406 357 399 q 272 417 310 417 q 214 390 233 417 q 194 331 194 364 q 181 281 194 297 q 153 255 167 264 q 139 235 139 246 q 191 131 139 179 q 349 83 243 83 q 471 160 407 83 q 450 245 450 208 q 478 322 450 282 z "},"":{"ha":667,"x_min":56,"x_max":611,"o":"m 131 0 q 104 15 115 0 q 89 42 93 29 q 56 303 56 175 q 154 535 56 431 q 389 639 253 639 q 529 585 475 639 q 583 444 583 531 q 529 304 583 358 q 389 250 475 250 l 569 114 q 611 64 611 83 q 569 22 611 22 q 519 47 553 22 l 264 239 q 222 292 222 269 q 264 333 222 333 l 389 333 q 469 364 439 333 q 500 444 500 394 q 469 525 500 494 q 389 556 439 556 q 213 476 286 556 q 139 293 139 397 q 169 63 139 189 q 172 42 172 54 q 131 0 172 0 m 375 722 q 333 764 333 722 q 364 803 333 782 q 469 919 411 832 q 514 956 493 956 q 556 914 556 956 q 539 875 556 900 q 410 733 472 775 q 375 722 393 722 z "},"":{"ha":750,"x_min":56,"x_max":878,"o":"m 139 333 l 153 278 q 111 236 153 236 q 74 265 93 236 q 56 333 56 294 q 76 394 56 372 q 139 440 96 417 q 389 500 243 500 q 478 453 443 500 q 514 331 514 407 q 550 169 514 256 q 639 83 586 83 q 803 115 707 83 q 836 125 832 125 q 878 83 878 125 q 836 39 878 53 q 633 0 719 0 q 488 106 546 0 q 431 347 431 213 q 420 394 431 372 q 390 417 410 417 q 174 364 275 417 q 139 333 139 347 m 347 661 q 306 703 306 661 q 313 726 306 717 q 329 745 321 736 q 342 760 338 754 q 576 947 469 904 q 611 956 597 956 q 653 914 653 956 q 640 890 653 903 q 595 865 626 878 q 501 800 564 853 q 403 703 439 747 q 347 661 367 661 z "},"":{"ha":750,"x_min":56,"x_max":806,"o":"m 658 142 q 676 124 658 142 q 694 64 694 106 q 708 8 694 22 q 719 -1 710 7 q 738 -17 728 -8 q 760 -39 747 -25 q 782 -69 772 -56 q 806 -150 806 -106 q 771 -229 806 -194 q 681 -264 736 -264 l 625 -264 q 583 -222 583 -264 q 625 -181 583 -181 l 681 -181 q 722 -139 722 -181 q 704 -103 722 -122 q 667 -66 686 -83 q 642 -42 649 -49 q 611 53 611 -11 q 600 81 611 69 q 565 117 589 92 q 531 151 540 142 q 497 181 521 160 q 454 217 474 203 q 403 254 433 232 q 250 350 357 286 q 208 403 208 374 q 250 444 208 444 l 389 444 q 558 478 504 444 q 611 588 611 511 q 572 698 611 665 q 451 731 532 731 q 311 697 371 731 q 214 607 250 663 q 139 361 139 493 q 169 63 139 189 q 172 42 172 54 q 131 0 172 0 q 104 15 115 0 q 89 42 93 29 q 56 361 56 175 q 99 571 56 469 q 233 743 142 672 q 442 814 325 814 q 627 759 560 814 q 694 597 694 704 q 389 361 694 361 q 476 308 447 331 q 521 274 506 285 q 558 242 536 263 q 589 211 581 219 q 658 142 621 179 z "},"":{"ha":611,"x_min":56,"x_max":556,"o":"m 514 458 l 500 264 q 528 128 500 207 q 556 28 556 50 q 478 -256 556 -101 q 431 -297 457 -297 q 389 -256 389 -297 q 394 -235 389 -246 q 472 28 472 -89 q 444 113 472 31 q 417 253 417 196 q 428 414 417 311 q 97 383 125 383 q 56 425 56 383 q 97 467 56 463 q 472 500 431 500 q 514 458 514 500 z "},"":{"ha":667,"x_min":56,"x_max":611,"o":"m 131 0 q 104 15 115 0 q 89 42 93 29 q 56 303 56 175 q 154 535 56 431 q 389 639 253 639 q 529 585 475 639 q 583 444 583 531 q 529 304 583 358 q 389 250 475 250 l 569 114 q 611 64 611 83 q 569 22 611 22 q 519 47 553 22 l 264 239 q 222 292 222 269 q 264 333 222 333 l 389 333 q 469 364 439 333 q 500 444 500 394 q 469 525 500 494 q 389 556 439 556 q 213 476 286 556 q 139 293 139 397 q 169 63 139 189 q 172 42 172 54 q 131 0 172 0 m 456 914 q 514 956 497 956 q 556 914 556 956 q 514 854 556 896 q 306 722 382 722 q 246 742 272 722 q 204 794 219 761 q 167 915 167 875 q 207 956 167 956 q 250 914 242 956 q 272 843 257 881 q 306 806 288 806 q 456 914 347 806 z "},"":{"ha":833,"x_min":56,"x_max":878,"o":"m 139 333 l 153 278 q 111 236 153 236 q 74 265 93 236 q 56 333 56 294 q 76 394 56 372 q 139 440 96 417 q 389 500 243 500 q 478 453 443 500 q 514 331 514 407 q 550 169 514 256 q 639 83 586 83 q 803 115 707 83 q 836 125 832 125 q 878 83 878 125 q 836 39 878 53 q 633 0 719 0 q 488 106 546 0 q 431 347 431 213 q 420 394 431 372 q 390 417 410 417 q 174 364 275 417 q 139 333 139 347 m 622 914 q 681 956 664 956 q 722 914 722 956 q 681 854 722 896 q 472 722 549 722 q 413 742 439 722 q 371 794 386 761 q 333 915 333 875 q 374 956 333 956 q 417 914 408 956 q 439 843 424 881 q 472 806 454 806 q 622 914 514 806 z "},"":{"ha":667,"x_min":56,"x_max":611,"o":"m 407 508 q 272 556 313 556 q 185 524 231 556 q 139 428 139 493 q 176 338 139 364 q 263 304 213 313 q 368 292 313 296 q 460 285 424 289 q 533 269 494 281 q 611 165 611 247 q 490 41 611 82 q 97 0 368 0 q 56 42 56 0 q 97 83 56 83 q 479 125 375 83 q 528 166 528 144 q 495 196 528 188 q 387 208 463 204 q 271 219 311 213 q 114 279 172 235 q 56 426 56 324 q 125 583 56 528 q 278 639 194 639 q 360 624 325 639 q 403 604 394 608 q 427 592 413 600 q 444 583 442 585 q 486 542 486 563 q 444 500 486 500 q 407 508 422 500 m 319 722 q 278 764 278 722 q 308 803 278 782 q 414 919 356 832 q 458 956 438 956 q 500 914 500 956 q 483 875 500 900 q 354 733 417 775 q 319 722 338 722 z "},"":{"ha":750,"x_min":-44,"x_max":694,"o":"m 347 589 q 306 631 306 589 q 313 654 306 644 q 329 673 321 664 q 342 688 338 682 q 576 875 469 832 q 611 883 597 883 q 653 842 653 883 q 640 818 653 831 q 595 793 626 806 q 501 728 564 781 q 403 631 439 675 q 347 589 367 589 m -3 126 q 115 191 72 157 q 221 290 158 225 q 303 372 283 356 q 444 431 369 431 q 545 408 490 431 q 647 329 600 386 q 694 194 694 272 q 603 58 694 115 q 361 0 511 0 q 319 42 319 0 q 361 83 319 83 q 543 120 475 83 q 611 194 611 157 q 578 283 611 246 q 444 347 519 347 q 360 311 401 347 q 280 231 347 300 q 169 126 213 161 q 69 67 125 92 q -3 42 13 42 q -44 83 -44 42 q -3 126 -44 110 z "},"":{"ha":667,"x_min":56,"x_max":611,"o":"m 407 508 q 272 556 313 556 q 185 524 231 556 q 139 428 139 493 q 176 338 139 364 q 263 304 213 313 q 368 292 313 296 q 460 285 424 289 q 533 269 494 281 q 611 165 611 247 q 490 41 611 82 q 97 0 368 0 q 56 42 56 0 q 97 83 56 83 q 479 125 375 83 q 528 166 528 144 q 495 196 528 188 q 387 208 463 204 q 271 219 311 213 q 114 279 172 235 q 56 426 56 324 q 125 583 56 528 q 278 639 194 639 q 360 624 325 639 q 403 604 394 608 q 427 592 413 600 q 444 583 442 585 q 486 542 486 563 q 444 500 486 500 q 407 508 422 500 m 361 872 q 302 849 332 872 q 221 774 272 825 q 153 722 169 722 q 111 764 111 722 q 153 824 111 782 q 189 860 175 846 q 219 888 203 874 q 241 908 235 903 q 262 923 247 913 q 285 937 276 933 q 308 946 294 940 q 363 956 332 956 q 421 936 394 956 q 463 883 447 917 q 500 763 500 803 q 460 722 500 722 q 417 764 425 722 q 394 835 410 797 q 361 872 379 872 z "},"":{"ha":750,"x_min":-44,"x_max":694,"o":"m 527 731 q 513 731 527 731 q 462 700 499 731 q 372 617 425 669 l 314 558 q 306 551 308 553 q 299 544 303 549 q 282 531 286 532 q 275 528 278 529 q 264 525 269 525 q 222 567 222 525 q 264 626 222 588 q 302 664 276 639 q 338 699 328 689 q 367 728 347 710 q 397 755 388 747 q 422 775 406 763 q 449 792 439 788 q 474 803 460 797 q 522 814 497 814 q 565 806 547 814 q 594 788 582 799 q 616 758 606 776 q 633 726 626 740 q 645 689 639 711 q 654 656 651 667 q 664 606 664 617 q 667 589 667 596 q 626 547 667 547 q 583 589 592 547 q 527 731 556 731 m -3 126 q 115 191 72 157 q 221 290 158 225 q 303 372 283 356 q 444 431 369 431 q 545 408 490 431 q 647 329 600 386 q 694 194 694 272 q 603 58 694 115 q 361 0 511 0 q 319 42 319 0 q 361 83 319 83 q 543 120 475 83 q 611 194 611 157 q 578 283 611 246 q 444 347 519 347 q 360 311 401 347 q 280 231 347 300 q 169 126 213 161 q 69 67 125 92 q -3 42 13 42 q -44 83 -44 42 q -3 126 -44 110 z "},"":{"ha":667,"x_min":56,"x_max":611,"o":"m 164 0 q 167 -14 167 -8 q 181 -75 167 -61 q 191 -84 182 -76 q 210 -100 200 -92 q 232 -122 219 -108 q 254 -153 244 -139 q 278 -233 278 -189 q 243 -312 278 -278 q 153 -347 208 -347 l 97 -347 q 56 -306 56 -347 q 97 -264 56 -264 l 153 -264 q 194 -222 194 -264 q 176 -186 194 -206 q 140 -149 158 -167 q 114 -125 121 -132 q 83 -14 83 -94 q 75 3 83 -6 q 56 42 56 13 q 97 83 56 83 q 479 125 375 83 q 528 167 528 144 q 479 210 528 190 q 361 253 431 231 q 222 307 292 275 q 104 401 153 339 q 56 547 56 463 q 153 737 56 660 q 386 814 250 814 q 512 769 461 814 q 563 663 563 725 q 514 551 563 600 q 447 503 465 503 q 406 544 406 503 q 442 599 406 563 q 479 656 479 636 q 453 710 479 689 q 388 731 428 731 q 212 678 285 731 q 139 551 139 626 q 188 431 139 476 q 306 360 236 385 q 444 314 375 336 q 611 167 611 263 q 510 43 611 83 q 164 0 410 3 z "},"":{"ha":750,"x_min":-44,"x_max":694,"o":"m 315 381 q 447 431 365 431 q 547 408 493 431 q 648 329 601 386 q 694 198 694 272 q 616 66 694 124 q 407 0 538 8 q 416 -30 411 -25 q 430 -42 421 -35 q 449 -58 439 -50 q 471 -81 458 -67 q 493 -111 483 -97 q 517 -192 517 -147 q 482 -271 517 -236 q 392 -306 447 -306 l 336 -306 q 294 -264 294 -306 q 336 -222 294 -222 l 392 -222 q 433 -181 433 -222 q 415 -144 433 -164 q 378 -108 397 -125 q 353 -83 360 -90 q 322 28 322 -53 l 322 42 q 364 83 322 83 q 544 120 478 83 q 611 194 611 157 q 578 283 611 246 q 447 347 521 347 q 372 319 400 347 q 38 53 161 107 q -3 42 13 42 q -44 83 -44 42 q -3 126 -44 110 q 315 381 104 169 z "},"":{"ha":667,"x_min":56,"x_max":611,"o":"m 407 508 q 272 556 313 556 q 185 524 231 556 q 139 428 139 493 q 176 338 139 364 q 263 304 213 313 q 368 292 313 296 q 460 285 424 289 q 533 269 494 281 q 611 165 611 247 q 490 41 611 82 q 97 0 368 0 q 56 42 56 0 q 97 83 56 83 q 479 125 375 83 q 528 166 528 144 q 495 196 528 188 q 387 208 463 204 q 271 219 311 213 q 114 279 172 235 q 56 426 56 324 q 125 583 56 528 q 278 639 194 639 q 360 624 325 639 q 403 604 394 608 q 427 592 413 600 q 444 583 442 585 q 486 542 486 563 q 444 500 486 500 q 407 508 422 500 m 456 914 q 514 956 497 956 q 556 914 556 956 q 514 854 556 896 q 306 722 382 722 q 246 742 272 722 q 204 794 219 761 q 167 915 167 875 q 207 956 167 956 q 250 914 242 956 q 272 843 257 881 q 306 806 288 806 q 456 914 347 806 z "},"":{"ha":750,"x_min":-44,"x_max":694,"o":"m 567 772 q 625 814 608 814 q 667 772 667 814 q 625 713 667 754 q 417 581 493 581 q 357 600 383 581 q 315 653 331 619 q 278 774 278 733 q 318 814 278 814 q 361 772 353 814 q 383 701 368 739 q 417 664 399 664 q 567 772 458 664 m -3 126 q 115 191 72 157 q 221 290 158 225 q 303 372 283 356 q 444 431 369 431 q 545 408 490 431 q 647 329 600 386 q 694 194 694 272 q 603 58 694 115 q 361 0 511 0 q 319 42 319 0 q 361 83 319 83 q 543 120 475 83 q 611 194 611 157 q 578 283 611 246 q 444 347 519 347 q 360 311 401 347 q 280 231 347 300 q 169 126 213 161 q 69 67 125 92 q -3 42 13 42 q -44 83 -44 42 q -3 126 -44 110 z "},"":{"ha":722,"x_min":56,"x_max":667,"o":"m 347 333 l 347 28 q 361 -33 347 -19 q 372 -42 363 -35 q 390 -58 381 -50 q 413 -81 400 -67 q 435 -111 425 -97 q 458 -192 458 -147 q 424 -271 458 -236 q 333 -306 389 -306 l 278 -306 q 236 -264 236 -306 q 278 -222 236 -222 l 333 -222 q 375 -181 375 -222 q 357 -144 375 -164 q 320 -108 339 -125 q 294 -83 301 -90 q 264 28 264 -53 l 264 333 q 326 556 264 457 q 486 694 389 654 q 97 731 278 731 q 56 772 56 731 q 97 814 56 814 q 625 750 313 814 q 654 731 642 747 q 667 694 667 715 q 653 656 667 674 q 625 639 639 639 q 425 550 503 639 q 347 333 347 461 z "},"":{"ha":583,"x_min":83,"x_max":556,"o":"m 181 83 q 122 122 146 83 q 83 277 83 185 q 104 574 83 369 q 125 914 125 779 q 167 956 125 956 q 208 914 208 956 q 188 565 208 776 q 167 285 167 353 q 181 194 167 217 q 188 201 183 197 q 514 375 357 375 q 556 333 556 375 q 514 292 556 292 q 396 259 457 292 q 294 188 335 226 q 222 116 254 149 q 181 83 189 83 m 306 0 q 228 -292 306 -137 q 181 -333 207 -333 q 139 -292 139 -333 q 144 -271 139 -282 q 222 0 222 -125 q 264 42 222 42 q 306 0 306 42 z "},"":{"ha":667,"x_min":56,"x_max":611,"o":"m 444 546 q 276 551 426 547 q 97 556 125 556 q 56 597 56 556 q 97 639 56 639 q 569 611 500 639 q 611 556 611 594 q 600 508 611 532 q 569 482 589 485 q 292 417 292 439 q 313 353 292 411 q 333 242 333 294 l 333 42 q 292 0 333 0 q 250 42 250 0 l 250 242 q 229 340 250 282 q 208 416 208 399 q 211 444 208 433 q 227 472 214 456 q 264 500 240 489 q 444 546 324 531 m 456 914 q 514 956 497 956 q 556 914 556 956 q 514 854 556 896 q 306 722 382 722 q 246 742 272 722 q 204 794 219 761 q 167 915 167 875 q 207 956 167 956 q 250 914 242 956 q 272 843 257 881 q 306 806 288 806 q 456 914 347 806 z "},"":{"ha":667,"x_min":56,"x_max":611,"o":"m 208 332 q 278 333 224 333 q 379 324 333 333 q 435 307 425 315 q 444 279 444 299 q 403 236 444 236 q 357 243 392 236 q 274 250 322 250 q 213 249 226 250 q 220 153 215 203 q 238 80 225 104 q 250 42 250 56 q 208 0 250 0 q 165 43 186 0 q 140 121 143 86 q 131 240 136 156 q 97 236 106 236 q 56 278 56 236 q 68 306 56 294 q 125 324 82 318 q 132 542 125 396 q 139 708 139 688 q 181 750 139 750 q 222 708 222 750 q 215 542 222 685 q 208 332 208 399 m 511 914 q 569 956 553 956 q 611 914 611 956 q 569 854 611 896 q 361 722 438 722 q 301 742 328 722 q 260 794 275 761 q 222 915 222 875 q 263 956 222 956 q 306 914 297 956 q 328 843 313 881 q 361 806 343 806 q 511 914 403 806 z "},"":{"ha":722,"x_min":56,"x_max":667,"o":"m 347 329 l 347 42 q 306 0 347 0 q 264 42 264 0 l 264 324 q 135 312 171 318 q 97 306 100 306 q 56 347 56 306 q 65 375 56 367 q 271 407 89 397 q 346 584 288 507 q 486 694 404 661 q 97 731 278 731 q 56 772 56 731 q 97 814 56 814 q 625 750 313 814 q 654 731 642 747 q 667 694 667 715 q 653 656 667 674 q 625 639 639 639 q 451 576 524 639 q 356 413 378 513 q 569 417 447 417 q 611 375 611 417 q 569 333 611 333 q 347 329 439 333 z "},"":{"ha":583,"x_min":56,"x_max":528,"o":"m 97 528 q 56 567 56 528 q 97 611 56 606 q 117 914 99 743 q 158 956 121 956 q 200 915 200 956 q 191 798 200 908 q 181 622 182 688 q 375 639 303 639 q 417 597 417 639 q 406 567 417 579 q 358 556 394 556 q 182 539 322 556 q 190 399 182 476 q 197 311 197 321 q 311 336 251 336 l 486 336 q 528 294 528 336 q 486 253 528 253 l 311 253 q 251 238 282 253 q 221 211 221 224 q 249 130 221 167 q 278 83 278 93 q 236 42 278 42 q 181 83 214 42 q 97 528 104 171 z "},"":{"ha":667,"x_min":56,"x_max":611,"o":"m 403 806 q 301 826 374 806 q 200 847 228 847 q 144 819 172 847 q 97 792 115 792 q 56 833 56 792 q 102 895 56 860 q 208 931 149 931 q 310 910 238 931 q 403 889 383 889 q 525 938 453 889 q 569 956 553 956 q 611 914 611 956 q 569 868 611 896 q 403 806 475 806 m 139 500 q 168 186 139 289 q 208 112 181 140 q 267 83 235 83 q 381 138 329 83 q 469 283 433 192 q 528 597 528 432 q 569 639 528 639 q 611 597 611 639 q 544 251 611 418 q 428 69 499 138 q 267 0 358 0 q 157 46 206 0 q 88 167 108 92 q 56 500 56 278 q 97 542 56 542 q 139 500 139 542 z "},"":{"ha":806,"x_min":-44,"x_max":850,"o":"m 153 664 q 206 731 153 690 q 310 772 260 772 q 419 746 360 772 q 492 719 478 719 q 519 728 507 719 q 535 745 532 736 q 541 770 538 754 q 547 794 544 786 q 583 814 554 814 q 625 769 625 814 q 592 680 625 724 q 486 636 558 636 q 399 663 456 636 q 313 689 343 689 q 247 656 282 689 q 194 622 213 622 q 153 664 153 622 m 167 375 q 178 405 167 393 q 208 417 189 417 q 250 375 250 417 q 301 176 250 268 q 417 83 351 83 q 544 414 446 83 q 597 456 557 456 q 628 447 618 456 q 640 425 638 439 q 647 372 642 411 q 661 294 653 333 q 679 211 668 256 q 736 111 704 111 q 783 118 763 111 q 808 125 804 125 q 850 83 850 125 q 813 40 850 53 q 743 28 775 28 q 690 38 711 28 q 656 64 669 49 q 631 106 644 78 q 602 176 615 136 q 588 224 589 217 q 585 238 586 231 q 583 250 585 246 q 578 233 581 244 l 572 217 q 567 205 569 211 q 553 162 565 199 q 531 103 540 125 q 504 56 521 83 q 413 0 471 0 q 293 56 356 0 q 196 204 231 111 q 132 125 169 161 q 41 53 69 64 q -3 42 13 42 q -44 83 -44 42 q -3 127 -44 110 q 103 215 39 144 q 167 375 167 286 z "},"":{"ha":667,"x_min":56,"x_max":611,"o":"m 139 500 q 168 186 139 289 q 208 112 181 140 q 267 83 235 83 q 381 138 329 83 q 469 283 433 192 q 528 597 528 432 q 569 639 528 639 q 611 597 611 639 q 544 251 611 418 q 428 69 499 138 q 267 0 358 0 q 157 46 206 0 q 88 167 108 92 q 56 500 56 278 q 97 542 56 542 q 139 500 139 542 m 97 928 q 569 956 236 956 q 611 914 611 956 q 569 872 611 872 q 111 846 243 872 q 97 844 100 844 q 56 886 56 844 q 97 928 56 919 z "},"":{"ha":806,"x_min":-44,"x_max":850,"o":"m 153 786 q 625 814 292 814 q 667 772 667 814 q 625 731 667 731 q 167 704 299 731 q 153 703 156 703 q 111 744 111 703 q 153 786 111 778 m 167 375 q 178 405 167 393 q 208 417 189 417 q 250 375 250 417 q 301 176 250 268 q 417 83 351 83 q 544 414 446 83 q 597 456 557 456 q 628 447 618 456 q 640 425 638 439 q 647 372 642 411 q 661 294 653 333 q 679 211 668 256 q 736 111 704 111 q 783 118 763 111 q 808 125 804 125 q 850 83 850 125 q 813 40 850 53 q 743 28 775 28 q 690 38 711 28 q 656 64 669 49 q 631 106 644 78 q 602 176 615 136 q 588 224 589 217 q 585 238 586 231 q 583 250 585 246 q 578 233 581 244 l 572 217 q 567 205 569 211 q 553 162 565 199 q 531 103 540 125 q 504 56 521 83 q 413 0 471 0 q 293 56 356 0 q 196 204 231 111 q 132 125 169 161 q 41 53 69 64 q -3 42 13 42 q -44 83 -44 42 q -3 127 -44 110 q 103 215 39 144 q 167 375 167 286 z "},"":{"ha":667,"x_min":56,"x_max":611,"o":"m 140 919 q 155 900 140 919 q 197 870 169 882 q 285 858 225 858 q 419 883 346 858 q 543 944 493 907 q 569 956 558 956 q 611 914 611 956 q 594 878 611 890 q 444 802 529 829 q 281 775 358 775 q 83 857 149 775 q 56 914 56 892 q 97 956 56 956 q 140 919 111 956 m 139 500 q 168 186 139 289 q 208 112 181 140 q 267 83 235 83 q 381 138 329 83 q 469 283 433 192 q 528 597 528 432 q 569 639 528 639 q 611 597 611 639 q 544 251 611 418 q 428 69 499 138 q 267 0 358 0 q 157 46 206 0 q 88 167 108 92 q 56 500 56 278 q 97 542 56 542 q 139 500 139 542 z "},"":{"ha":667,"x_min":56,"x_max":711,"o":"m 444 250 q 208 0 361 0 q 95 45 135 0 q 56 159 56 90 q 83 394 56 228 q 125 436 90 436 q 167 394 167 436 q 153 308 167 392 q 139 174 139 225 q 153 103 139 122 q 201 83 168 83 q 259 100 235 83 q 302 144 283 117 q 337 204 321 172 q 365 273 353 236 q 386 336 378 310 q 406 414 406 406 q 458 456 418 456 q 489 447 479 456 q 501 425 499 439 q 508 372 503 411 q 522 294 514 333 q 540 211 529 256 q 597 111 565 111 q 644 118 624 111 q 669 125 665 125 q 711 83 711 125 q 674 40 711 53 q 604 28 636 28 q 551 38 572 28 q 517 64 531 49 q 492 106 506 78 q 463 176 476 136 q 449 224 450 217 q 447 238 447 231 q 444 250 446 246 m 140 777 q 155 759 140 777 q 197 728 169 740 q 285 717 225 717 q 419 741 346 717 q 543 803 493 765 q 569 814 558 814 q 611 772 611 814 q 594 736 611 749 q 444 660 529 688 q 281 633 358 633 q 83 715 149 633 q 56 772 56 750 q 97 814 56 814 q 140 777 111 814 z "},"":{"ha":667,"x_min":56,"x_max":611,"o":"m 349 944 q 377 944 349 944 q 446 910 406 944 q 486 818 486 875 q 451 721 486 761 q 360 681 417 681 q 263 718 304 681 q 222 812 222 756 q 257 906 222 868 q 349 944 292 944 m 306 811 q 322 778 306 792 q 360 764 339 764 q 392 781 381 764 q 403 818 403 797 q 386 850 403 839 q 347 861 369 861 q 306 811 306 861 m 139 500 q 168 186 139 289 q 208 112 181 140 q 267 83 235 83 q 381 138 329 83 q 469 283 433 192 q 528 597 528 432 q 569 639 528 639 q 611 597 611 639 q 544 251 611 418 q 428 69 499 138 q 267 0 358 0 q 157 46 206 0 q 88 167 108 92 q 56 500 56 278 q 97 542 56 542 q 139 500 139 542 z "},"":{"ha":667,"x_min":56,"x_max":711,"o":"m 444 250 q 208 0 361 0 q 95 45 135 0 q 56 159 56 90 q 83 394 56 228 q 125 436 90 436 q 167 394 167 436 q 153 308 167 392 q 139 174 139 225 q 153 103 139 122 q 201 83 168 83 q 259 100 235 83 q 302 144 283 117 q 337 204 321 172 q 365 273 353 236 q 386 336 378 310 q 406 414 406 406 q 458 456 418 456 q 489 447 479 456 q 501 425 499 439 q 508 372 503 411 q 522 294 514 333 q 540 211 529 256 q 597 111 565 111 q 644 118 624 111 q 669 125 665 125 q 711 83 711 125 q 674 40 711 53 q 604 28 636 28 q 551 38 572 28 q 517 64 531 49 q 492 106 506 78 q 463 176 476 136 q 449 224 450 217 q 447 238 447 231 q 444 250 446 246 m 293 944 q 322 944 293 944 q 390 910 350 944 q 431 818 431 875 q 396 721 431 761 q 305 681 361 681 q 208 718 249 681 q 167 812 167 756 q 201 906 167 868 q 293 944 236 944 m 250 811 q 267 778 250 792 q 304 764 283 764 q 336 781 325 764 q 347 818 347 797 q 331 850 347 839 q 292 861 314 861 q 250 811 250 861 z "},"":{"ha":667,"x_min":56,"x_max":611,"o":"m 139 500 q 168 186 139 289 q 208 112 181 140 q 267 83 235 83 q 381 138 329 83 q 469 283 433 192 q 528 597 528 432 q 569 639 528 639 q 611 597 611 639 q 544 251 611 418 q 428 69 499 138 q 267 0 358 0 q 157 46 206 0 q 88 167 108 92 q 56 500 56 278 q 97 542 56 542 q 139 500 139 542 m 389 790 q 316 733 367 768 q 236 697 265 697 q 194 739 194 697 q 225 914 194 761 q 238 946 229 936 q 267 956 246 956 q 308 914 308 956 q 289 814 308 892 q 392 903 329 851 q 472 956 454 956 q 514 914 514 956 q 510 892 514 900 q 468 764 479 832 q 426 722 460 722 q 385 764 385 722 q 389 790 385 775 z "},"":{"ha":667,"x_min":56,"x_max":711,"o":"m 444 250 q 208 0 361 0 q 95 45 135 0 q 56 159 56 90 q 83 394 56 228 q 125 436 90 436 q 167 394 167 436 q 153 308 167 392 q 139 174 139 225 q 153 103 139 122 q 201 83 168 83 q 259 100 235 83 q 302 144 283 117 q 337 204 321 172 q 365 273 353 236 q 386 336 378 310 q 406 414 406 406 q 458 456 418 456 q 489 447 479 456 q 501 425 499 439 q 508 372 503 411 q 522 294 514 333 q 540 211 529 256 q 597 111 565 111 q 644 118 624 111 q 669 125 665 125 q 711 83 711 125 q 674 40 711 53 q 604 28 636 28 q 551 38 572 28 q 517 64 531 49 q 492 106 506 78 q 463 176 476 136 q 449 224 450 217 q 447 238 447 231 q 444 250 446 246 m 472 718 q 399 660 450 696 q 319 625 349 625 q 278 667 278 625 q 308 842 278 689 q 321 874 313 864 q 350 883 329 883 q 392 842 392 883 q 372 742 392 819 q 475 831 413 779 q 556 883 538 883 q 597 842 597 883 q 593 819 597 828 q 551 692 563 760 q 510 650 543 650 q 468 692 468 650 q 472 718 468 703 z "},"":{"ha":667,"x_min":56,"x_max":611,"o":"m 264 -42 q 255 -62 264 -54 q 221 -85 246 -71 q 167 -144 196 -99 q 139 -208 139 -189 q 180 -250 139 -250 q 259 -236 221 -250 q 306 -222 297 -222 q 347 -264 347 -222 q 306 -306 347 -285 q 230 -331 254 -329 q 181 -333 206 -333 q 91 -298 126 -333 q 56 -206 56 -262 q 113 -75 56 -150 q 217 0 169 0 q 264 -42 264 0 m 504 757 l 503 772 q 515 803 503 792 q 540 814 526 814 q 586 772 575 814 q 611 582 611 669 q 589 394 611 494 q 526 203 567 293 q 418 57 486 114 q 274 0 350 0 q 153 36 199 0 q 89 140 108 72 q 56 405 56 250 q 83 703 56 560 q 100 733 88 722 q 125 744 113 744 q 167 703 167 744 l 163 676 q 139 460 139 560 q 140 323 139 361 q 149 235 142 285 q 169 155 157 186 q 207 102 182 124 q 267 81 232 81 q 404 162 343 81 q 497 358 465 243 q 528 569 528 474 q 504 757 528 664 z "},"":{"ha":667,"x_min":56,"x_max":711,"o":"m 444 250 q 208 0 361 0 q 95 45 135 0 q 56 159 56 90 q 83 394 56 228 q 125 436 90 436 q 167 394 167 436 q 153 308 167 392 q 139 174 139 225 q 153 103 139 122 q 201 83 168 83 q 259 100 235 83 q 302 144 283 117 q 337 204 321 172 q 365 273 353 236 q 386 336 378 310 q 406 414 406 406 q 458 456 418 456 q 489 447 479 456 q 501 425 499 439 q 508 372 503 411 q 522 294 514 333 q 540 211 529 256 q 597 111 565 111 q 644 118 624 111 q 669 125 665 125 q 711 83 711 125 q 674 40 711 53 q 604 28 636 28 q 551 38 572 28 q 517 64 531 49 q 492 106 506 78 q 463 176 476 136 q 449 224 450 217 q 447 238 447 231 q 444 250 446 246 m 292 -42 q 283 -62 292 -54 q 249 -85 274 -71 q 195 -144 224 -99 q 167 -208 167 -189 q 208 -250 167 -250 q 287 -236 249 -250 q 333 -222 325 -222 q 375 -264 375 -222 q 333 -306 375 -285 q 258 -331 282 -329 q 208 -333 233 -333 q 119 -298 154 -333 q 83 -206 83 -262 q 140 -75 83 -150 q 244 0 197 0 q 292 -42 292 0 z "},"":{"ha":944,"x_min":56,"x_max":889,"o":"m 556 872 q 497 849 526 872 q 416 774 468 825 q 347 722 364 722 q 306 764 306 722 q 347 824 306 782 q 383 860 369 846 q 413 888 397 874 q 435 908 429 903 q 456 923 442 913 q 480 937 471 933 q 503 946 489 940 q 558 956 526 956 q 615 936 589 956 q 657 883 642 917 q 694 763 694 803 q 654 722 694 722 q 611 764 619 722 q 589 835 604 797 q 556 872 574 872 m 889 625 q 883 588 889 610 q 831 276 847 457 q 802 70 814 96 q 782 33 790 44 q 715 0 758 0 q 644 27 672 0 q 598 99 617 54 q 551 258 579 143 q 502 451 522 374 q 471 528 482 528 q 447 437 460 528 q 419 232 433 346 q 393 90 404 118 q 375 48 382 61 q 347 17 368 35 q 297 0 325 0 q 194 83 236 0 q 108 324 153 168 q 56 597 56 514 q 97 639 56 639 q 139 601 135 639 q 181 372 147 499 q 249 165 215 246 q 297 83 283 83 q 325 174 311 83 q 353 378 339 264 q 379 528 368 493 q 473 611 404 611 q 564 535 542 611 q 608 376 586 458 q 640 249 629 294 q 665 162 651 204 q 689 101 678 119 q 714 83 700 83 q 733 161 725 83 q 806 625 769 489 q 820 657 811 647 q 847 667 829 667 q 889 625 889 667 z "},"":{"ha":1014,"x_min":56,"x_max":958,"o":"m 694 872 q 680 872 694 872 q 628 842 665 872 q 539 758 592 811 l 481 700 q 472 692 475 694 q 465 686 469 690 q 449 672 453 674 q 442 669 444 671 q 431 667 436 667 q 389 708 389 667 q 431 768 389 729 q 469 806 443 781 q 504 841 494 831 q 534 870 514 851 q 563 897 554 889 q 589 917 572 904 q 616 934 606 929 q 640 944 626 939 q 689 956 664 956 q 731 948 714 956 q 760 929 749 940 q 783 900 772 918 q 799 867 793 882 q 812 831 806 853 q 821 797 818 808 q 831 747 831 758 q 833 731 833 738 q 793 689 833 689 q 750 731 758 689 q 694 872 722 872 m 958 458 q 764 42 958 42 q 569 153 669 42 q 386 33 460 67 q 249 0 313 0 q 147 25 185 0 q 92 97 111 51 q 56 286 56 183 q 83 458 56 389 q 101 490 93 481 q 125 500 110 500 q 167 458 167 500 q 163 432 167 442 q 139 306 139 372 q 236 83 139 83 q 327 98 296 83 q 371 117 358 113 q 401 133 383 122 q 428 150 419 144 q 454 169 436 156 q 477 186 472 182 q 499 204 482 190 q 519 221 517 218 q 486 336 486 281 q 506 432 486 392 q 547 472 526 472 q 590 431 590 472 q 580 397 590 421 q 569 333 569 372 q 639 201 569 276 q 764 125 708 125 q 875 458 875 125 q 917 500 875 500 q 958 458 958 500 z "}}}
